<?xml version="1.0" standalone="no"?>
<!DOCTYPE svg PUBLIC "-//W3C//DTD SVG 1.1//EN" "http://www.w3.org/Graphics/SVG/1.1/DTD/svg11.dtd" >
<svg xmlns="http://www.w3.org/2000/svg" xmlns:xlink="http://www.w3.org/1999/xlink" version="1.1">
<metadata>
Created by FontForge 20170910 at Fri Jul 17 14:49:37 2015
 By Jimmy Wärting
Copyright (c) 2015 by Kostas Bartsokas. All rights reserved.
</metadata>
<defs>
<font id="Averta-Black" horiz-adv-x="1200" >
  <font-face 
    font-family="Averta-Black"
    font-weight="400"
    font-stretch="normal"
    units-per-em="2048"
    panose-1="0 0 10 0 0 0 0 0 0 0"
    ascent="1602"
    descent="-446"
    x-height="1003"
    cap-height="1455"
    bbox="-586 -533.002 2941 2051"
    underline-thickness="130"
    underline-position="-80"
    unicode-range="U+0020-2E18"
  />
<missing-glyph horiz-adv-x="894" 
 />
    <glyph glyph-name=".notdef" horiz-adv-x="894" 
 />
    <glyph glyph-name="space" unicode=" " horiz-adv-x="470" 
 />
    <glyph glyph-name="exclam" unicode="!" horiz-adv-x="612" 
d="M176 524l-61 984h379l-61 -984h-257zM307 -21c-55.333 0 -102.5 19.168 -141.5 57.501s-58.5 84.833 -58.5 139.5c0 53.333 19.667 99.166 59 137.499s86.333 57.5 141 57.5c35.333 0 68.333 -8.83301 99 -26.5s55 -41.5 73 -71.5s27 -62.333 27 -97
c0 -54.667 -19.5 -101.167 -58.5 -139.5s-85.833 -57.5 -140.5 -57.5z" />
    <glyph glyph-name="quotedbl" unicode="&#x22;" horiz-adv-x="966" 
d="M54 884l59 571h351l-149 -571h-261zM521 884l59 571h353l-150 -571h-262z" />
    <glyph glyph-name="numbersign" unicode="#" horiz-adv-x="1320" 
d="M182 -107l56 353h-193v265h234l38 242h-216v264h257l50 326h242l-51 -326h232l51 326h241l-50 -326h199l-2 -264h-238l-38 -242h221l-2 -265h-260l-55 -353h-242l54 353h-230l-55 -353h-243zM520 511h232l38 242h-231z" />
    <glyph glyph-name="dollar" unicode="$" horiz-adv-x="1145" 
d="M1095 425c0 -112.667 -32.999 -205.998 -98.999 -279.998s-156 -122.333 -270 -145v-193h-285v191c-154 28.667 -288 100 -402 214l221 272c53.333 -50.667 110.166 -88.167 170.499 -112.5s115.5 -36.5 165.5 -36.5c18.667 0 34.5 2.83301 47.5 8.5
s22.5 12.834 28.5 21.501s9 18.667 9 30c0 10 -1.66699 18.667 -5 26s-10.333 15.666 -21 24.999s-27.167 18.666 -49.5 27.999s-51.166 19.333 -86.499 30c-38 11.333 -71.333 21.833 -100 31.5s-59.334 21.834 -92.001 36.501s-60.667 29.667 -84 45
s-46.333 33.666 -69 54.999s-41 44.333 -55 69s-25.167 53.167 -33.5 85.5s-12.5 67.5 -12.5 105.5c0 110.667 32.5 204 97.5 280s155.167 124.333 270.5 145v215h285v-225c64.667 -15.333 127.667 -38.333 189 -69s115.333 -65.667 162 -105l-214 -270
c-58 39.333 -109.833 67 -155.5 83s-89.834 24 -132.501 24c-61.333 0 -92 -17 -92 -51c0 -15.333 9.83301 -30.666 29.5 -45.999s57.834 -31.333 114.501 -48c36 -10.667 67.333 -20.334 94 -29.001s54.667 -18.5 84 -29.5s54.333 -21.833 75 -32.5
s41.834 -22.834 63.501 -36.501s39.667 -28 54 -43s28.166 -32 41.499 -51s23.833 -39.333 31.5 -61s13.667 -45.667 18 -72s6.5 -54.833 6.5 -85.5z" />
    <glyph glyph-name="percent" unicode="%" horiz-adv-x="2057" 
d="M829 -58l-249 108l651 1440l248 -108zM454 651c-56.667 0 -110.502 9.99902 -161.502 29.999s-95.167 47.833 -132.5 83.5s-67 79.334 -89 131.001s-33 107.834 -33 168.501c0 74.667 17.167 143 51.5 205s83.5 111.5 147.5 148.5s136.333 55.5 217 55.5
c76.667 0 146.667 -16.833 210 -50.5s113.833 -81.834 151.5 -144.501s56.5 -134 56.5 -214c0 -75.333 -17.167 -144.333 -51.5 -207s-83.666 -112.667 -147.999 -150s-137.166 -56 -218.499 -56zM456.998 884.999c30 0 57 8 81 24s42.5 37.333 55.5 64s19.5 56 19.5 88
c0 51.333 -15 93.333 -45 126s-67 49 -111 49c-46 0 -83.5 -16.833 -112.5 -50.5s-43.5 -75.167 -43.5 -124.5c0 -51.333 15 -93.5 45 -126.5s67 -49.5 111 -49.5zM1601 -21.001c-76 0 -145.499 17 -208.499 51s-113.333 82.667 -151 146s-56.5 135.333 -56.5 216
c0 56 10 109 30 159s47.833 93.5 83.5 130.5s79.667 66.333 132 88s109.166 32.5 170.499 32.5c76 0 145.667 -16.833 209 -50.5s113.833 -82 151.5 -145s56.5 -134.5 56.5 -214.5c0 -75.333 -17.167 -144.333 -51.5 -207s-83.5 -112.667 -147.5 -150s-136.667 -56 -218 -56
zM1603 212.999c30.667 0 58.001 8 82.001 24s42.333 37.333 55 64s19 56.334 19 89.001c0 34 -7 64.333 -21 91s-32.833 47.167 -56.5 61.5s-49.834 21.5 -78.501 21.5c-46 0 -83.5 -16.833 -112.5 -50.5s-43.5 -74.834 -43.5 -123.501c0 -52 15 -94.5 45 -127.5
s67 -49.5 111 -49.5z" />
    <glyph glyph-name="ampersand" unicode="&#x26;" horiz-adv-x="1332" 
d="M918 0l-53.0029 72.002h-3c-88 -62 -202 -93 -342 -93c-90.667 0 -173 19 -247 57s-133 92.333 -177 163s-66 151 -66 241c0 176 84.667 317.667 254 425l-145 198c8.66699 125.333 55.334 225.5 140.001 300.5s194.334 112.5 329.001 112.5
c56 0 107.833 -6.33301 155.5 -19s88.334 -29.334 122.001 -50.001s64.667 -46 93 -76s51.5 -59.833 69.5 -89.5s34.667 -62.5 50 -98.5l-289 -104c-16 40.667 -37.5 73.5 -64.5 98.5s-59.833 37.5 -98.5 37.5c-20.667 0 -38.834 -3.66699 -54.501 -11
s-27.5 -16.833 -35.5 -28.5s-13.833 -22.834 -17.5 -33.501s-5.5 -20.667 -5.5 -30l355 -491h3c14.667 44.667 22 90 22 136l327 8c0 -76.667 -10.167 -154 -30.5 -232s-52.166 -150.333 -95.499 -217v-7l195 -269h-391zM380.997 462.002
c0 -51.333 16.667 -91.833 50 -121.5s76 -44.5 128 -44.5c43.333 0 84 8.66699 122 26v1l-214 293c-57.333 -36.667 -86 -88 -86 -154z" />
    <glyph glyph-name="quotesingle" unicode="'" horiz-adv-x="498" 
d="M54 884l59 571h351l-149 -571h-261z" />
    <glyph glyph-name="parenleft" unicode="(" horiz-adv-x="646" 
d="M342 -338c-86 123.333 -151.333 265.5 -196 426.5s-67 332.167 -67 513.5s22.333 352.833 67 514.5s110 303.834 196 426.501l257 -114c-66 -120.667 -116.167 -251.834 -150.5 -393.501s-51.5 -286.167 -51.5 -433.5s17.167 -291.333 51.5 -432s84.5 -272 150.5 -394z
" />
    <glyph glyph-name="parenright" unicode=")" horiz-adv-x="646" 
d="M330 -338l-257 114c66 122 116.167 253.333 150.5 394s51.5 284.667 51.5 432s-17.167 291.833 -51.5 433.5s-84.5 272.834 -150.5 393.501l257 114c86 -122.667 151.333 -264.834 196 -426.501s67 -333.167 67 -514.5s-22.333 -352.5 -67 -513.5
s-110 -303.167 -196 -426.5z" />
    <glyph glyph-name="asterisk" unicode="*" horiz-adv-x="783" 
d="M288 768l10 182l-150 -96l-105 176l160 80l-160 83l105 179l150 -99l-10 182h205l-11 -182l153 95l105 -175l-162 -81l161 -82l-104 -179l-147 99l5 -182h-205z" />
    <glyph glyph-name="plus" unicode="+" horiz-adv-x="1167" 
d="M432 79v340h-339v298h339v342h302v-342h341v-298h-341v-340h-302z" />
    <glyph glyph-name="comma" unicode="," horiz-adv-x="509" 
d="M28 -276l59 570h351l-149 -570h-261z" />
    <glyph glyph-name="hyphen" unicode="-" horiz-adv-x="764" 
d="M66 471v325h632v-325h-632z" />
    <glyph glyph-name="period" unicode="." horiz-adv-x="547" 
d="M274 -21c-55.333 0 -102.5 19.167 -141.5 57.5s-58.5 84.833 -58.5 139.5c0 53.333 19.667 99.166 59 137.499s86.333 57.5 141 57.5s101.5 -19.167 140.5 -57.5s58.5 -84.166 58.5 -137.499c0 -54.667 -19.5 -101.167 -58.5 -139.5s-85.833 -57.5 -140.5 -57.5z" />
    <glyph glyph-name="slash" unicode="/" horiz-adv-x="913" 
d="M197 -227l-248 113l778 1750l245 -113z" />
    <glyph glyph-name="zero" unicode="0" horiz-adv-x="1265" 
d="M632 -21c-173.333 0 -311.335 64.834 -414.002 194.501s-154 306.5 -154 530.5c0 109.333 13.5 209 40.5 299s64.833 166.167 113.5 228.5s108.334 110.5 179.001 144.5s149 51 235 51c114.667 0 214.834 -29 300.501 -87s152 -141.667 199 -251
s70.5 -237.666 70.5 -384.999c0 -146.667 -23.333 -274.834 -70 -384.501s-113 -193.834 -199 -252.501s-186.333 -88 -301 -88zM631.998 335.001c54 0 96.833 30.001 128.5 90.001s47.5 153 47.5 279c0 36 -1.5 69.667 -4.5 101s-7.33301 60.833 -13 88.5
s-13.334 52.167 -23.001 73.5s-21 39.833 -34 55.5s-28 27.667 -45 36s-35.833 12.5 -56.5 12.5c-53.333 0 -95.833 -30.167 -127.5 -90.5s-47.5 -152.5 -47.5 -276.5c0 -73.333 5.66699 -136.833 17 -190.5s30.333 -96.834 57 -129.501s60.334 -49 101.001 -49z" />
    <glyph glyph-name="one" unicode="1" horiz-adv-x="881" 
d="M371 0v949l-192 -145l-182 284l457 318h302v-1406h-385z" />
    <glyph glyph-name="two" unicode="2" horiz-adv-x="1064" 
d="M584 342l421.997 -0.000976562v-342h-951l-4 245l400 430c28.667 30 52.5 56.833 71.5 80.5s35.333 47 49 70s23.5 45.333 29.5 67s9 43.834 9 66.501c0 34.667 -10.667 63.167 -32 85.5s-48.666 33.5 -81.999 33.5c-70.667 0 -133.667 -37.333 -189 -112l-270 196
c22 37.333 48 71.333 78 102s65 58.5 105 83.5s86.333 44.5 139 58.5s109.334 21 170.001 21c62 0 120.833 -9.83301 176.5 -29.5s104.834 -47.167 147.501 -82.5s76.667 -80 102 -134s38 -113.333 38 -178c0 -58.667 -5.66699 -109.667 -17 -153s-33.833 -91 -67.5 -143
s-82.167 -110.667 -145.5 -176l-179 -185v-4z" />
    <glyph glyph-name="three" unicode="3" horiz-adv-x="1069" 
d="M801 725c68.667 -32.667 121.999 -77.333 159.999 -134s57 -124.334 57 -203.001c0 -82.667 -21.333 -155.167 -64 -217.5s-101.334 -109.833 -176.001 -142.5s-159.334 -49 -254.001 -49c-127.333 0 -238.166 31.333 -332.499 94s-159.166 143.334 -194.499 242.001
l332 128c13.333 -45.333 33.333 -79.166 60 -101.499s62.334 -33.5 107.001 -33.5c35.333 0 65.333 11.167 90 33.5s37 54.833 37 97.5c0 39.333 -13.5 71.166 -40.5 95.499s-65.5 36.5 -115.5 36.5h-85v289h109c37.333 0 67 10.5 89 31.5s33 48.833 33 83.5
c0 36.667 -11.167 65.667 -33.5 87s-51.5 32 -87.5 32c-33.333 0 -60.5 -8.5 -81.5 -25.5s-38.5 -43.5 -52.5 -79.5l-304 162c28 80.667 83.5 146.834 166.5 198.501s176.833 77.5 281.5 77.5c65.333 0 126.5 -8.66699 183.5 -26s106.833 -41.833 149.5 -73.5
s76.167 -71.834 100.5 -120.501s36.5 -103 36.5 -163c0 -66 -15 -126.167 -45 -180.5s-72 -99.5 -126 -135.5v-3z" />
    <glyph glyph-name="four" unicode="4" horiz-adv-x="1140" 
d="M560 0v213h-546v217l622 976h289v-886h175v-307h-175v-213h-365zM386 491h215v343z" />
    <glyph glyph-name="five" unicode="5" horiz-adv-x="1070" 
d="M594 917c56.667 0 110.666 -11 161.999 -33s96 -52.167 134 -90.5s68.167 -86 90.5 -143s33.5 -118.5 33.5 -184.5c0 -94.667 -22.333 -179.167 -67 -253.5s-106.167 -131.833 -184.5 -172.5s-166.166 -61 -263.499 -61c-209.333 0 -377.666 69.667 -504.999 209l270 220
c60 -60 126 -90 198 -90c47.333 0 87.5 15 120.5 45s49.5 66.333 49.5 109c0 18.667 -2.5 36 -7.5 52s-12 29.667 -21 41s-19 21.333 -30 30s-22.667 15.667 -35 21s-24.333 9.33301 -36 12s-22.834 4 -33.501 4c-18 0 -35 -1.83301 -51 -5.5s-33.833 -10.5 -53.5 -20.5
s-41.167 -23.667 -64.5 -41l-197 78l46 763h787v-340h-486l-11 -175c62 17.333 113.667 26 155 26z" />
    <glyph glyph-name="six" unicode="6" horiz-adv-x="1153" 
d="M683 911c35.333 0 69.999 -4.32812 103.999 -12.9951s66.333 -21.334 97 -38.001s59 -38.167 85 -64.5s48.667 -55.833 68 -88.5s34.333 -70.334 45 -113.001s16 -88.334 16 -137.001c0 -96 -22.333 -180.333 -67 -253s-106.5 -128.334 -185.5 -167.001
s-169.167 -58 -270.5 -58c-100.667 0 -189.667 24 -267 72s-137.333 116.167 -180 204.5s-64 190.166 -64 305.499c0 82 10.333 162 31 240s52.334 152.333 95.001 223s94.167 134.667 154.5 192s132.333 107 216 149s174.5 72.333 272.5 91l98 -289
c-80 -22.667 -149.333 -48.5 -208 -77.5s-107.5 -61.333 -146.5 -97s-70.5 -76.167 -94.5 -121.5l6 -2c62 28 127 42 195 42zM577.999 306.005c50 0 89.666 15.501 118.999 46.501s44 70.5 44 118.5c0 47.333 -14.667 85.666 -44 114.999s-69 44 -119 44
c-17.333 0 -35.333 -3.33301 -54 -10s-37.667 -16.5 -57 -29.5s-36.666 -28.5 -51.999 -46.5v-17c0 -67.333 15.833 -121 47.5 -161s70.167 -60 115.5 -60z" />
    <glyph glyph-name="seven" unicode="7" horiz-adv-x="949" 
d="M25 1406h881v-242l-423 -1200l-374 66l389 1039h-473v337z" />
    <glyph glyph-name="eight" unicode="8" horiz-adv-x="1135" 
d="M841 761c75.333 -27.333 136.001 -73.0029 182.001 -137.003s69 -142 69 -234c0 -84 -23.5 -157.5 -70.5 -220.5s-110.167 -110.5 -189.5 -142.5s-168.333 -48 -267 -48c-72.667 0 -140.834 9.5 -204.501 28.5s-119 45.833 -166 80.5s-84 78 -111 130
s-40.5 109.333 -40.5 172c0 92 23 170 69 234s106.333 110 181 138v2c-48 20.667 -88.5 57.334 -121.5 110.001s-49.5 111.334 -49.5 176.001c0 61.333 11.5 116.333 34.5 165s54.833 88.167 95.5 118.5s87.5 53.5 140.5 69.5s110.5 24 172.5 24
c62.667 0 120.667 -8 174 -24s100.333 -39.333 141 -70s72.5 -70.167 95.5 -118.5s34.5 -103.166 34.5 -164.499c0 -64 -16.167 -122.333 -48.5 -175s-72.5 -89.667 -120.5 -111v-3zM565.001 1138c-19.333 0 -37.167 -5.33203 -53.5 -15.999s-29.333 -25.334 -39 -44.001
s-14.5 -39.334 -14.5 -62.001c0 -33.333 10.167 -61 30.5 -83s45.833 -33 76.5 -33c12 0 23.667 1.83301 35 5.5s21.333 9 30 16s16.334 15.333 23.001 25s11.667 20.334 15 32.001s5 24.167 5 37.5c0 34.667 -10.333 63.667 -31 87s-46.334 35 -77.001 35zM565 284.998
c41.333 0 75.5 15.334 102.5 46.001s40.5 68 40.5 112c0 28 -6.16699 53.5 -18.5 76.5s-29.333 41 -51 54s-46.167 19.5 -73.5 19.5c-40.667 0 -74.667 -14.333 -102 -43s-41 -64.334 -41 -107.001c0 -44.667 13.833 -82.167 41.5 -112.5s61.5 -45.5 101.5 -45.5z" />
    <glyph glyph-name="nine" unicode="9" horiz-adv-x="1157" 
d="M563 1427c106.667 0 199.999 -24.666 279.999 -73.999s141 -118.166 183 -206.499s63 -190.5 63 -306.5c0 -82 -10.5 -162 -31.5 -240s-53 -152.333 -96 -223s-94.833 -134.834 -155.5 -192.501s-133 -107.334 -217 -149.001s-175.333 -71.834 -274 -90.501l-99 289
c81.333 22.667 151.5 48.834 210.5 78.501s108.167 62.667 147.5 99s71 77.833 95 124.5c-66.667 -30.667 -135 -46 -205 -46c-42.667 0 -84 6.16699 -124 18.5s-77.5 31 -112.5 56s-65.667 55.167 -92 90.5s-47.166 77.833 -62.499 127.5s-23 103.5 -23 161.5
c0 72 13.333 138.333 40 199s63 111.667 109 153s100.333 73.5 163 96.5s129.667 34.5 201 34.5zM406.999 930.001c0 -47.333 14.5 -85.667 43.5 -115s68.5 -44 118.5 -44c17.333 0 35.666 3.33301 54.999 10s38.5 16.5 57.5 29.5s36.167 28.5 51.5 46.5v17
c0 67.333 -16.167 121.333 -48.5 162s-71.166 61 -116.499 61c-33.333 0 -62.333 -7.5 -87 -22.5s-43.167 -35 -55.5 -60s-18.5 -53.167 -18.5 -84.5z" />
    <glyph glyph-name="colon" unicode=":" horiz-adv-x="554" 
d="M281 630c-55.333 0 -102.5 19.167 -141.5 57.5s-58.5 84.833 -58.5 139.5c0 53.333 19.667 99.166 59 137.499s86.333 57.5 141 57.5s101.5 -19.167 140.5 -57.5s58.5 -84.166 58.5 -137.499c0 -54.667 -19.5 -101.167 -58.5 -139.5s-85.833 -57.5 -140.5 -57.5zM281 -21
c-55.333 0 -102.5 19.167 -141.5 57.5s-58.5 84.833 -58.5 139.5c0 53.333 19.667 99.166 59 137.499s86.333 57.5 141 57.5s101.5 -19.167 140.5 -57.5s58.5 -84.166 58.5 -137.499c0 -54.667 -19.5 -101.167 -58.5 -139.5s-85.833 -57.5 -140.5 -57.5z" />
    <glyph glyph-name="semicolon" unicode=";" horiz-adv-x="525" 
d="M255 631c-55.333 0 -102.5 19.167 -141.5 57.5s-58.5 84.833 -58.5 139.5c0 53.333 19.667 99.166 59 137.499s86.333 57.5 141 57.5s101.5 -19.167 140.5 -57.5s58.5 -84.166 58.5 -137.499c0 -54.667 -19.5 -101.167 -58.5 -139.5s-85.833 -57.5 -140.5 -57.5zM28 -276
l59 570h351l-149 -570h-261z" />
    <glyph glyph-name="less" unicode="&#x3c;" horiz-adv-x="1162" 
d="M1082 26l-975 403v246l975 413v-329l-537 -203l537 -209v-321z" />
    <glyph glyph-name="equal" unicode="=" horiz-adv-x="1184" 
d="M101 657v298h982v-298h-982zM101 181v298h982v-298h-982z" />
    <glyph glyph-name="greater" unicode="&#x3e;" horiz-adv-x="1162" 
d="M106 26v321l537 209l-537 203v329l975 -413v-246z" />
    <glyph glyph-name="question" unicode="?" horiz-adv-x="961" 
d="M242 512l-2.00391 98c-0.666992 18 0.5 35.333 3.5 52s8.33301 33.334 16 50.001s14.334 30.667 20.001 42s15.5 25.333 29.5 42s24 28.5 30 35.5s17.833 19.5 35.5 37.5s28.5 29.333 32.5 34l8 8c18.667 19.333 33 34.5 43 45.5s21.833 25.5 35.5 43.5
s23.5 34.833 29.5 50.5s9 31.5 9 47.5c0 32 -9 57 -27 75s-45 27 -81 27c-63.333 0 -122.666 -27.667 -177.999 -83l-246 224c47.333 55.333 112.666 100.5 195.999 135.5s168.666 52.5 255.999 52.5c64.667 0 124.334 -8.33301 179.001 -25s103.167 -41.167 145.5 -73.5
s75.5 -75.333 99.5 -129s36 -114.834 36 -183.501c0 -30 -3.66699 -59.333 -11 -88s-16.333 -54 -27 -76s-24.667 -44.5 -42 -67.5s-33.666 -42.5 -48.999 -58.5s-33.666 -33.667 -54.999 -53c-3.33301 -2.66699 -8 -6.66699 -14 -12
c-23.333 -21.333 -40.666 -37.333 -51.999 -48s-24.5 -24 -39.5 -40s-26 -30.667 -33 -44s-11.167 -27 -12.5 -41l-10 -78h-325zM411.996 -21c-55.333 0 -102.5 19.166 -141.5 57.499s-58.5 84.833 -58.5 139.5c0 34.667 9 67 27 97s42.333 53.833 73 71.5s64 26.5 100 26.5
c54.667 0 101.5 -19.167 140.5 -57.5s58.5 -84.166 58.5 -137.499c0 -54.667 -19.5 -101.167 -58.5 -139.5s-85.833 -57.5 -140.5 -57.5z" />
    <glyph glyph-name="at" unicode="@" horiz-adv-x="1805" 
d="M1371 957l-56.9941 -570c-2 -14 -3 -27.333 -3 -40c0 -25.333 4.33301 -44 13 -56s23.667 -18 45 -18c25.333 0 49 8 71 24s40.167 36.333 54.5 61s26.5 51.834 36.5 81.501s17.167 57.667 21.5 84s6.5 49.833 6.5 70.5c0 64 -7.66699 124.667 -23 182
s-38.833 110.333 -70.5 159s-70.334 90.667 -116.001 126s-100.5 63 -164.5 83s-134.333 30 -211 30c-72.667 0 -140.834 -7.83301 -204.501 -23.5s-119.167 -36.667 -166.5 -63s-90.333 -57.666 -129 -93.999s-70.834 -74.833 -96.501 -115.5
s-47.167 -83.334 -64.5 -128.001s-29.833 -88.167 -37.5 -130.5s-11.5 -83.833 -11.5 -124.5c0 -88.667 15.167 -171.834 45.5 -249.501s71.333 -143.667 123 -198s113.334 -97.166 185.001 -128.499s147.5 -47 227.5 -47c137.333 0 272.666 40.667 405.999 122l99 -145
c-75.333 -52.667 -156.166 -93.167 -242.499 -121.5s-173.833 -42.5 -262.5 -42.5c-109.333 0 -212 20.333 -308 61s-178.333 96.667 -247 168s-122.834 157.5 -162.501 258.5s-59.5 209.167 -59.5 324.5c0 51.333 5 103.833 15 157.5s26.167 108.834 48.5 165.501
s50 110.834 83 162.501s74.167 100.667 123.5 147s104.166 86.5 164.499 120.5s130.833 60.833 211.5 80.5s167.334 29.5 260.001 29.5c96 0 185.333 -13 268 -39s154.5 -62.333 215.5 -109s113.333 -101.667 157 -165s76.5 -133.333 98.5 -210s33 -157.334 33 -242.001
c0 -29.333 -1.83301 -58.833 -5.5 -88.5s-10.5 -61.834 -20.5 -96.501s-22.833 -67.334 -38.5 -98.001s-36.334 -60.5 -62.001 -89.5s-54.834 -54 -87.501 -75s-72.5 -37.833 -119.5 -50.5s-98.167 -19 -153.5 -19c-79.333 0 -141.333 12 -186 36
c-37.333 19.333 -63.666 48.666 -78.999 87.999h-3c-27.333 -33.333 -59.666 -58.833 -96.999 -76.5s-77.333 -26.5 -120 -26.5c-100.667 0 -180.334 35.333 -239.001 106s-88 164.334 -88 281.001c0 28.667 2.83301 59.667 8.5 93s14.167 68.833 25.5 106.5
s26.833 73.5 46.5 107.5s42.5 64.833 68.5 92.5s58 49.667 96 66s79 24.5 123 24.5c43.333 0 81.166 -7.83301 113.499 -23.5s62.166 -40.167 89.499 -73.5h2l11 78h340zM776.006 511c0 -38 9.99902 -68.333 29.999 -91s44 -34 72 -34c34 0 66.167 16 96.5 48
s45.5 74.667 45.5 128c0 38.667 -9.66699 69.5 -29 92.5s-42.666 34.5 -69.999 34.5c-34 0 -66.667 -16.833 -98 -50.5s-47 -76.167 -47 -127.5z" />
    <glyph glyph-name="A" unicode="A" horiz-adv-x="1420" 
d="M1017 0l-73 235h-467l-73 -235h-408l528 1455h372l528 -1455h-407zM578 562h264l-130 418h-4z" />
    <glyph glyph-name="B" unicode="B" horiz-adv-x="1283" 
d="M938 777c55.333 -14.667 102.668 -34 142.001 -58s70.166 -52.333 92.499 -85s38.666 -67.334 48.999 -104.001s15.5 -77 15.5 -121c0 -59.333 -9.66699 -113.666 -29 -162.999s-47.666 -92.333 -84.999 -129s-85.5 -65.334 -144.5 -86.001s-126.167 -31 -201.5 -31h-669
v1455h571c82 0 153.833 -8.33301 215.5 -25s112 -40.5 151 -71.5s68 -68.167 87 -111.5s28.5 -92.666 28.5 -147.999c0 -32 -3.5 -62.167 -10.5 -90.5s-18.5 -57 -34.5 -86s-39.167 -55.667 -69.5 -80s-66.5 -44.833 -108.5 -61.5v-4zM485.002 1116v-234.999h127
c48 0 86.333 10.333 115 31s43 49 43 85c0 23.333 -5.66699 43.666 -17 60.999s-29.333 31.333 -54 42s-54.667 16 -90 16h-124zM657.002 334.001c54 0 97 11.332 129 33.999s48 55.334 48 98.001c0 39.333 -14.833 70.833 -44.5 94.5s-74.5 35.5 -134.5 35.5h-170v-262h172
z" />
    <glyph glyph-name="C" unicode="C" horiz-adv-x="1446" 
d="M821 -21c-68 0 -133.662 7.33008 -196.995 21.9971s-123.166 35.834 -179.499 63.501s-108 62.834 -155 105.501s-87.333 91 -121 145s-59.834 115.833 -78.501 185.5s-28 144.167 -28 223.5c0 69.333 7.66699 136 23 200s37.333 123.833 66 179.5
s65 106.334 109 152.001s93.5 84.834 148.5 117.501s117.667 58 188 76s145.166 27 224.499 27c106 0 211.833 -23.333 317.5 -70s197.5 -117 275.5 -211l-285 -244c-16.667 18.667 -35.167 36.167 -55.5 52.5s-43.5 32.166 -69.5 47.499s-54.833 27.5 -86.5 36.5
s-63.834 13.5 -96.501 13.5c-36 0 -71 -5 -105 -15s-65.833 -25.5 -95.5 -46.5s-55.5 -46.333 -77.5 -76s-39.333 -65 -52 -106s-19 -85.5 -19 -133.5c0 -49.333 8 -96.333 24 -141s38.667 -84 68 -118s66.166 -61 110.499 -81s93.166 -30 146.499 -30
c56.667 0 113.167 13.667 169.5 41s102.5 63 138.5 107l285 -245c-67.333 -82.667 -152.333 -149.667 -255 -201s-215.334 -77 -338.001 -77z" />
    <glyph glyph-name="D" unicode="D" horiz-adv-x="1448" 
d="M108 0v1455h524c113.333 0 217.166 -18 311.499 -54s174 -85.833 239 -149.5s115.333 -140.667 151 -231s53.5 -188.833 53.5 -295.5s-17 -204.5 -51 -293.5s-82.667 -165.5 -146 -229.5s-142.166 -113.667 -236.499 -149s-199.5 -53 -315.5 -53h-530zM486 346
l127 0.000976562c72 0 136 17 192 51s99 79.667 129 137s45 121 45 191c0 53.333 -8.83301 103.666 -26.5 150.999s-41.5 88 -71.5 122s-66 60.833 -108 80.5s-86.333 29.5 -133 29.5h-154v-762z" />
    <glyph glyph-name="E" unicode="E" horiz-adv-x="1176" 
d="M106 0v1455h967v-347h-590v-219h462v-338h-462v-205h633v-346h-1010z" />
    <glyph glyph-name="F" unicode="F" horiz-adv-x="1155" 
d="M108 0v1455h1000v-347h-622v-274h509v-345h-509v-489h-378z" />
    <glyph glyph-name="G" unicode="G" horiz-adv-x="1486" 
d="M821 -18c-84.667 0 -164.834 10.3389 -240.501 31.0059s-145.167 51.667 -208.5 93s-118 91.166 -164 149.499s-81.833 127.5 -107.5 207.5s-38.5 167 -38.5 261c0 84 10.5 163.833 31.5 239.5s52.333 144.667 94 207s92 116.166 151 161.499s128.333 80.666 208 105.999
s165.834 38 258.501 38c72 0 144.333 -10 217 -30s142.667 -50.5 210 -91.5s125 -90.167 173 -147.5l-276 -233c-94.667 90.667 -203 136 -325 136c-35.333 0 -69.5 -5.33301 -102.5 -16s-63.667 -26.834 -92 -48.501s-53 -47.667 -74 -78s-37.5 -66.333 -49.5 -108
s-18 -86.834 -18 -135.501c0 -52 8 -101.167 24 -147.5s38.5 -87.333 67.5 -123s66.167 -63.834 111.5 -84.501s95.333 -31 150 -31c76 0 148.667 16 218 48v134h-248v314h613v-677c-67.333 -50.667 -154 -92.5 -260 -125.5s-213.667 -49.5 -323 -49.5z" />
    <glyph glyph-name="H" unicode="H" horiz-adv-x="1444" 
d="M108 0v1455h394v-580h439v580h394v-1455h-394v530h-439v-530h-394z" />
    <glyph glyph-name="I" unicode="I" horiz-adv-x="629" 
d="M117 0v1455h395v-1455h-395z" />
    <glyph glyph-name="J" unicode="J" horiz-adv-x="1013" 
d="M434 -21c-82 0 -161 17.333 -237 52s-139.333 85 -190 151l228 259c48.667 -66 103 -99 163 -99c35.333 0 65.333 14.167 90 42.5s37 72.5 37 132.5v938h388v-910c0 -377.333 -159.667 -566 -479 -566z" />
    <glyph glyph-name="K" unicode="K" horiz-adv-x="1354" 
d="M579 523h-1l-83 -101v-422h-387v1455h387v-490h4l354 490h492l-512 -622l533 -833h-478z" />
    <glyph glyph-name="L" unicode="L" horiz-adv-x="1112" 
d="M108 0v1455h392v-1109h578v-346h-970z" />
    <glyph glyph-name="M" unicode="M" horiz-adv-x="1734" 
d="M1231 1455h395v-1455h-385v717h-6l-244 -454h-248l-245 456h-5v-719h-385v1455h394l362 -719h8z" />
    <glyph glyph-name="N" unicode="N" horiz-adv-x="1489" 
d="M991 1455h390v-1455h-404l-477 796h-5v-796h-387v1455h392l486 -820h5v820z" />
    <glyph glyph-name="O" unicode="O" horiz-adv-x="1633" 
d="M818 -21c-110.667 0 -213 18.333 -307 55s-174 87.667 -240 153s-117.5 144.333 -154.5 237s-55.5 193.667 -55.5 303s18.5 210.5 55.5 303.5s88.5 172.167 154.5 237.5s146 116.333 240 153s196.333 55 307 55c109.333 0 210.666 -18.167 303.999 -54.5
s173 -87 239 -152s117.667 -144.167 155 -237.5s56 -195 56 -305s-18.667 -211.5 -56 -304.5s-89 -172 -155 -237s-145.667 -115.667 -239 -152s-194.666 -54.5 -303.999 -54.5zM817 342c67.333 0 127.83 17.1689 181.497 51.502s95 80.666 124 138.999
s43.5 123.166 43.5 194.499s-14.5 136.166 -43.5 194.499s-70.333 104.666 -124 138.999s-114.167 51.5 -181.5 51.5s-127.666 -17 -180.999 -51s-94.833 -80.333 -124.5 -139s-44.5 -123.667 -44.5 -195s14.833 -136.166 44.5 -194.499s71.334 -104.666 125.001 -138.999
s113.834 -51.5 180.501 -51.5z" />
    <glyph glyph-name="P" unicode="P" horiz-adv-x="1237" 
d="M108 0l0.00195312 1455h566c71.333 0 136.166 -8.33301 194.499 -25s108.166 -40.334 149.499 -71.001s76 -67.5 104 -110.5s48.5 -90.333 61.5 -142s19.5 -107.834 19.5 -168.501c0 -107.333 -23 -198.5 -69 -273.5s-110 -130.5 -192 -166.5s-179.333 -54 -292 -54h-164
v-444h-378zM486.002 781.002h100.999c64 0 115.167 14.333 153.5 43s57.5 69.667 57.5 123c0 47.333 -18.167 86.833 -54.5 118.5s-88.166 47.5 -155.499 47.5h-102v-332z" />
    <glyph glyph-name="Q" unicode="Q" horiz-adv-x="1647" 
d="M1611 193l-185.999 -243.999l-168 153c-124.667 -82 -270.667 -123 -438 -123c-110.667 0 -213 18.333 -307 55s-174 87.667 -240 153s-117.5 144.333 -154.5 237s-55.5 193.667 -55.5 303s18.5 210.5 55.5 303.5s88.5 172.167 154.5 237.5s146 116.333 240 153
s196.333 55 307 55c109.333 0 210.666 -18.167 303.999 -54.5s173 -87 239 -152s117.667 -144.167 155 -237.5s56 -195 56 -305c0 -152.667 -35.333 -288.334 -106 -407.001zM819.001 342.001c50 0 96.998 9.99805 140.998 29.998l-97 88l184 229l103 -90
c12 40 18 82.667 18 128c0 53.333 -8.5 103.5 -25.5 150.5s-40.667 87.833 -71 122.5s-67.333 62 -111 82s-90.834 30 -141.501 30c-67.333 0 -127.666 -17 -180.999 -51s-94.833 -80.333 -124.5 -139s-44.5 -123.667 -44.5 -195s14.833 -136.166 44.5 -194.499
s71.334 -104.666 125.001 -138.999s113.834 -51.5 180.501 -51.5z" />
    <glyph glyph-name="R" unicode="R" horiz-adv-x="1318" 
d="M1303 0l-452.997 0.000976562l-274 444h-90v-444h-378v1455h583c89.333 0 168.166 -12.833 236.499 -38.5s123.666 -61.834 165.999 -108.501s74.166 -101 95.499 -163s32 -131 32 -207c0 -52.667 -5.5 -101.5 -16.5 -146.5s-27.167 -85.5 -48.5 -121.5
s-47 -67.667 -77 -95s-64.667 -50.333 -104 -69l-1 -3zM486.003 1113v-332h118c64 0 115.5 14.333 154.5 43s58.5 69.667 58.5 123c0 47.333 -18.5 86.833 -55.5 118.5s-89.5 47.5 -157.5 47.5h-118z" />
    <glyph glyph-name="S" unicode="S" horiz-adv-x="1144" 
d="M555 -21c-97.333 0 -192.334 19.5 -285.001 58.5s-177 97.167 -253 174.5l220 271c54 -54.667 110.5 -95.167 169.5 -121.5s113.167 -39.5 162.5 -39.5c42 0 73.333 9.16699 94 27.5s31 40.5 31 66.5c0 30 -11.833 54.5 -35.5 73.5s-73.167 41.167 -148.5 66.5
c-35.333 12 -66.833 23.5 -94.5 34.5s-57.334 24.667 -89.001 41s-59.5 33.166 -83.5 50.499s-47.5 38.333 -70.5 63s-41.667 50.834 -56 78.501s-26 59.5 -35 95.5s-13.5 74.667 -13.5 116c0 81.333 20.833 155.166 62.5 221.499s99.5 118.833 173.5 157.5s157 59 249 61
c96.667 2 188.834 -14.167 276.501 -48.5s167.167 -82.833 238.5 -145.5l-216 -278c-61.333 47.333 -113.5 81 -156.5 101s-83.167 30 -120.5 30c-33.333 0 -58.666 -7.66699 -75.999 -23s-26 -36.333 -26 -63s12.333 -50.834 37 -72.501s72 -45.834 142 -72.501
c122.667 -47.333 204 -81.666 244 -102.999c88 -47.333 147 -106 177 -176c20 -46 30 -100.333 30 -163c0 -50.667 -5.83301 -97.667 -17.5 -141s-27.667 -81.166 -48 -113.499s-44.833 -61.5 -73.5 -87.5s-59 -47.667 -91 -65s-66.333 -31.666 -103 -42.999
s-72.667 -19.5 -108 -24.5s-71 -7.5 -107 -7.5z" />
    <glyph glyph-name="T" unicode="T" horiz-adv-x="1197" 
d="M406 0v1108h-370v347h1125v-347h-368v-1108h-387z" />
    <glyph glyph-name="U" unicode="U" horiz-adv-x="1416" 
d="M705 -21c-92 0 -175.334 13.8301 -250.001 41.4971s-138.834 67.834 -192.501 120.501s-95.167 119 -124.5 199s-44 170.333 -44 271v844h394v-822c0 -53.333 7.5 -101.5 22.5 -144.5s39.333 -78.333 73 -106s74.167 -41.5 121.5 -41.5
c42.667 0 80.834 11.167 114.501 33.5s60.334 55.833 80.001 100.5s29.5 97.334 29.5 158.001v822h392v-844c0 -127.333 -23.333 -238.166 -70 -332.499s-116.667 -167.833 -210 -220.5s-205.333 -79 -336 -79z" />
    <glyph glyph-name="V" unicode="V" horiz-adv-x="1405" 
d="M985 1455h419l-529 -1455h-342l-532 1455h423l276 -900h5z" />
    <glyph glyph-name="W" unicode="W" horiz-adv-x="2089" 
d="M1658 1455h416l-452 -1455h-354l-216 885h-4l-227 -885h-354l-452 1455h415l212 -811h5l194 811h410l191 -811h5z" />
    <glyph glyph-name="X" unicode="X" horiz-adv-x="1458" 
d="M990 0l-258 435h-5l-260 -435h-453l456 733l-436 722h445l248 -422h5l248 422h444l-436 -722l456 -733h-454z" />
    <glyph glyph-name="Y" unicode="Y" horiz-adv-x="1312" 
d="M874 1455h451l-472 -827v-628h-397v628l-469 827h447l222 -445h2z" />
    <glyph glyph-name="Z" unicode="Z" horiz-adv-x="1243" 
d="M1176 1161l-610 -811v-4h609v-346h-1107v303l589 801v4h-572v347h1091v-294z" />
    <glyph glyph-name="bracketleft" unicode="[" horiz-adv-x="744" 
d="M118 -309v1818h561v-260h-259v-1297h259v-261h-561z" />
    <glyph glyph-name="backslash" unicode="\" horiz-adv-x="913" 
d="M742 -227l-775 1750l245 113l778 -1750z" />
    <glyph glyph-name="bracketright" unicode="]" horiz-adv-x="744" 
d="M652 -309h-561v261h259v1297h-259v260h561v-1818z" />
    <glyph glyph-name="asciicircum" unicode="^" horiz-adv-x="920" 
d="M70 1023l273 432h232l275 -432h-268l-122 225l-133 -225h-257z" />
    <glyph glyph-name="underscore" unicode="_" horiz-adv-x="1077" 
d="M-18 -294v239h1113v-239h-1113z" />
    <glyph glyph-name="grave" unicode="`" horiz-adv-x="998" 
d="M420 1085l-252 313l357 -2l222 -311h-327z" />
    <glyph glyph-name="a" unicode="a" horiz-adv-x="1204" 
d="M751 1003l366.999 0.00195312v-1003h-347v94h-3c-60 -76.667 -146 -115 -258 -115c-68 0 -130.833 12.833 -188.5 38.5s-106.834 61.167 -147.501 106.5s-72.5 100.5 -95.5 165.5s-34.5 135.833 -34.5 212.5c0 75.333 11.333 145.666 34 210.999
s53.834 120.666 93.501 165.999s86.834 80.833 141.501 106.5s113 38.5 175 38.5c104 0 190.667 -40 260 -120h3v99zM590.999 299.002c50 0 91.833 18.665 125.5 55.998s50.5 86 50.5 146c0 58.667 -16.833 106.834 -50.5 144.501s-75.5 56.5 -125.5 56.5
c-52 0 -94.667 -18.667 -128 -56s-50 -85.666 -50 -144.999c0 -60.667 16.667 -109.5 50 -146.5s76 -55.5 128 -55.5z" />
    <glyph glyph-name="b" unicode="b" horiz-adv-x="1220" 
d="M729 1024c50 0 97.501 -8.16602 142.501 -24.499s85.667 -40 122 -71s68 -67.5 95 -109.5s47.833 -90.167 62.5 -144.5s22 -111.833 22 -172.5c0 -102 -19.667 -192.833 -59 -272.5s-94.333 -141.334 -165 -185.001s-151.334 -65.5 -242.001 -65.5
c-115.333 0 -204 38.333 -266 115h-4v-94h-347v1508h367v-605h3c71.333 80.667 161 121 269 121zM626.001 299.001c52 0 94.667 18.502 128 55.502s50 85.833 50 146.5c0 59.333 -16.667 107.666 -50 144.999s-76 56 -128 56c-35.333 0 -67 -8.33301 -95 -25
s-50 -40.334 -66 -71.001s-24 -65.667 -24 -105c0 -60.667 17.333 -109.5 52 -146.5s79 -55.5 133 -55.5z" />
    <glyph glyph-name="c" unicode="c" horiz-adv-x="1059" 
d="M573 -21c-99.333 0 -188.998 21.833 -268.998 65.5s-142.833 105.334 -188.5 185.001s-68.5 170.167 -68.5 271.5c0 102 23.167 192.667 69.5 272s111.333 141 195 185s178.834 66 285.501 66c86 0 168.167 -17.833 246.5 -53.5s142.166 -86.834 191.499 -153.501
l-243 -207c-50.667 60 -112.667 90 -186 90c-57.333 0 -103.5 -18.333 -138.5 -55s-52.5 -83.667 -52.5 -141c0 -58.667 18.167 -106.667 54.5 -144s83.166 -56 140.499 -56c73.333 0 133.666 27.333 180.999 82l249 -217c-46 -56.667 -109.167 -102.5 -189.5 -137.5
s-172.833 -52.5 -277.5 -52.5z" />
    <glyph glyph-name="d" unicode="d" horiz-adv-x="1218" 
d="M761 1508l366.999 0.00195312v-1508h-347v94h-4c-62 -76.667 -150.667 -115 -266 -115c-68 0 -130.833 12.833 -188.5 38.5s-106.834 61.167 -147.501 106.5s-72.5 100.5 -95.5 165.5s-34.5 135.833 -34.5 212.5c0 75.333 11.333 145.666 34 210.999
s53.834 120.666 93.501 165.999s86.834 80.833 141.501 106.5s113 38.5 175 38.5c108 0 197.667 -40.333 269 -121h3v605zM591.999 299.002c54 0 98.333 18.5 133 55.5s52 85.833 52 146.5c0 59.333 -17.333 107.666 -52 144.999s-79 56 -133 56
c-52 0 -94.667 -18.667 -128 -56s-50 -85.666 -50 -144.999c0 -60.667 16.667 -109.5 50 -146.5s76 -55.5 128 -55.5z" />
    <glyph glyph-name="e" unicode="e" horiz-adv-x="1116" 
d="M1072 509c0 -38 -3.33105 -70.3301 -9.99805 -96.9971h-658c8 -46.667 30.833 -82.334 68.5 -107.001s84.167 -37 139.5 -37c83.333 0 160.333 37 231 111l189 -208c-45.333 -56.667 -107.833 -102.834 -187.5 -138.501s-170.167 -53.5 -271.5 -53.5
c-99.333 0 -189 21.833 -269 65.5s-142.833 105.5 -188.5 185.5s-68.5 170.667 -68.5 272c0 100 22.167 189.667 66.5 269s106.166 141.333 185.499 186s168.666 67 267.999 67c71.333 0 138.333 -12.833 201 -38.5s116.167 -60.834 160.5 -105.501
s79.333 -99.167 105 -163.5s38.5 -133.5 38.5 -207.5zM565.002 745.003c-40.667 0 -75.5 -11.835 -104.5 -35.502s-47.5 -56.5 -55.5 -98.5h312c-4.66699 20.667 -11.5 39.334 -20.5 56.001s-19.833 30.834 -32.5 42.501s-27.5 20.5 -44.5 26.5s-35.167 9 -54.5 9z" />
    <glyph glyph-name="f" unicode="f" horiz-adv-x="715" 
d="M125 0l-0.00292969 713h-91v290h91v143c0 126 31 221.333 93 286s145.667 97 251 97c62.667 0 119.834 -9.5 171.501 -28.5s87.5 -36.833 107.5 -53.5l-63 -248c-14.667 8 -32.667 14.5 -54 19.5s-38.666 7.5 -51.999 7.5c-27.333 0 -48.666 -6.16699 -63.999 -18.5
s-23 -34.5 -23 -66.5v-138h164v-290h-164v-713h-367z" />
    <glyph glyph-name="g" unicode="g" horiz-adv-x="1204" 
d="M752 1003l366.002 -0.00195312v-857c0 -70 -5.66699 -133.167 -17 -189.5s-30.333 -108.666 -57 -156.999s-61 -88.833 -103 -121.5s-94.833 -58.167 -158.5 -76.5s-136.834 -27.5 -219.501 -27.5c-86 0 -161 7 -225 21s-127.667 37.667 -191 71l81 288
c36 -22.667 81.5 -41.834 136.5 -57.501s105.833 -23.5 152.5 -23.5c77.333 0 137.333 15.333 180 46s64 69.334 64 116.001v91h-3c-64 -70 -152.333 -105 -265 -105c-86.667 0 -164.334 21.5 -233.001 64.5s-121.834 101.667 -159.501 176s-56.5 157.5 -56.5 249.5
c0 73.333 11.167 142 33.5 206s52.5 118.333 90.5 163s83.5 79.834 136.5 105.501s109.5 38.5 169.5 38.5c112.667 0 204.334 -39.667 275.001 -119h3v98zM591.002 342.998c50.667 0 92.833 16.5 126.5 49.5s50.5 75.833 50.5 128.5c0 52 -17 94.833 -51 128.5
s-76 50.5 -126 50.5s-92.167 -16.833 -126.5 -50.5s-51.5 -76.5 -51.5 -128.5c0 -52.667 17 -95.5 51 -128.5s76.333 -49.5 127 -49.5z" />
    <glyph glyph-name="h" unicode="h" horiz-adv-x="1190" 
d="M753 1024c35.333 0 67.834 -2.83398 97.501 -8.50098s58.167 -14.834 85.5 -27.501s51.333 -29.667 72 -51s38.667 -47.166 54 -77.499s27 -66.666 35 -108.999s12 -90.166 12 -143.499v-607h-366v519c0 47.333 -4.83301 84.166 -14.5 110.499s-24.5 44.666 -44.5 54.999
s-47.333 15.5 -82 15.5c-45.333 0 -81 -16.167 -107 -48.5s-39 -81.5 -39 -147.5v-504h-366v1508h366v-616h3c25.333 29.333 53.666 53.833 84.999 73.5s64.5 34.334 99.5 44.001s71.5 14.5 109.5 14.5z" />
    <glyph glyph-name="i" unicode="i" horiz-adv-x="564" 
d="M282 1117c-61.333 0 -111.667 18.8311 -151 56.498s-59 84.834 -59 141.501c0 36 8.83301 68.833 26.5 98.5s42.667 53.167 75 70.5s68.5 26 108.5 26c61.333 0 111.666 -18.5 150.999 -55.5s59 -83.5 59 -139.5c0 -57.333 -19.667 -104.666 -59 -141.999
s-89.666 -56 -150.999 -56zM98.999 -0.00195312v1003h365v-1003h-365z" />
    <glyph glyph-name="j" unicode="j" horiz-adv-x="547" 
d="M276 1117c-61.333 0 -111.667 18.8311 -151 56.498s-59 84.834 -59 141.501c0 36 8.83301 68.833 26.5 98.5s42.667 53.167 75 70.5s68.5 26 108.5 26c61.333 0 111.666 -18.5 150.999 -55.5s59 -83.5 59 -139.5c0 -57.333 -19.667 -104.666 -59 -141.999
s-89.666 -56 -150.999 -56zM122.999 -425.002c-41.333 0 -80.333 2.50098 -117 7.50098s-61.667 9.33301 -75 13s-31.333 9.16699 -54 16.5l60 282c28.667 -10 56.667 -15 84 -15c30 0 49.167 9.16699 57.5 27.5s12.5 49.166 12.5 92.499v1004h365v-1044
c0 -86 -12.333 -157.5 -37 -214.5s-61.5 -99.5 -110.5 -127.5s-110.833 -42 -185.5 -42z" />
    <glyph glyph-name="k" unicode="k" horiz-adv-x="1106" 
d="M536 341h-4l-76 -87v-254h-366v1508h366v-776h3l232 271h420l-336 -384l347 -619h-403z" />
    <glyph glyph-name="l" unicode="l" horiz-adv-x="564" 
d="M99 0v1508h365v-1508h-365z" />
    <glyph glyph-name="m" unicode="m" horiz-adv-x="1783" 
d="M1343 1024c238.667 0 357.997 -145.668 357.997 -437.001v-587h-365v504c0 16 -0.5 31 -1.5 45s-2.83301 27.667 -5.5 41s-6 25.5 -10 36.5s-9.16699 21.167 -15.5 30.5s-13.666 17 -21.999 23s-18.166 10.833 -29.499 14.5s-23.666 5.5 -36.999 5.5
c-39.333 0 -71.333 -16.5 -96 -49.5s-37 -81.833 -37 -146.5v-504h-366v504c0 28.667 -1.83301 54.167 -5.5 76.5s-9.83398 42.833 -18.501 61.5s-21.167 33 -37.5 43s-36.166 15 -59.499 15c-42 0 -75.667 -16.333 -101 -49s-38 -81.667 -38 -147v-504h-366v1003h366v-114
h2c34.667 44.667 75.167 78.334 121.5 101.001s95.5 34 147.5 34c133.333 0 229.333 -47.333 288 -142h3c78.667 94.667 187 142 325 142z" />
    <glyph glyph-name="n" unicode="n" horiz-adv-x="1180" 
d="M743 1024c35.333 0 67.832 -2.83594 97.499 -8.50293s58.167 -14.834 85.5 -27.501s51.333 -29.667 72 -51s38.667 -47.166 54 -77.499s27 -66.666 35 -108.999s12 -90.166 12 -143.499v-607h-366v519c0 46.667 -4.83301 83.334 -14.5 110.001s-23.667 45.167 -42 55.5
s-43.166 15.5 -74.499 15.5c-45.333 0 -81 -16.167 -107 -48.5s-39 -81.5 -39 -147.5v-504h-366v1003h366v-110h2c36.667 42.667 79.667 75.167 129 97.5s101.333 33.5 156 33.5z" />
    <glyph glyph-name="o" unicode="o" horiz-adv-x="1194" 
d="M597 -21c-106.667 0 -201.834 21.833 -285.501 65.5s-148.667 105.167 -195 184.5s-69.5 170 -69.5 272s23.167 192.667 69.5 272s111.333 141 195 185s178.834 66 285.501 66s201.667 -22 285 -66s148.333 -105.667 195 -185s70 -170 70 -272s-23.333 -192.667 -70 -272
s-111.667 -140.833 -195 -184.5s-178.333 -65.5 -285 -65.5zM597 302c52 0 95.333 18.835 130 56.502s52 85.167 52 142.5c0 58.667 -17 106.5 -51 143.5s-77.667 55.5 -131 55.5c-26 0 -50.333 -5 -73 -15s-42 -23.667 -58 -41s-28.5 -38.333 -37.5 -63
s-13.5 -51.334 -13.5 -80.001c0 -22.667 3 -44.334 9 -65.001s14.5 -39 25.5 -55s24 -30 39 -42s31.667 -21.167 50 -27.5s37.833 -9.5 58.5 -9.5z" />
    <glyph glyph-name="p" unicode="p" horiz-adv-x="1220" 
d="M729 1024c41.333 0 81.332 -5.83301 119.999 -17.5s74.334 -28.167 107.001 -49.5s62.334 -47.5 89.001 -78.5s49.5 -65.667 68.5 -104s33.667 -80.666 44 -126.999s15.5 -94.833 15.5 -145.5c0 -102 -19.667 -192.833 -59 -272.5s-94.333 -141.334 -165 -185.001
s-151.334 -65.5 -242.001 -65.5c-102.667 0 -185.667 36 -249 108h-3v-492h-365v1408h367v-101h3c70 81.333 159.667 122 269 122zM625.999 299c52 0 94.667 18.5 128 55.5s50 85.833 50 146.5c0 59.333 -16.667 107.666 -50 144.999s-76 56 -128 56
c-54 0 -98.333 -18.667 -133 -56s-52 -85.666 -52 -144.999c0 -60.667 17.333 -109.5 52 -146.5s79 -55.5 133 -55.5z" />
    <glyph glyph-name="q" unicode="q" horiz-adv-x="1225" 
d="M763 1003l366.999 0.000976562v-1408h-365v492h-3c-63.333 -72 -146.333 -108 -249 -108c-90.667 0 -171.334 21.833 -242.001 65.5s-125.667 105.334 -165 185.001s-59 170.5 -59 272.5c0 75.333 11.333 145.666 34 210.999s53.834 120.666 93.501 165.999
s86.834 80.833 141.501 106.5s113 38.5 175 38.5c109.333 0 199 -40.667 269 -122h3v101zM593.999 299.001c54 0 98.333 18.498 133 55.498s52 85.833 52 146.5c0 39.333 -8 74.333 -24 105s-38 54.334 -66 71.001s-59.667 25 -95 25c-52 0 -94.667 -18.667 -128 -56
s-50 -85.666 -50 -144.999c0 -60.667 16.667 -109.5 50 -146.5s76 -55.5 128 -55.5z" />
    <glyph glyph-name="r" unicode="r" horiz-adv-x="763" 
d="M739 1024h2.00098v-391c-20 1.33301 -45.667 2 -77 2c-68 0 -119.667 -17.833 -155 -53.5s-53 -83.5 -53 -143.5v-438h-366v1003h366v-137h3c35.333 51.333 77.166 90.5 125.499 117.5s99.833 40.5 154.5 40.5z" />
    <glyph glyph-name="s" unicode="s" horiz-adv-x="891" 
d="M426 -21c-160.667 0 -297.336 50.002 -410.003 150.002l166 226c87.333 -76 171 -114 251 -114c49.333 0 74 13.667 74 41c0 9.33301 -2.66699 17.166 -8 23.499s-18.166 14.166 -38.499 23.499s-50.5 19.666 -90.5 30.999c-36 10.667 -68.833 22.167 -98.5 34.5
s-58.5 27.833 -86.5 46.5s-51.5 39.334 -70.5 62.001s-34.167 49.667 -45.5 81s-17 65.666 -17 102.999c0 53.333 10.167 101.666 30.5 144.999s48.166 78.833 83.499 106.5s76.166 48.834 122.499 63.501s95.833 22 148.5 22c53.333 0 102.833 -5 148.5 -15
s87.334 -23.833 125.001 -41.5s77.167 -41.167 118.5 -70.5l-169 -243c-32 32 -67 57.167 -105 75.5s-73.333 27.5 -106 27.5c-17.333 0 -32.166 -3.5 -44.499 -10.5s-18.5 -17.167 -18.5 -30.5c0 -10.667 8.66699 -21.167 26 -31.5s50 -23.166 98 -38.499
c49.333 -16 90.5 -30.833 123.5 -44.5s64.167 -29.834 93.5 -48.501s52.333 -39 69 -61s29.667 -48 39 -78s14 -64.333 14 -103c0 -49.333 -8.83301 -94.166 -26.5 -134.499s-43.667 -75.333 -78 -105s-78.666 -52.5 -132.999 -68.5s-116.166 -24 -185.499 -24z" />
    <glyph glyph-name="t" unicode="t" horiz-adv-x="774" 
d="M431 -21c-43.333 0 -83.166 6.83301 -119.499 20.5s-68 34 -95 61s-48.167 62.167 -63.5 105.5s-23 93 -23 149v398h-109v290h109v315l365 38v-353h218v-290h-218v-319c0 -14 0.666992 -26.167 2 -36.5s4 -20.833 8 -31.5s10.833 -19 20.5 -25s21.5 -9 35.5 -9
c26 0 50.667 5.33301 74 16l89 -255c-43.333 -24.667 -86.333 -43.167 -129 -55.5s-97.334 -18.5 -164.001 -18.5z" />
    <glyph glyph-name="u" unicode="u" horiz-adv-x="1160" 
d="M708 1003h367v-1003h-367v107h-4c-34 -42 -74.5 -73.833 -121.5 -95.5s-97.5 -32.5 -151.5 -32.5c-236.667 0 -355 145.667 -355 437v587h365v-499c0 -71.333 10.167 -122.833 30.5 -154.5s53.833 -47.5 100.5 -47.5c40.667 0 73.5 16.5 98.5 49.5
s37.5 82.167 37.5 147.5v504z" />
    <glyph glyph-name="v" unicode="v" horiz-adv-x="1112" 
d="M722 1003h382l-383 -1003h-329l-384 1003h379l168 -569h4z" />
    <glyph glyph-name="w" unicode="w" horiz-adv-x="1562" 
d="M1192 1003h360l-337 -1003h-284l-149 565h-2l-143 -565h-290l-337 1003h361l141 -481h2l127 481h278l129 -481h2z" />
    <glyph glyph-name="x" unicode="x" horiz-adv-x="1073" 
d="M678 0l-139 216h-5l-142 -216h-387l329 519l-323 484h406l117 -213h4l118 213h405l-325 -485l332 -518h-390z" />
    <glyph glyph-name="y" unicode="y" horiz-adv-x="1100" 
d="M719 1003h373l-515 -1408h-355l170 479l-384 929h377l170 -475h4z" />
    <glyph glyph-name="z" unicode="z" horiz-adv-x="967" 
d="M926 766l-409 -478v-3h388v-285h-856v239l398 477v4h-358v283h837v-237z" />
    <glyph glyph-name="braceleft" unicode="{" horiz-adv-x="721" 
d="M526 836c0 -63.333 -8.66602 -113.334 -25.999 -150.001s-43.666 -64 -78.999 -82v-2c16.667 -8 29.167 -14.667 37.5 -20s17.833 -13.5 28.5 -24.5s18.167 -24 22.5 -39s8.16602 -35 11.499 -60s5 -55.5 5 -91.5v-313c0 -17.333 0.5 -31.666 1.5 -42.999
s3.66699 -23 8 -35s10.166 -21.5 17.499 -28.5s17.666 -12.833 30.999 -17.5s29.333 -7 48 -7h40v-228h-184c-47.333 0 -90.333 11.667 -129 35s-69.667 57.166 -93 101.499s-35 94.5 -35 150.5v328c0 16 -0.166992 28.5 -0.5 37.5s-1.66602 20.167 -3.99902 33.5
s-5.66602 23.666 -9.99902 30.999s-10.833 15.333 -19.5 24s-19.167 15.334 -31.5 20.001s-27.833 8.66699 -46.5 12s-40.334 5 -65.001 5v258c24 0 45.5 2 64.5 6s34.667 8.66699 47 14s22.833 12.666 31.5 21.999s15.167 18 19.5 26s7.66602 18.333 9.99902 31
s3.66602 22.834 3.99902 30.501s0.5 18.167 0.5 31.5v329c0 81.333 24 149.666 72 204.999s109.667 83 185 83h184v-228h-40c-15.333 0 -29.166 -2.33301 -41.499 -7s-22.166 -11 -29.499 -19s-13.5 -16.333 -18.5 -25s-8.66699 -18.167 -11 -28.5
s-3.83301 -19.166 -4.5 -26.499s-1 -14.666 -1 -21.999v-317z" />
    <glyph glyph-name="bar" unicode="|" horiz-adv-x="644" 
d="M182 -235v1744h280v-1744h-280z" />
    <glyph glyph-name="braceright" unicode="}" horiz-adv-x="721" 
d="M516 892c0 -10 0.164062 -17.9971 0.49707 -23.9971s1 -14 2 -24s2.5 -18.167 4.5 -24.5s5 -13.833 9 -22.5s9 -15.834 15 -21.501s13.5 -11.5 22.5 -17.5s19.167 -10.833 30.5 -14.5s24.833 -6.66699 40.5 -9s33.167 -3.5 52.5 -3.5v-258
c-24.667 0 -46.334 -1.66699 -65.001 -5s-34.167 -7.33301 -46.5 -12s-22.833 -11.334 -31.5 -20.001s-15.167 -16.667 -19.5 -24s-7.66602 -17.666 -9.99902 -30.999s-3.66602 -24.5 -3.99902 -33.5s-0.5 -21.5 -0.5 -37.5v-328c0 -84.667 -24.833 -153.667 -74.5 -207
s-110.5 -80 -182.5 -80h-184v228h40c23.333 0 42.333 3 57 9s25.5 15.667 32.5 29s11.5 26.666 13.5 39.999s3 31 3 53v313c0 36 1.66699 66.5 5 91.5s7.16602 45 11.499 60s11.833 28 22.5 39s20.167 19.167 28.5 24.5s20.833 12 37.5 20v2
c-35.333 18 -61.666 45.333 -78.999 82s-26 86.667 -26 150v317c0 7.33301 -0.333008 14.666 -1 21.999s-2.16699 16.166 -4.5 26.499s-6 19.833 -11 28.5s-11.167 17 -18.5 25s-17.166 14.333 -29.499 19s-26.166 7 -41.499 7h-40v228h184c75.333 0 137 -27.667 185 -83
s72 -123.666 72 -204.999v-329z" />
    <glyph glyph-name="asciitilde" unicode="~" horiz-adv-x="1152" 
d="M313 370l-237.002 96c28 87.333 69.333 158.5 124 213.5s119 82.5 193 82.5c11.333 0 22.333 -0.333008 33 -1s21 -1.66699 31 -3s18.833 -2.66602 26.5 -3.99902s16 -3.33301 25 -6s16.167 -4.83398 21.5 -6.50098s12.5 -4.16699 21.5 -7.5s15 -5.66602 18 -6.99902
l18 -8c9 -4 14.5 -6.33301 16.5 -7c34 -16.667 70 -25 108 -25c48.667 0 92 27.667 130 83l234 -80c-12.667 -43.333 -28.834 -83.333 -48.501 -120s-42.334 -69.667 -68.001 -99s-55.167 -52.333 -88.5 -69s-68.666 -25 -105.999 -25c-28 0 -55.667 2.5 -83 7.5
s-48.666 10.167 -63.999 15.5s-34.666 12.666 -57.999 21.999c-20.667 8 -35 13.667 -43 17s-19.667 6.83301 -35 10.5s-29.666 5.5 -42.999 5.5c-48.667 0 -90.667 -28.333 -126 -85z" />
    <glyph glyph-name="exclamdown" unicode="&#xa1;" horiz-adv-x="612" 
d="M307 1023c54.667 0 101.5 -19.167 140.5 -57.5s58.5 -84.833 58.5 -139.5c0 -53.333 -19.5 -99.166 -58.5 -137.499s-85.833 -57.5 -140.5 -57.5s-101.667 19.167 -141 57.5s-59 84.166 -59 137.499c0 54.667 19.5 101.167 58.5 139.5s86.167 57.5 141.5 57.5zM176 478
h257l61 -984h-379z" />
    <glyph glyph-name="cent" unicode="&#xa2;" horiz-adv-x="1070" 
d="M1045 279c-34.667 -41.333 -78.498 -77.499 -131.498 -108.499s-113.833 -53.5 -182.5 -67.5v-179h-278v177c-120 25.333 -217 84 -291 176s-111 203.333 -111 334c0 129.333 36.5 239.333 109.5 330s170.5 150 292.5 178v163h278v-161c62 -14 119.667 -37.167 173 -69.5
s98.666 -73.166 135.999 -122.499l-243 -208c-51.333 60 -113.333 90 -186 90c-38 0 -71.5 -8.16699 -100.5 -24.5s-51.333 -39.333 -67 -69s-23.5 -63.834 -23.5 -102.501c0 -58.667 18.167 -106.834 54.5 -144.501s83.166 -56.5 140.499 -56.5c72 0 132 27.667 180 83z
" />
    <glyph glyph-name="sterling" unicode="&#xa3;" horiz-adv-x="1146" 
d="M73 0l-0.000976562 343h111v251h-98v258h98v60c0 62 5.5 118.667 16.5 170s26.833 95.5 47.5 132.5s44.667 69.333 72 97s58.166 49.834 92.499 66.501s69.833 29 106.5 37s75.667 12 117 12c80 0 159.167 -17.5 237.5 -52.5s143.5 -83.833 195.5 -146.5l-187 -233
c-29.333 30 -61.5 53.833 -96.5 71.5s-66.5 26.5 -94.5 26.5c-15.333 0 -29.166 -2.33301 -41.499 -7s-24.666 -13.167 -36.999 -25.5s-22 -31.833 -29 -58.5s-10.5 -59.334 -10.5 -98.001v-52h273v-258h-269v-251h526v-343h-1030z" />
    <glyph glyph-name="currency" unicode="&#xa4;" horiz-adv-x="1040" 
d="M896 796c0 -62 -14 -119.333 -42 -172l168 -169l-160 -162l-169 171c-54 -28 -111.667 -42 -173 -42c-60.667 0 -118 14 -172 42l-169 -169l-161 160l170 171c-27.333 51.333 -41 108 -41 170c0 60 13.667 116.667 41 170l-170 172l161 160l170 -168
c52.667 28 109.667 42 171 42c62 0 120 -14 174 -42l168 170l160 -162l-168 -170c28 -52.667 42 -110 42 -172zM521 669c14 0.666992 27.502 3.16797 40.502 7.50098s24.833 10.666 35.5 18.999s20.167 17.833 28.5 28.5s14.666 22.667 18.999 36s6.83301 27 7.5 41
c-0.666992 36 -13.834 66.667 -39.501 92s-56.167 38.333 -91.5 39c-36 -0.666992 -66.833 -13.834 -92.5 -39.501s-38.834 -56.167 -39.501 -91.5c0.666992 -36 13.834 -66.667 39.501 -92s56.5 -38.666 92.5 -39.999z" />
    <glyph glyph-name="yen" unicode="&#xa5;" horiz-adv-x="1269" 
d="M1278 1406l-291 -542h105v-131h-175l-57 -106h232v-131h-259v-496h-399v496h-279v131h252l-56 106h-196v131h126l-290 542h452l190 -447h4l185 447h456z" />
    <glyph glyph-name="brokenbar" unicode="&#xa6;" horiz-adv-x="644" 
d="M182 787v722h280v-722h-280zM182 -234v719h280v-719h-280z" />
    <glyph glyph-name="section" unicode="&#xa7;" horiz-adv-x="1098" 
d="M897 306c32 -29.333 56.002 -63.333 72.002 -102s24 -85.334 24 -140.001c0 -78.667 -18.833 -146.834 -56.5 -204.501s-89.5 -101.167 -155.5 -130.5s-142.333 -44 -229 -44c-185.333 0 -346 68.333 -482 205l201 242c47.333 -45.333 95.5 -79 144.5 -101
s93.5 -33 133.5 -33c21.333 0 38.166 5.66699 50.499 17s18.5 25.333 18.5 42c0 13.333 -2.33301 24 -7 32s-16.5 17.833 -35.5 29.5s-47.833 24.834 -86.5 39.501s-71.334 27.667 -98.001 39s-55.667 24.666 -87 39.999s-57.5 30.166 -78.5 44.499
s-41.833 30.833 -62.5 49.5s-37.167 37.834 -49.5 57.501s-22.166 41.834 -29.499 66.501s-11 51 -11 79c0 121.333 45 212 135 272c-62.667 59.333 -94 136.666 -94 231.999c0 53.333 9.83301 102.833 29.5 148.5s47.667 85.167 84 118.5s81.5 59.5 135.5 78.5
s113.667 28.5 179 28.5c77.333 0 157.5 -16.333 240.5 -49s154.5 -75 214.5 -127l-195 -242c-94.667 64.667 -175 97 -241 97c-50 0 -75 -15.667 -75 -47c0 -10 2.16699 -18.167 6.5 -24.5s15 -14.666 32 -24.999s42.833 -22.833 77.5 -37.5
c134.667 -58.667 220 -97.667 256 -117c75.333 -42 125.666 -89.667 150.999 -143c18 -38 27 -84.333 27 -139c0 -50 -12 -96.667 -36 -140s-58.333 -80.666 -103 -111.999zM416.002 601c0 -11.333 1.50195 -21.166 4.50195 -29.499s9.83301 -18 20.5 -29
s28 -22.833 52 -35.5s55.333 -26.667 94 -42c5.33301 -2 13.333 -5.16699 24 -9.5s18.667 -7.5 24 -9.5c13.333 4 24.5 10 33.5 18s14.833 15.833 17.5 23.5s4 15.5 4 23.5c0 7.33301 -0.333008 13.166 -1 17.499s-2.83398 10 -6.50098 17s-9.33398 13.667 -17.001 20
s-18.167 13.833 -31.5 22.5s-30.833 17.834 -52.5 27.501s-47.5 20.5 -77.5 32.5c-3.33301 1.33301 -6.83301 2.66602 -10.5 3.99902s-7.5 3 -11.5 5s-7.33301 3.33301 -10 4c-21.333 -4.66699 -36 -13 -44 -25s-12 -23.667 -12 -35z" />
    <glyph glyph-name="dieresis" unicode="&#xa8;" horiz-adv-x="1108" 
d="M312 1061c-61.333 0 -111.667 18.832 -151 56.499s-59 84.834 -59 141.501c0 55.333 19.833 101.666 59.5 138.999s89.834 56 150.501 56c61.333 0 111.666 -18.5 150.999 -55.5s59 -83.5 59 -139.5c0 -37.333 -8.83301 -71.166 -26.5 -101.499s-42.5 -54 -74.5 -71
s-68.333 -25.5 -109 -25.5zM794.999 1061c-61.333 0 -111.667 18.832 -151 56.499s-59 84.834 -59 141.501c0 55.333 19.833 101.666 59.5 138.999s89.834 56 150.501 56c61.333 0 111.666 -18.5 150.999 -55.5s59 -83.5 59 -139.5
c0 -37.333 -8.83301 -71.166 -26.5 -101.499s-42.5 -54 -74.5 -71s-68.333 -25.5 -109 -25.5z" />
    <glyph glyph-name="copyright" unicode="&#xa9;" horiz-adv-x="1474" 
d="M734 -19c-91.333 0 -178.332 17.833 -260.999 53.5s-153.334 83.667 -212.001 144s-105.167 131.666 -139.5 213.999s-51.5 168.5 -51.5 258.5s17.333 176 52 258s81.5 153.167 140.5 213.5s130 108.5 213 144.5s170.5 54 262.5 54s179.167 -17.833 261.5 -53.5
s153 -83.667 212 -144s105.667 -131.666 140 -213.999s51.5 -168.5 51.5 -258.5c0 -89.333 -17.333 -175 -52 -257s-81.5 -153.333 -140.5 -214s-130.167 -109 -213.5 -145s-171 -54 -263 -54zM734.001 195c84 0 160.67 20.4951 230.003 61.4951s123.666 96.333 162.999 166
s59 145.834 59 228.501s-19.5 158.834 -58.5 228.501s-93 124.834 -162 165.501s-145.167 61 -228.5 61c-50.667 0 -99.334 -7.66699 -146.001 -23s-88.334 -37.166 -125.001 -65.499s-68.667 -61.333 -96 -99s-48.333 -79.667 -63 -126s-22 -94.5 -22 -144.5
c0 -82.667 19.5 -158.667 58.5 -228s92.833 -124.166 161.5 -164.499s145 -60.5 229 -60.5zM755.004 313.995c-46.667 0 -90.3291 7.16602 -130.996 21.499s-77 35 -109 62s-57.167 62 -75.5 105s-27.5 91.167 -27.5 144.5c0 46 7.5 89.333 22.5 130s36.667 76.167 65 106.5
s64.5 54.333 108.5 72s93 26.5 147 26.5c31.333 0 62.166 -4.16699 92.499 -12.5s61 -22.166 92 -41.499s58.5 -43.666 82.5 -72.999l-137 -118c-15.333 16.667 -34.5 31.5 -57.5 44.5s-47.167 19.5 -72.5 19.5c-39.333 0 -73 -13.5 -101 -40.5s-42 -64.833 -42 -113.5
c0 -42 12.833 -78 38.5 -108s60.5 -45 104.5 -45c15.333 0 31.166 2.66699 47.499 8s31.666 12.833 45.999 22.5s26.5 20.5 36.5 32.5l137 -120c-30.667 -36.667 -68.834 -66.334 -114.501 -89.001s-96.5 -34 -152.5 -34z" />
    <glyph glyph-name="ordfeminine" unicode="&#xaa;" horiz-adv-x="767" 
d="M469 1406h245.999v-605h-246v51h-3c-36 -44 -89.333 -66 -160 -66c-82.667 0 -149 29.5 -199 88.5s-75 135.833 -75 230.5c0 94 24.333 169.833 73 227.5s110.334 86.5 185.001 86.5c74 0 132.667 -28.667 176 -86h3v73zM286.999 1104
c0 -27.333 8.49902 -48.835 25.499 -64.502s38.167 -23.5 63.5 -23.5c24.667 0 45.334 8.16699 62.001 24.5s25 37.5 25 63.5c0 26.667 -8.5 47.834 -25.5 63.501s-37.5 23.5 -61.5 23.5c-25.333 0 -46.5 -8.16699 -63.5 -24.5s-25.5 -37.166 -25.5 -62.499z" />
    <glyph glyph-name="guillemotleft" unicode="&#xab;" horiz-adv-x="1114" 
d="M637 108h-337l-226 399l230 407h335l-235 -407zM1134 108h-337l-226 399l230 407h335l-235 -407z" />
    <glyph glyph-name="logicalnot" unicode="&#xac;" horiz-adv-x="1097" 
d="M719 270v339h-643v297h945v-636h-302z" />
    <glyph glyph-name="registered" unicode="&#xae;" horiz-adv-x="1487" 
d="M745 1332c92.667 0 180.668 -18.166 264.001 -54.499s154.666 -85 213.999 -146s106.333 -133 141 -216s52 -169.833 52 -260.5c0 -90 -17.5 -176.5 -52.5 -259.5s-82.333 -155 -142 -216s-131.334 -109.667 -215.001 -146s-172.167 -54.5 -265.5 -54.5
c-92.667 0 -180.5 18 -263.5 54s-154.167 84.333 -213.5 145s-106.5 132.667 -141.5 216s-52.5 170.333 -52.5 261c0 90 17.5 176.5 52.5 259.5s82.333 155.167 142 216.5s131.334 110.166 215.001 146.499s172.167 54.5 265.5 54.5zM741.001 193.001
c85.333 0 163.166 20.833 233.499 62.5s125.166 97.667 164.499 168s59 147.5 59 231.5c0 63.333 -11.667 123.333 -35 180s-55 105.5 -95 146.5s-88.167 73.667 -144.5 98s-116.166 36.5 -179.499 36.5c-86 0 -164.167 -20.833 -234.5 -62.5s-125.166 -98 -164.499 -169
s-59 -148.5 -59 -232.5s19.667 -161.167 59 -231.5s94 -125.833 164 -166.5s147.333 -61 232 -61zM1010 751.001c0 -95.333 -37 -161.332 -111 -197.999l144 -225h-215l-117 195h-32v-195h-184v663h270c81.333 0 142.5 -21.833 183.5 -65.5s61.5 -101.834 61.5 -174.501z
M679.001 824.002l-0.000976562 -136.999h44c26.667 0 48.334 5.66699 65.001 17s25 28.333 25 51c0 19.333 -8 35.666 -24 48.999s-38.667 20 -68 20h-42z" />
    <glyph glyph-name="macron" unicode="&#xaf;" horiz-adv-x="893" 
d="M119 1128v270h656v-270h-656z" />
    <glyph glyph-name="degree" unicode="&#xb0;" horiz-adv-x="746" 
d="M372 895c-80.667 0 -150.002 28.333 -208.002 85s-87 125 -87 205c0 52 13.667 100.5 41 145.5s63.833 80.5 109.5 106.5s93.834 39 144.501 39c38.667 0 76.167 -7.83301 112.5 -23.5s68 -36.5 95 -62.5s48.667 -57.333 65 -94s24.5 -74.667 24.5 -114
c0 -78.667 -29.167 -146.167 -87.5 -202.5s-128.166 -84.5 -209.499 -84.5zM371.998 1087c28 0 50.833 9.33496 68.5 28.002s26.5 42 26.5 70c0 27.333 -9.16699 50.666 -27.5 69.999s-40.833 29 -67.5 29s-49.167 -9.83301 -67.5 -29.5s-27.5 -43.5 -27.5 -71.5
c0 -26.667 9 -49.334 27 -68.001s40.667 -28 68 -28z" />
    <glyph glyph-name="plusminus" unicode="&#xb1;" horiz-adv-x="1186" 
d="M440 395v340h-339v298h339v342h302v-342h341v-298h-341v-340h-302zM103 0v298h982v-298h-982z" />
    <glyph glyph-name="uni00B2" unicode="&#xb2;" horiz-adv-x="661" 
d="M392 1125l241 0.000976562v-234h-608l-3 171l241 250c38 39.333 64 69.333 78 90s21 40.667 21 60c0 10.667 -2.5 19.5 -7.5 26.5s-11.667 12.167 -20 15.5s-17.833 5 -28.5 5c-38 0 -72.667 -17.333 -104 -52l-191 134c30 46 72.333 84.167 127 114.5
s118.334 45.5 191.001 45.5c39.333 0 76.833 -6 112.5 -18s67.167 -28.833 94.5 -50.5s49.166 -48.834 65.499 -81.501s24.5 -68.667 24.5 -108c0 -27.333 -1.5 -50.5 -4.5 -69.5s-9.16699 -40 -18.5 -63s-23.833 -46.5 -43.5 -70.5s-45.5 -50.333 -77.5 -79l-90 -82v-4z
" />
    <glyph glyph-name="uni00B3" unicode="&#xb3;" horiz-adv-x="678" 
d="M525 1325c84.667 -40.667 127.003 -107.002 127.003 -199.002c0 -77.333 -29.167 -138.666 -87.5 -183.999s-134.5 -68 -228.5 -68c-81.333 0 -152.333 20.333 -213 61s-102 92 -124 154l234 91c6 -26 16.167 -46 30.5 -60s32.166 -21 53.499 -21
c12.667 0 24.167 2.83301 34.5 8.5s18.166 13 23.499 22s8 19.167 8 30.5c0 20.667 -7.5 36.5 -22.5 47.5s-36.167 16.5 -63.5 16.5h-49v187h64c19.333 0 35.166 5 47.499 15s18.5 23 18.5 39c0 16.667 -5.5 30.667 -16.5 42s-25.167 17 -42.5 17c-34 0 -57 -21.333 -69 -64
l-214 114c17.333 50.667 52.5 92.834 105.5 126.501s112.833 50.5 179.5 50.5c56.667 0 107.5 -9 152.5 -27s81 -45 108 -81s40.5 -78.667 40.5 -128c0 -80 -32.333 -142.667 -97 -188v-2z" />
    <glyph glyph-name="acute" unicode="&#xb4;" horiz-adv-x="999" 
d="M250 1085l224 311l357 2l-253 -313h-328z" />
    <glyph glyph-name="uni00B5" unicode="&#xb5;" horiz-adv-x="1176" 
d="M723 1003l366 0.000976562v-1003h-338l-21 103h-3c-60.667 -82.667 -135.667 -124 -225 -124c-30 0 -55.667 4 -77 12l-9 -6c26.667 -86.667 40 -171.334 40 -254.001v-136h-366v1408h366v-499c0 -71.333 10.167 -122.833 30.5 -154.5s53.833 -47.5 100.5 -47.5
c40.667 0 73.5 16.5 98.5 49.5s37.5 82.167 37.5 147.5v504z" />
    <glyph glyph-name="paragraph" unicode="&#xb6;" horiz-adv-x="1076" 
d="M608 0l-0.000976562 519c-94.667 8 -177.167 29.833 -247.5 65.5s-125.666 85.5 -165.999 149.5s-60.5 139.333 -60.5 226c0 134 47 241.833 141 323.5s223.333 122.5 388 122.5h305v-1406h-360z" />
    <glyph glyph-name="periodcentered" unicode="&#xb7;" horiz-adv-x="569" 
d="M304 296c-36 0 -69.333 8.83301 -100 26.5s-55 41.5 -73 71.5s-27 63 -27 99c0 53.333 19.667 99.166 59 137.499s86.333 57.5 141 57.5s101.5 -19.167 140.5 -57.5s58.5 -84.166 58.5 -137.499c0 -54.667 -19.5 -101.167 -58.5 -139.5s-85.833 -57.5 -140.5 -57.5z" />
    <glyph glyph-name="cedilla" unicode="&#xb8;" horiz-adv-x="723" 
d="M375 -61c58 -2 103.833 -17.333 137.5 -46s50.5 -69 50.5 -121c0 -52.667 -21.833 -94 -65.5 -124s-110.834 -45 -201.501 -45c-49.333 0 -94.666 4 -135.999 12v139c30.667 -9.33301 67.667 -14 111 -14c54 0 81 17 81 51c0 38.667 -52.333 58 -157 58v79l47 84h175
l-43 -71z" />
    <glyph glyph-name="uni00B9" unicode="&#xb9;" horiz-adv-x="574" 
d="M232 891v525l-105 -75l-127 198l292 196h198v-844h-258z" />
    <glyph glyph-name="ordmasculine" unicode="&#xba;" horiz-adv-x="766" 
d="M372 787c-100 0 -181.667 29 -245 87s-95 134.333 -95 229s31.667 171 95 229s145 87 245 87c101.333 0 183.666 -29.333 246.999 -88s95 -134.667 95 -228s-31.667 -169.333 -95 -228s-145.666 -88 -246.999 -88zM372 1014c25.333 0 46.498 8.49805 63.498 25.498
s25.5 38.167 25.5 63.5c0 26.667 -8.16699 48.334 -24.5 65.001s-37.833 25 -64.5 25c-25.333 0 -46.166 -8.16699 -62.499 -24.5s-24.5 -38.166 -24.5 -65.499c0 -26.667 8.33301 -48.167 25 -64.5s37.334 -24.5 62.001 -24.5z" />
    <glyph glyph-name="guillemotright" unicode="&#xbb;" horiz-adv-x="1114" 
d="M6 108l233 399l-235 407h335l230 -407l-226 -399h-337zM503 108l233 399l-235 407h335l230 -407l-226 -399h-337z" />
    <glyph glyph-name="onequarter" unicode="&#xbc;" horiz-adv-x="1647" 
d="M632 -58l-249 108l650 1440l249 -108zM232 611v525l-105 -75l-127 198l292 196h198v-844h-258zM1270 0v121h-312v152l368 570h203v-504h103v-218h-103v-121h-259zM1166 322h127v200z" />
    <glyph glyph-name="onehalf" unicode="&#xbd;" horiz-adv-x="1713" 
d="M1033 1490l249 -108l-650 -1440l-249 108zM490 611h-258v525l-105 -75l-127 198l292 196h198v-844zM1444 234h241v-234h-608l-3 171l241 250c38 39.333 64 69.333 78 90s21 40.667 21 60c0 15.333 -5.16699 27 -15.5 35s-23.833 12 -40.5 12c-10 0 -20.5 -1.5 -31.5 -4.5
s-23.167 -8.66699 -36.5 -17s-25.333 -18.5 -36 -30.5l-191 134c30 46 72.333 84.167 127 114.5s118.334 45.5 191.001 45.5c31.333 0 61.666 -3.66699 90.999 -11s56.5 -18.5 81.5 -33.5s46.667 -32.667 65 -53s32.833 -44.333 43.5 -72s16 -57.167 16 -88.5
c0 -27.333 -1.5 -50.5 -4.5 -69.5s-9.16699 -40 -18.5 -63s-23.833 -46.5 -43.5 -70.5s-45.5 -50.333 -77.5 -79l-90 -82v-4z" />
    <glyph glyph-name="threequarters" unicode="&#xbe;" horiz-adv-x="1695" 
d="M1081 1490l249 -108l-650 -1440l-249 108zM652 846c0 -77.333 -29.1641 -138.667 -87.4971 -184s-134.5 -68 -228.5 -68c-81.333 0 -152.333 20.333 -213 61s-102 92 -124 154l234 91c6 -26 16.167 -46 30.5 -60s32.166 -21 53.499 -21c19.333 0 35.166 6 47.499 18
s18.5 26.333 18.5 43c0 20.667 -7.5 36.5 -22.5 47.5s-36.167 16.5 -63.5 16.5h-49v187h64c19.333 0 35.166 5 47.499 15s18.5 23 18.5 39c0 16.667 -5.5 30.667 -16.5 42s-25.167 17 -42.5 17c-34 0 -57 -21.333 -69 -64l-214 114c8.66699 24.667 22.167 48 40.5 70
s39.833 40.833 64.5 56.5s52.667 28 84 37s63.333 13.5 96 13.5c56.667 0 107.5 -9 152.5 -27s81 -45 108 -81s40.5 -78.667 40.5 -128c0 -80 -32.333 -142.667 -97 -188v-2c84.667 -40.667 127 -107 127 -199zM1577 338.999h103v-218h-103v-121h-259v121h-312v152l368 570
h203v-504zM1341 321.999v200l-127 -200h127z" />
    <glyph glyph-name="questiondown" unicode="&#xbf;" horiz-adv-x="929" 
d="M565 1022c55.333 0 102.5 -19.167 141.5 -57.5s58.5 -84.833 58.5 -139.5c0 -53.333 -19.667 -99.166 -59 -137.499s-86.333 -57.5 -141 -57.5s-101.5 19.167 -140.5 57.5s-58.5 84.166 -58.5 137.499c0 54.667 19.5 101.167 58.5 139.5s85.833 57.5 140.5 57.5zM735 489
l1.99902 -98.001c0.666992 -18 -0.5 -35.333 -3.5 -52s-8.33301 -33.334 -16 -50.001s-14.334 -30.667 -20.001 -42s-15.5 -25.333 -29.5 -42s-24 -28.5 -30 -35.5s-17.833 -19.5 -35.5 -37.5s-28.5 -29.333 -32.5 -34l-8 -8c-18.667 -19.333 -33 -34.5 -43 -45.5
s-21.833 -25.5 -35.5 -43.5s-23.5 -35 -29.5 -51s-9 -31.667 -9 -47c0 -21.333 3.83301 -39.5 11.5 -54.5s19.667 -26.667 36 -35s36.5 -12.5 60.5 -12.5c63.333 0 122.666 27.667 177.999 83l246 -224c-47.333 -55.333 -112.666 -100.5 -195.999 -135.5
s-168.666 -52.5 -255.999 -52.5c-51.333 0 -99.666 5 -144.999 15s-87.333 26 -126 48s-72 48.833 -100 80.5s-49.833 70.334 -65.5 116.001s-23.5 96.167 -23.5 151.5c0 37.333 5 72.833 15 106.5s24.667 64.834 44 93.501s38.333 53.5 57 74.5s41.334 43.833 68.001 68.5
c3.33301 2.66699 8 6.66699 14 12c23.333 20.667 40.666 36.5 51.999 47.5s24.5 24.5 39.5 40.5s26 30.667 33 44s11.167 27 12.5 41l10 78h325z" />
    <glyph glyph-name="Agrave" unicode="&#xc0;" horiz-adv-x="1420" 
d="M880 1592h-327l-252 313l357 -2zM1017 0l-73 235h-467l-73 -235h-408l528 1455h372l528 -1455h-407zM578 562h264l-130 418h-4z" />
    <glyph glyph-name="Aacute" unicode="&#xc1;" horiz-adv-x="1420" 
d="M1136 1905l-253 -313h-328l224 311zM1017 0l-73 235h-467l-73 -235h-408l528 1455h372l528 -1455h-407zM578 562h264l-130 418h-4z" />
    <glyph glyph-name="Acircumflex" unicode="&#xc2;" horiz-adv-x="1420" 
d="M707 1732l-74 -145h-304l217 318h316l232 -318h-307l-76 145h-4zM1017 0l-73 235h-467l-73 -235h-408l528 1455h372l528 -1455h-407zM578 562h264l-130 418h-4z" />
    <glyph glyph-name="Atilde" unicode="&#xc3;" horiz-adv-x="1420" 
d="M609 1661c-43.333 0 -79.3301 -31.002 -107.997 -93.002l-210 84c24.667 80.667 61 146.334 109 197.001s104.333 76 169 76c28.667 0 56 -3.33301 82 -10s44 -12.5 54 -17.5s26 -13.5 48 -25.5c36 -22 67.333 -33 94 -33c44.667 0 82 30 112 90l206 -68
c-23.333 -85.333 -58.5 -154.833 -105.5 -208.5s-102.5 -80.5 -166.5 -80.5c-59.333 0 -119 17 -179 51c-1.33301 0.666992 -5.66602 3 -12.999 7s-11.833 6.33301 -13.5 7s-5.83398 2.66699 -12.501 6s-11.167 5.5 -13.5 6.5s-6.33301 2.5 -12 4.5
s-10.334 3.33301 -14.001 4s-7.83398 1.33398 -12.501 2.00098s-9.33398 1 -14.001 1zM1017 -0.00195312l-73 235h-467l-73 -235h-408l528 1455h372l528 -1455h-407zM578.003 561.998h264l-130 418h-4z" />
    <glyph glyph-name="Adieresis" unicode="&#xc4;" horiz-adv-x="1420" 
d="M466 1568c-30 0 -58.1699 5.16992 -84.5029 15.5029s-48.666 24.166 -66.999 41.499s-32.666 38.166 -42.999 62.499s-15.5 50.5 -15.5 78.5c0 55.333 19.833 101.666 59.5 138.999s89.834 56 150.501 56c40 0 76.167 -8.5 108.5 -25.5s57.333 -40.333 75 -70
s26.5 -62.834 26.5 -99.501c0 -37.333 -8.83301 -71.166 -26.5 -101.499s-42.5 -54 -74.5 -71s-68.333 -25.5 -109 -25.5zM948.997 1568c-61.333 0 -111.667 18.8311 -151 56.498s-59 84.834 -59 141.501c0 36 8.83301 68.833 26.5 98.5s42.667 53.167 75 70.5
s68.5 26 108.5 26c61.333 0 111.666 -18.5 150.999 -55.5s59 -83.5 59 -139.5c0 -57.333 -19.667 -104.666 -59 -141.999s-89.666 -56 -150.999 -56zM1017 0.000976562l-73 235h-467l-73 -235h-408l528 1455h372l528 -1455h-407zM577.996 562.001h264l-130 418h-4z" />
    <glyph glyph-name="Aring" unicode="&#xc5;" horiz-adv-x="1420" 
d="M711 1552c-41.333 0 -79.168 9 -113.501 27s-61.666 43.833 -81.999 77.5s-30.5 71.5 -30.5 113.5c0 61.333 21 112.833 63 154.5s96.333 62.5 163 62.5c64 0 117.833 -20.333 161.5 -61s65.5 -92.667 65.5 -156c0 -61.333 -21 -113 -63 -155s-96.667 -63 -164 -63z
M710.998 1844c-9.33301 0 -18.333 -1.99902 -27 -5.99902s-16.167 -9.33301 -22.5 -16s-11.333 -14.334 -15 -23.001s-5.5 -17.667 -5.5 -27c0 -19.333 6.83301 -35.833 20.5 -49.5s30.167 -20.5 49.5 -20.5c13.333 0 25.333 3.16699 36 9.5s19 15 25 26s9 23.167 9 36.5
c0 19.333 -6.66699 35.833 -20 49.5s-30 20.5 -50 20.5zM1017 0.000976562l-73 235h-467l-73 -235h-408l528 1455h372l528 -1455h-407zM577.998 562.001h264l-130 418h-4z" />
    <glyph glyph-name="AE" unicode="&#xc6;" horiz-adv-x="1942" 
d="M1248 346h634v-346h-1011v236h-362l-105 -236h-408l678 1455h1166v-347h-592v-220h472v-332h-472v-210zM655 562h216v478h-3z" />
    <glyph glyph-name="Ccedilla" unicode="&#xc7;" horiz-adv-x="1446" 
d="M821 354c56.667 0 113.173 13.666 169.506 40.999s102.5 63 138.5 107l285 -245c-42 -51.333 -90.333 -96.666 -145 -135.999s-118.334 -72 -191.001 -98s-148.334 -40.333 -227.001 -43l-23 -39l1 -2c58 -2 103.833 -17.333 137.5 -46s50.5 -69 50.5 -121
c0 -52.667 -21.833 -94 -65.5 -124s-110.834 -45 -201.501 -45c-49.333 0 -94.666 4 -135.999 12v139c30.667 -9.33301 67.667 -14 111 -14c54 0 81 17 81 51c0 38.667 -52.333 58 -157 58v79l32 57v5c-86.667 13.333 -167.167 39.166 -241.5 77.499
s-139.833 87.666 -196.5 147.999s-101 134.166 -133 221.499s-48 183 -48 287c0 69.333 7.66699 136 23 200s37.333 123.833 66 179.5s65 106.334 109 152.001s93.5 84.834 148.5 117.501s117.667 58 188 76s145.166 27 224.499 27c106 0 211.833 -23.333 317.5 -70
s197.5 -117 275.5 -211l-285 -244c-22.667 25.333 -48.167 48.5 -76.5 69.5s-63.333 39.667 -105 56s-83.834 24.5 -126.501 24.5c-36 0 -71 -5 -105 -15s-65.833 -25.5 -95.5 -46.5s-55.5 -46.167 -77.5 -75.5s-39.333 -64.666 -52 -105.999s-19 -86 -19 -134
c0 -49.333 8 -96.333 24 -141s38.667 -84 68 -118s66.166 -61 110.499 -81s93.166 -30 146.499 -30z" />
    <glyph glyph-name="Egrave" unicode="&#xc8;" horiz-adv-x="1176" 
d="M490 1588l-252 313l357 -2l222 -311h-327zM106 0v1455h967v-347h-590v-219h462v-338h-462v-205h633v-346h-1010z" />
    <glyph glyph-name="Eacute" unicode="&#xc9;" horiz-adv-x="1176" 
d="M342 1588l224 311l357 2l-253 -313h-328zM106 0v1455h967v-347h-590v-219h462v-338h-462v-205h633v-346h-1010z" />
    <glyph glyph-name="Ecircumflex" unicode="&#xca;" horiz-adv-x="1176" 
d="M587 1728l-74 -145h-304l217 318h316l232 -318h-307l-76 145h-4zM483 346h633v-346h-1010v1455h967v-347h-590v-219h462v-338h-462v-205z" />
    <glyph glyph-name="Edieresis" unicode="&#xcb;" horiz-adv-x="1176" 
d="M346 1564c-61.333 0 -111.669 18.833 -151.002 56.5s-59 84.834 -59 141.501c0 55.333 19.833 101.666 59.5 138.999s89.834 56 150.501 56c40 0 76.167 -8.5 108.5 -25.5s57.333 -40.333 75 -70s26.5 -62.834 26.5 -99.501c0 -57.333 -19.667 -104.666 -59 -141.999
s-89.666 -56 -150.999 -56zM828.997 1564c-61.333 0 -111.668 18.832 -151.001 56.499s-59 84.834 -59 141.501c0 55.333 19.833 101.666 59.5 138.999s89.834 56 150.501 56c61.333 0 111.666 -18.5 150.999 -55.5s59 -83.5 59 -139.5
c0 -57.333 -19.667 -104.666 -59 -141.999s-89.666 -56 -150.999 -56zM105.995 -0.000976562v1455h967v-347h-590v-219h462v-338h-462v-205h633v-346h-1010z" />
    <glyph glyph-name="Igrave" unicode="&#xcc;" horiz-adv-x="629" 
d="M175 1589l-252 313l357 -2l222 -311h-327zM117 0v1455h395v-1455h-395z" />
    <glyph glyph-name="Iacute" unicode="&#xcd;" horiz-adv-x="629" 
d="M149 1589l224 311l357 2l-253 -313h-328zM117 0v1455h395v-1455h-395z" />
    <glyph glyph-name="Icircumflex" unicode="&#xce;" horiz-adv-x="629" 
d="M311 1728l-74 -145h-304l217 318h316l232 -318h-307l-76 145h-4zM117 0v1455h395v-1455h-395z" />
    <glyph glyph-name="Idieresis" unicode="&#xcf;" horiz-adv-x="629" 
d="M70 1564c-61.333 0 -111.668 18.832 -151.001 56.499s-59 84.834 -59 141.501c0 55.333 19.833 101.666 59.5 138.999s89.834 56 150.501 56c61.333 0 111.666 -18.5 150.999 -55.5s59 -83.5 59 -139.5c0 -57.333 -19.667 -104.666 -59 -141.999
s-89.666 -56 -150.999 -56zM552.998 1564c-61.333 0 -111.669 18.833 -151.002 56.5s-59 84.834 -59 141.501c0 55.333 19.833 101.666 59.5 138.999s89.834 56 150.501 56c40 0 76.167 -8.5 108.5 -25.5s57.333 -40.333 75 -70s26.5 -62.834 26.5 -99.501
c0 -57.333 -19.667 -104.666 -59 -141.999s-89.666 -56 -150.999 -56zM116.995 -0.000976562v1455h395v-1455h-395z" />
    <glyph glyph-name="Eth" unicode="&#xd0;" horiz-adv-x="1448" 
d="M632 1455c113.333 0 217.166 -18 311.499 -54s174 -85.833 239 -149.5s115.333 -140.667 151 -231s53.5 -188.833 53.5 -295.5s-17 -204.5 -51 -293.5s-82.667 -165.5 -146 -229.5s-142.166 -113.667 -236.499 -149s-199.5 -53 -315.5 -53h-530v547h-88v325h88v583h524z
M613 346c72 0 136 17 192 51s99 79.667 129 137s45 121 45 191c0 71.333 -14.833 136.333 -44.5 195s-70.5 104.667 -122.5 138s-109.333 50 -172 50h-154v-236h166v-325h-166v-201h127z" />
    <glyph glyph-name="Ntilde" unicode="&#xd1;" horiz-adv-x="1489" 
d="M652 1660c-43.333 0 -79.3281 -31.0029 -107.995 -93.0029l-210 84c24.667 80.667 61 146.334 109 197.001s104.333 76 169 76c22 0 42 -1.33301 60 -4s35.667 -7.5 53 -14.5s29.166 -12.167 35.499 -15.5s18.166 -9.66602 35.499 -18.999c36 -22 67.333 -33 94 -33
c44.667 0 82 30 112 90l206 -68c-23.333 -85.333 -58.5 -154.833 -105.5 -208.5s-102.5 -80.5 -166.5 -80.5c-59.333 0 -119 17 -179 51c-1.33301 0.666992 -5.66602 3 -12.999 7s-11.833 6.33301 -13.5 7s-5.83398 2.66699 -12.501 6s-11.167 5.5 -13.5 6.5
s-6.33301 2.5 -12 4.5s-10.334 3.33301 -14.001 4s-7.83398 1.33398 -12.501 2.00098s-9.33398 1 -14.001 1zM991.005 1455h390v-1455h-404l-477 796h-5v-796h-387v1455h392l486 -820h5v820z" />
    <glyph glyph-name="Ograve" unicode="&#xd2;" horiz-adv-x="1633" 
d="M701 1591l-252 313l357 -2l222 -311h-327zM818 -21c-110.667 0 -213 18.333 -307 55s-174 87.667 -240 153s-117.5 144.333 -154.5 237s-55.5 193.667 -55.5 303s18.5 210.5 55.5 303.5s88.5 172.167 154.5 237.5s146 116.333 240 153s196.333 55 307 55
c109.333 0 210.666 -18.167 303.999 -54.5s173 -87 239 -152s117.667 -144.167 155 -237.5s56 -195 56 -305s-18.667 -211.5 -56 -304.5s-89 -172 -155 -237s-145.667 -115.667 -239 -152s-194.666 -54.5 -303.999 -54.5zM817 342c67.333 0 127.83 17.1689 181.497 51.502
s95 80.666 124 138.999s43.5 123.166 43.5 194.499s-14.5 136.166 -43.5 194.499s-70.333 104.666 -124 138.999s-114.167 51.5 -181.5 51.5s-127.666 -17 -180.999 -51s-94.833 -80.333 -124.5 -139s-44.5 -123.667 -44.5 -195s14.833 -136.166 44.5 -194.499
s71.334 -104.666 125.001 -138.999s113.834 -51.5 180.501 -51.5z" />
    <glyph glyph-name="Oacute" unicode="&#xd3;" horiz-adv-x="1633" 
d="M662 1591l224 311l357 2l-253 -313h-328zM818 -21c-110.667 0 -213 18.333 -307 55s-174 87.667 -240 153s-117.5 144.333 -154.5 237s-55.5 193.667 -55.5 303s18.5 210.5 55.5 303.5s88.5 172.167 154.5 237.5s146 116.333 240 153s196.333 55 307 55
c109.333 0 210.666 -18.167 303.999 -54.5s173 -87 239 -152s117.667 -144.167 155 -237.5s56 -195 56 -305s-18.667 -211.5 -56 -304.5s-89 -172 -155 -237s-145.667 -115.667 -239 -152s-194.666 -54.5 -303.999 -54.5zM817 342c67.333 0 127.83 17.1689 181.497 51.502
s95 80.666 124 138.999s43.5 123.166 43.5 194.499s-14.5 136.166 -43.5 194.499s-70.333 104.666 -124 138.999s-114.167 51.5 -181.5 51.5s-127.666 -17 -180.999 -51s-94.833 -80.333 -124.5 -139s-44.5 -123.667 -44.5 -195s14.833 -136.166 44.5 -194.499
s71.334 -104.666 125.001 -138.999s113.834 -51.5 180.501 -51.5z" />
    <glyph glyph-name="Ocircumflex" unicode="&#xd4;" horiz-adv-x="1633" 
d="M816 1731l-74 -145h-304l217 318h316l232 -318h-307l-76 145h-4zM818 1476c109.333 0 210.666 -18.167 303.999 -54.5s173 -87 239 -152s117.667 -144.167 155 -237.5s56 -195 56 -305s-18.667 -211.5 -56 -304.5s-89 -172 -155 -237s-145.667 -115.667 -239 -152
s-194.666 -54.5 -303.999 -54.5c-110.667 0 -213 18.333 -307 55s-174 87.667 -240 153s-117.5 144.333 -154.5 237s-55.5 193.667 -55.5 303s18.5 210.5 55.5 303.5s88.5 172.167 154.5 237.5s146 116.333 240 153s196.333 55 307 55zM817 342
c67.333 0 127.832 17.1709 181.499 51.5039s95 80.666 124 138.999s43.5 123.166 43.5 194.499s-14.5 136.166 -43.5 194.499s-70.333 104.666 -124 138.999s-114.167 51.5 -181.5 51.5s-127.666 -17 -180.999 -51s-94.833 -80.333 -124.5 -139s-44.5 -123.667 -44.5 -195
c0 -108.667 33 -200 99 -274s149.667 -111 251 -111z" />
    <glyph glyph-name="Otilde" unicode="&#xd5;" horiz-adv-x="1633" 
d="M610 1567l-209.999 83.999c24.667 80.667 61 146.334 109 197.001s104.333 76 169 76c28.667 0 56 -3.33301 82 -10s44 -12.5 54 -17.5s26 -13.5 48 -25.5c36 -22 67.333 -33 94 -33c44.667 0 82 30 112 90l206 -68c-23.333 -85.333 -58.5 -154.833 -105.5 -208.5
s-102.5 -80.5 -166.5 -80.5c-59.333 0 -119 17 -179 51c-2 0.666992 -6 2.66699 -12 6s-10 5.5 -12 6.5l-11 5.5c-5.33301 2.66699 -9.33301 4.5 -12 5.5s-6.33398 2.5 -11.001 4.5s-8.5 3.5 -11.5 4.5s-6.66699 2 -11 3s-8.5 1.66699 -12.5 2s-8 0.5 -12 0.5
c-43.333 0 -79.333 -31 -108 -93zM818.001 -21.001c-110.667 0 -213 18.333 -307 55s-174 87.667 -240 153s-117.5 144.333 -154.5 237s-55.5 193.667 -55.5 303s18.5 210.5 55.5 303.5s88.5 172.167 154.5 237.5s146 116.333 240 153s196.333 55 307 55
c109.333 0 210.666 -18.167 303.999 -54.5s173 -87 239 -152s117.667 -144.167 155 -237.5s56 -195 56 -305s-18.667 -211.5 -56 -304.5s-89 -172 -155 -237s-145.667 -115.667 -239 -152s-194.666 -54.5 -303.999 -54.5zM817.001 341.999
c67.333 0 127.83 17.1689 181.497 51.502s95 80.666 124 138.999s43.5 123.166 43.5 194.499s-14.5 136.166 -43.5 194.499s-70.333 104.666 -124 138.999s-114.167 51.5 -181.5 51.5s-127.666 -17 -180.999 -51s-94.833 -80.333 -124.5 -139s-44.5 -123.667 -44.5 -195
s14.833 -136.166 44.5 -194.499s71.334 -104.666 125.001 -138.999s113.834 -51.5 180.501 -51.5z" />
    <glyph glyph-name="Odieresis" unicode="&#xd6;" horiz-adv-x="1633" 
d="M575 1567c-61.333 0 -111.668 18.832 -151.001 56.499s-59 84.834 -59 141.501c0 55.333 19.833 101.666 59.5 138.999s89.834 56 150.501 56c61.333 0 111.666 -18.5 150.999 -55.5s59 -83.5 59 -139.5c0 -57.333 -19.667 -104.666 -59 -141.999
s-89.666 -56 -150.999 -56zM1058 1567c-61.333 0 -111.668 18.832 -151.001 56.499s-59 84.834 -59 141.501c0 55.333 19.833 101.666 59.5 138.999s89.834 56 150.501 56c61.333 0 111.666 -18.5 150.999 -55.5s59 -83.5 59 -139.5
c0 -57.333 -19.667 -104.666 -59 -141.999s-89.666 -56 -150.999 -56zM817.996 -21.002c-110.667 0 -213 18.333 -307 55s-174 87.667 -240 153s-117.5 144.333 -154.5 237s-55.5 193.667 -55.5 303s18.5 210.5 55.5 303.5s88.5 172.167 154.5 237.5s146 116.333 240 153
s196.333 55 307 55c109.333 0 210.666 -18.167 303.999 -54.5s173 -87 239 -152s117.667 -144.167 155 -237.5s56 -195 56 -305s-18.667 -211.5 -56 -304.5s-89 -172 -155 -237s-145.667 -115.667 -239 -152s-194.666 -54.5 -303.999 -54.5zM816.996 341.998
c67.333 0 127.83 17.1689 181.497 51.502s95 80.666 124 138.999s43.5 123.166 43.5 194.499s-14.5 136.166 -43.5 194.499s-70.333 104.666 -124 138.999s-114.167 51.5 -181.5 51.5s-127.666 -17 -180.999 -51s-94.833 -80.333 -124.5 -139s-44.5 -123.667 -44.5 -195
s14.833 -136.166 44.5 -194.499s71.334 -104.666 125.001 -138.999s113.834 -51.5 180.501 -51.5z" />
    <glyph glyph-name="multiply" unicode="&#xd7;" horiz-adv-x="1076" 
d="M798 96l-260 260l-259 -259l-213 214l259 259l-259 259l212 210l258 -258l260 260l214 -213l-261 -261l260 -260z" />
    <glyph glyph-name="Oslash" unicode="&#xd8;" horiz-adv-x="1634" 
d="M1406 1220c110.667 -134.667 165.999 -299 165.999 -493c0 -110 -18.667 -211.5 -56 -304.5s-89 -172 -155 -237s-145.667 -115.667 -239 -152s-194.666 -54.5 -303.999 -54.5c-164.667 0 -308.667 39.333 -432 118l-159 -175l-142 132l153 168
c-56.667 65.333 -100.334 141 -131.001 227s-46 178.667 -46 278c0 109.333 18.5 210.5 55.5 303.5s88.5 172.167 154.5 237.5s146 116.333 240 153s196.333 55 307 55c170.667 0 319.334 -42.667 446.001 -128l152 167l141 -129zM466.999 727
c0 -74 15.999 -141 47.999 -201l486 533c-54 35.333 -115.333 53 -184 53c-67.333 0 -127.666 -17 -180.999 -51s-94.833 -80.333 -124.5 -139s-44.5 -123.667 -44.5 -195zM816.998 342c50.667 0 97.834 9.99902 141.501 29.999s80.667 47.333 111 82s54 75.5 71 122.5
s25.5 97.167 25.5 150.5c0 66.667 -13.333 128.334 -40 185.001l-478 -526c51.333 -29.333 107.666 -44 168.999 -44z" />
    <glyph glyph-name="Ugrave" unicode="&#xd9;" horiz-adv-x="1416" 
d="M574 1591l-252 313l357 -2l222 -311h-327zM705 -21c-92 0 -175.334 13.8301 -250.001 41.4971s-138.834 67.834 -192.501 120.501s-95.167 119 -124.5 199s-44 170.333 -44 271v844h394v-822c0 -53.333 7.5 -101.5 22.5 -144.5s39.333 -78.333 73 -106
s74.167 -41.5 121.5 -41.5c42.667 0 80.834 11.167 114.501 33.5s60.334 55.833 80.001 100.5s29.5 97.334 29.5 158.001v822h392v-844c0 -127.333 -23.333 -238.166 -70 -332.499s-116.667 -167.833 -210 -220.5s-205.333 -79 -336 -79z" />
    <glyph glyph-name="Uacute" unicode="&#xda;" horiz-adv-x="1416" 
d="M526 1591l224 311l357 2l-253 -313h-328zM705 -21c-92 0 -175.334 13.8301 -250.001 41.4971s-138.834 67.834 -192.501 120.501s-95.167 119 -124.5 199s-44 170.333 -44 271v844h394v-822c0 -53.333 7.5 -101.5 22.5 -144.5s39.333 -78.333 73 -106
s74.167 -41.5 121.5 -41.5c42.667 0 80.834 11.167 114.501 33.5s60.334 55.833 80.001 100.5s29.5 97.334 29.5 158.001v822h392v-844c0 -127.333 -23.333 -238.166 -70 -332.499s-116.667 -167.833 -210 -220.5s-205.333 -79 -336 -79z" />
    <glyph glyph-name="Ucircumflex" unicode="&#xdb;" horiz-adv-x="1416" 
d="M703 1731l-74 -145h-304l217 318h316l232 -318h-307l-76 145h-4zM929 1455l391.999 -0.00292969v-844c0 -127.333 -23.333 -238.166 -70 -332.499s-116.667 -167.833 -210 -220.5s-205.333 -79 -336 -79c-92 0 -175.333 13.833 -250 41.5
s-138.834 67.834 -192.501 120.501s-95.167 119 -124.5 199s-44 170.333 -44 271v844h394v-822c0 -39.333 4.5 -76.333 13.5 -111s22 -65.667 39 -93s39.667 -48.833 68 -64.5s60.5 -23.5 96.5 -23.5c42.667 0 80.834 11.167 114.501 33.5s60.334 55.833 80.001 100.5
s29.5 97.334 29.5 158.001v822z" />
    <glyph glyph-name="Udieresis" unicode="&#xdc;" horiz-adv-x="1416" 
d="M462 1567c-61.333 0 -111.668 18.832 -151.001 56.499s-59 84.834 -59 141.501c0 55.333 19.833 101.666 59.5 138.999s89.834 56 150.501 56c61.333 0 111.666 -18.5 150.999 -55.5s59 -83.5 59 -139.5c0 -57.333 -19.667 -104.666 -59 -141.999
s-89.666 -56 -150.999 -56zM944.998 1567c-61.333 0 -111.668 18.832 -151.001 56.499s-59 84.834 -59 141.501c0 55.333 19.833 101.666 59.5 138.999s89.834 56 150.501 56c61.333 0 111.666 -18.5 150.999 -55.5s59 -83.5 59 -139.5
c0 -57.333 -19.667 -104.666 -59 -141.999s-89.666 -56 -150.999 -56zM704.996 -21.002c-92 0 -175.334 13.8301 -250.001 41.4971s-138.834 67.834 -192.501 120.501s-95.167 119 -124.5 199s-44 170.333 -44 271v844h394v-822c0 -53.333 7.5 -101.5 22.5 -144.5
s39.333 -78.333 73 -106s74.167 -41.5 121.5 -41.5c42.667 0 80.834 11.167 114.501 33.5s60.334 55.833 80.001 100.5s29.5 97.334 29.5 158.001v822h392v-844c0 -127.333 -23.333 -238.166 -70 -332.499s-116.667 -167.833 -210 -220.5s-205.333 -79 -336 -79z" />
    <glyph glyph-name="Yacute" unicode="&#xdd;" horiz-adv-x="1312" 
d="M1054 1904l-253 -313h-328l224 311zM874 1455h451l-472 -827v-628h-397v628l-469 827h447l222 -445h2z" />
    <glyph glyph-name="Thorn" unicode="&#xde;" horiz-adv-x="1291" 
d="M108 0l0.000976562 1455h378v-230h233c89.333 0 168.166 -12.833 236.499 -38.5s123.5 -61.834 165.5 -108.501s73.667 -101 95 -163s32 -131 32 -207c0 -105.333 -23 -194.833 -69 -268.5s-110 -128.5 -192 -164.5s-179.333 -54 -292 -54h-209v-221h-378z
M486.001 559.001h143.999c64.667 0 116.334 14.167 155.001 42.5s58 67.166 58 116.499c0 46.667 -18.333 85.834 -55 117.501s-89 47.5 -157 47.5h-145v-324z" />
    <glyph glyph-name="germandbls" unicode="&#xdf;" horiz-adv-x="1272" 
d="M1010 850c70.667 -36 125.831 -88.6729 165.498 -158.006s59.5 -147.666 59.5 -234.999c0 -147.333 -41.833 -263.833 -125.5 -349.5s-198.834 -128.5 -345.501 -128.5h-162v321h74c60.667 0 108 16.833 142 50.5s51 77.167 51 130.5c0 56.667 -18.667 101.167 -56 133.5
s-89 48.5 -155 48.5h-43v292h26c46.667 0.666992 84.167 13.834 112.5 39.501s42.5 57.834 42.5 96.501c0 39.333 -14.5 70.666 -43.5 93.999s-68.5 35 -118.5 35c-23.333 0 -45.166 -3.5 -65.499 -10.5s-39.166 -18 -56.499 -33s-31 -36.167 -41 -63.5
s-15 -59.666 -15 -96.999v-1016h-366v988c0 118 22.167 217.833 66.5 299.5s106.333 142.334 186 182.001s174.834 59.5 285.501 59.5c58.667 0 113.5 -5.16699 164.5 -15.5s95.333 -24.666 133 -42.999s71 -40 100 -65s52.5 -52.5 70.5 -82.5s31.667 -61.167 41 -93.5
s14 -65.5 14 -99.5c0 -53.333 -11 -104.166 -33 -152.499s-58 -89.833 -108 -124.5v-3z" />
    <glyph glyph-name="agrave" unicode="&#xe0;" horiz-adv-x="1204" 
d="M806 1140h-327l-252 313l357 -2zM751 1003l366.999 0.00195312v-1003h-347v94h-3c-60 -76.667 -146 -115 -258 -115c-68 0 -130.833 12.833 -188.5 38.5s-106.834 61.167 -147.501 106.5s-72.5 100.5 -95.5 165.5s-34.5 135.833 -34.5 212.5
c0 75.333 11.333 145.666 34 210.999s53.834 120.666 93.501 165.999s86.834 80.833 141.501 106.5s113 38.5 175 38.5c104 0 190.667 -40 260 -120h3v99zM590.999 299.002c50 0 91.833 18.665 125.5 55.998s50.5 86 50.5 146c0 58.667 -16.833 106.834 -50.5 144.501
s-75.5 56.5 -125.5 56.5c-52 0 -94.667 -18.667 -128 -56s-50 -85.666 -50 -144.999c0 -60.667 16.667 -109.5 50 -146.5s76 -55.5 128 -55.5z" />
    <glyph glyph-name="aacute" unicode="&#xe1;" horiz-adv-x="1204" 
d="M967 1453l-253 -313h-328l224 311zM751 1003l366.999 0.00195312v-1003h-347v94h-3c-60 -76.667 -146 -115 -258 -115c-68 0 -130.833 12.833 -188.5 38.5s-106.834 61.167 -147.501 106.5s-72.5 100.5 -95.5 165.5s-34.5 135.833 -34.5 212.5
c0 75.333 11.333 145.666 34 210.999s53.834 120.666 93.501 165.999s86.834 80.833 141.501 106.5s113 38.5 175 38.5c104 0 190.667 -40 260 -120h3v99zM590.999 299.002c50 0 91.833 18.665 125.5 55.998s50.5 86 50.5 146c0 58.667 -16.833 106.834 -50.5 144.501
s-75.5 56.5 -125.5 56.5c-52 0 -94.667 -18.667 -128 -56s-50 -85.666 -50 -144.999c0 -60.667 16.667 -109.5 50 -146.5s76 -55.5 128 -55.5z" />
    <glyph glyph-name="acircumflex" unicode="&#xe2;" horiz-adv-x="1204" 
d="M591 1281l-74 -145h-304l217 318h316l232 -318h-307l-76 145h-4zM751 1003l366.999 0.00195312v-1003h-347v94h-3c-60 -76.667 -146 -115 -258 -115c-68 0 -130.833 12.833 -188.5 38.5s-106.834 61.167 -147.501 106.5s-72.5 100.5 -95.5 165.5
s-34.5 135.833 -34.5 212.5c0 75.333 11.333 145.666 34 210.999s53.834 120.666 93.501 165.999s86.834 80.833 141.501 106.5s113 38.5 175 38.5c104 0 190.667 -40 260 -120h3v99zM590.999 299.002c50 0 91.833 18.665 125.5 55.998s50.5 86 50.5 146
c0 58.667 -16.833 106.834 -50.5 144.501s-75.5 56.5 -125.5 56.5c-52 0 -94.667 -18.667 -128 -56s-50 -85.666 -50 -144.999c0 -60.667 16.667 -109.5 50 -146.5s76 -55.5 128 -55.5z" />
    <glyph glyph-name="atilde" unicode="&#xe3;" horiz-adv-x="1204" 
d="M493 1210c-43.333 0 -79.3301 -31.002 -107.997 -93.002l-210 84c24.667 80.667 61 146.334 109 197.001s104.333 76 169 76c28.667 0 56 -3.33301 82 -10s44 -12.5 54 -17.5s26 -13.5 48 -25.5c36 -22 67.333 -33 94 -33c44.667 0 82 30 112 90l206 -68
c-11.333 -40.667 -25.5 -78.167 -42.5 -112.5s-36.833 -64.833 -59.5 -91.5s-48.5 -47.5 -77.5 -62.5s-59.833 -22.5 -92.5 -22.5c-59.333 0 -119 17 -179 51c-1.33301 0.666992 -5.66602 3 -12.999 7s-11.833 6.33301 -13.5 7s-5.83398 2.66699 -12.501 6
s-11.167 5.5 -13.5 6.5s-6.33301 2.5 -12 4.5s-10.334 3.33301 -14.001 4s-7.83398 1.33398 -12.501 2.00098s-9.33398 1 -14.001 1zM751.003 1003l366.999 0.00195312v-1003h-347v94h-3c-60 -76.667 -146 -115 -258 -115c-68 0 -130.833 12.833 -188.5 38.5
s-106.834 61.167 -147.501 106.5s-72.5 100.5 -95.5 165.5s-34.5 135.833 -34.5 212.5c0 75.333 11.333 145.666 34 210.999s53.834 120.666 93.501 165.999s86.834 80.833 141.501 106.5s113 38.5 175 38.5c104 0 190.667 -40 260 -120h3v99zM591.002 299
c50 0 91.833 18.665 125.5 55.998s50.5 86 50.5 146c0 58.667 -16.833 106.834 -50.5 144.501s-75.5 56.5 -125.5 56.5c-52 0 -94.667 -18.667 -128 -56s-50 -85.666 -50 -144.999c0 -60.667 16.667 -109.5 50 -146.5s76 -55.5 128 -55.5z" />
    <glyph glyph-name="adieresis" unicode="&#xe4;" horiz-adv-x="1204" 
d="M350 1117c-61.333 0 -111.667 18.8311 -151 56.498s-59 84.834 -59 141.501c0 36 8.83301 68.833 26.5 98.5s42.667 53.167 75 70.5s68.5 26 108.5 26c61.333 0 111.666 -18.5 150.999 -55.5s59 -83.5 59 -139.5c0 -57.333 -19.667 -104.666 -59 -141.999
s-89.666 -56 -150.999 -56zM832.999 1117c-61.333 0 -111.667 18.8311 -151 56.498s-59 84.834 -59 141.501c0 36 8.83301 68.833 26.5 98.5s42.667 53.167 75 70.5s68.5 26 108.5 26c61.333 0 111.666 -18.5 150.999 -55.5s59 -83.5 59 -139.5
c0 -57.333 -19.667 -104.666 -59 -141.999s-89.666 -56 -150.999 -56zM750.998 1003l366.999 0.00195312v-1003h-347v94h-3c-60 -76.667 -146 -115 -258 -115c-68 0 -130.833 12.833 -188.5 38.5s-106.834 61.167 -147.501 106.5s-72.5 100.5 -95.5 165.5
s-34.5 135.833 -34.5 212.5c0 75.333 11.333 145.666 34 210.999s53.834 120.666 93.501 165.999s86.834 80.833 141.501 106.5s113 38.5 175 38.5c104 0 190.667 -40 260 -120h3v99zM590.997 298.998c50 0 91.833 18.665 125.5 55.998s50.5 86 50.5 146
c0 58.667 -16.833 106.834 -50.5 144.501s-75.5 56.5 -125.5 56.5c-52 0 -94.667 -18.667 -128 -56s-50 -85.666 -50 -144.999c0 -60.667 16.667 -109.5 50 -146.5s76 -55.5 128 -55.5z" />
    <glyph glyph-name="aring" unicode="&#xe5;" horiz-adv-x="1204" 
d="M595 1101c-63.333 0 -116.833 20.5 -160.5 61.5s-65.5 93.167 -65.5 156.5c0 61.333 21 112.833 63 154.5s96.333 62.5 163 62.5c64 0 117.833 -20.333 161.5 -61s65.5 -92.667 65.5 -156c0 -61.333 -21 -113 -63 -155s-96.667 -63 -164 -63zM595 1393
c-18.667 0 -35 -7.16797 -49 -21.501s-21 -31.166 -21 -50.499s6.83301 -35.833 20.5 -49.5s30.167 -20.5 49.5 -20.5c20 0 36.667 7 50 21s20 31 20 51c0 9.33301 -1.83301 18.333 -5.5 27s-8.5 16.167 -14.5 22.5s-13.333 11.333 -22 15s-18 5.5 -28 5.5zM751 1003
l366.999 0.00195312v-1003h-347v94h-3c-60 -76.667 -146 -115 -258 -115c-68 0 -130.833 12.833 -188.5 38.5s-106.834 61.167 -147.501 106.5s-72.5 100.5 -95.5 165.5s-34.5 135.833 -34.5 212.5c0 75.333 11.333 145.666 34 210.999s53.834 120.666 93.501 165.999
s86.834 80.833 141.501 106.5s113 38.5 175 38.5c104 0 190.667 -40 260 -120h3v99zM590.999 299.001c50 0 91.833 18.665 125.5 55.998s50.5 86 50.5 146c0 58.667 -16.833 106.834 -50.5 144.501s-75.5 56.5 -125.5 56.5c-52 0 -94.667 -18.667 -128 -56
s-50 -85.666 -50 -144.999c0 -60.667 16.667 -109.5 50 -146.5s76 -55.5 128 -55.5z" />
    <glyph glyph-name="ae" unicode="&#xe6;" horiz-adv-x="1618" 
d="M1574 504c0 -24.667 -3.33105 -54.998 -9.99805 -90.998h-630c14 -44.667 38 -78.834 72 -102.501s76 -35.5 126 -35.5c48 0 90.5 10.667 127.5 32s66.833 45.333 89.5 72l185 -210c-45.333 -56 -106.666 -101.667 -183.999 -137s-162.333 -53 -255 -53
c-42 0 -82.833 5.16699 -122.5 15.5s-75.5 24.5 -107.5 42.5s-60.667 39 -86 63h-5c-41.333 -37.333 -94.833 -66.833 -160.5 -88.5s-131.834 -32.5 -198.501 -32.5c-64 0 -120.333 7.83301 -169 23.5s-88.167 37.667 -118.5 66s-53.166 61 -68.499 98s-23 78.167 -23 123.5
c0 210 139 315 417 315l129 2v4c0 50.667 -9.83301 86 -29.5 106s-50.834 30 -93.501 30c-70.667 0 -138.334 -20.333 -203.001 -61l-158 241c32 18 85.5 38.667 160.5 62s148.167 35 219.5 35c70 0 129.5 -8 178.5 -24s89.833 -43.333 122.5 -82h5
c81.333 70.667 179.666 106 294.999 106c69.333 0 134.5 -13.167 195.5 -39.5s113.5 -62.333 157.5 -108s78.667 -100.834 104 -165.501s38 -133.667 38 -207zM1077 736.002c-34.667 0 -65 -10.667 -91 -32s-44.333 -54.333 -55 -99h287
c-13.333 87.333 -60.333 131 -141 131zM463.002 227.002c16 0 30.833 2.66797 44.5 8.00098s24.834 12.166 33.501 20.499s16.167 17.333 22.5 27s11 18.5 14 26.5s4.5 15 4.5 21v89l-87 -2c-37.333 -1.33301 -66.5 -10 -87.5 -26s-31.5 -40 -31.5 -72
c0 -29.333 7.66699 -52 23 -68s36.666 -24 63.999 -24z" />
    <glyph glyph-name="ccedilla" unicode="&#xe7;" horiz-adv-x="1059" 
d="M606 -20l-23.001 -38.9971l1 -2c58 -2 103.833 -17.333 137.5 -46s50.5 -69 50.5 -121c0 -52.667 -21.833 -94 -65.5 -124s-110.834 -45 -201.501 -45c-49.333 0 -94.666 4 -135.999 12v139c30.667 -9.33301 67.667 -14 111 -14c54 0 81 17 81 51
c0 38.667 -52.333 58 -157 58v79l35 63v3c-117.333 27.333 -212 86.5 -284 177.5s-108 200.833 -108 329.5c0 102 23.167 192.667 69.5 272s111.333 141 195 185s178.834 66 285.501 66c86 0 168.167 -17.833 246.5 -53.5s142.166 -86.834 191.499 -153.501l-243 -207
c-50.667 60 -112.667 90 -186 90c-28 0 -54 -4.83301 -78 -14.5s-44.167 -23.167 -60.5 -40.5s-29.166 -38.166 -38.499 -62.499s-14 -50.5 -14 -78.5c0 -58.667 18.167 -106.667 54.5 -144s83.166 -56 140.499 -56c73.333 0 133.666 27.333 180.999 82l249 -217
c-28.667 -34.667 -63.167 -65.334 -103.5 -92.001s-89.166 -48.834 -146.499 -66.501s-118.666 -27.834 -183.999 -30.501z" />
    <glyph glyph-name="egrave" unicode="&#xe8;" horiz-adv-x="1116" 
d="M785 1140h-327l-252 313l357 -2zM1072 509c0 -38 -3.33105 -70.3301 -9.99805 -96.9971h-658c8 -46.667 30.833 -82.334 68.5 -107.001s84.167 -37 139.5 -37c83.333 0 160.333 37 231 111l189 -208c-45.333 -56.667 -107.833 -102.834 -187.5 -138.501
s-170.167 -53.5 -271.5 -53.5c-99.333 0 -189 21.833 -269 65.5s-142.833 105.5 -188.5 185.5s-68.5 170.667 -68.5 272c0 100 22.167 189.667 66.5 269s106.166 141.333 185.499 186s168.666 67 267.999 67c71.333 0 138.333 -12.833 201 -38.5
s116.167 -60.834 160.5 -105.501s79.333 -99.167 105 -163.5s38.5 -133.5 38.5 -207.5zM565.002 745.003c-40.667 0 -75.5 -11.835 -104.5 -35.502s-47.5 -56.5 -55.5 -98.5h312c-4.66699 20.667 -11.5 39.334 -20.5 56.001s-19.833 30.834 -32.5 42.501
s-27.5 20.5 -44.5 26.5s-35.167 9 -54.5 9z" />
    <glyph glyph-name="eacute" unicode="&#xe9;" horiz-adv-x="1116" 
d="M1012 1453l-253 -313h-328l224 311zM1072 509c0 -38 -3.33105 -70.3301 -9.99805 -96.9971h-658c8 -46.667 30.833 -82.334 68.5 -107.001s84.167 -37 139.5 -37c83.333 0 160.333 37 231 111l189 -208c-45.333 -56.667 -107.833 -102.834 -187.5 -138.501
s-170.167 -53.5 -271.5 -53.5c-99.333 0 -189 21.833 -269 65.5s-142.833 105.5 -188.5 185.5s-68.5 170.667 -68.5 272c0 100 22.167 189.667 66.5 269s106.166 141.333 185.499 186s168.666 67 267.999 67c71.333 0 138.333 -12.833 201 -38.5
s116.167 -60.834 160.5 -105.501s79.333 -99.167 105 -163.5s38.5 -133.5 38.5 -207.5zM565.002 745.003c-40.667 0 -75.5 -11.835 -104.5 -35.502s-47.5 -56.5 -55.5 -98.5h312c-4.66699 20.667 -11.5 39.334 -20.5 56.001s-19.833 30.834 -32.5 42.501
s-27.5 20.5 -44.5 26.5s-35.167 9 -54.5 9z" />
    <glyph glyph-name="ecircumflex" unicode="&#xea;" horiz-adv-x="1116" 
d="M578 1281l-74 -145h-304l217 318h316l232 -318h-307l-76 145h-4zM1072 509c0 -38 -3.33105 -70.3301 -9.99805 -96.9971h-658c8 -46.667 30.833 -82.334 68.5 -107.001s84.167 -37 139.5 -37c83.333 0 160.333 37 231 111l189 -208
c-45.333 -56.667 -107.833 -102.834 -187.5 -138.501s-170.167 -53.5 -271.5 -53.5c-99.333 0 -189 21.833 -269 65.5s-142.833 105.5 -188.5 185.5s-68.5 170.667 -68.5 272c0 100 22.167 189.667 66.5 269s106.166 141.333 185.499 186s168.666 67 267.999 67
c71.333 0 138.333 -12.833 201 -38.5s116.167 -60.834 160.5 -105.501s79.333 -99.167 105 -163.5s38.5 -133.5 38.5 -207.5zM565.002 745.003c-40.667 0 -75.5 -11.835 -104.5 -35.502s-47.5 -56.5 -55.5 -98.5h312c-4.66699 20.667 -11.5 39.334 -20.5 56.001
s-19.833 30.834 -32.5 42.501s-27.5 20.5 -44.5 26.5s-35.167 9 -54.5 9z" />
    <glyph glyph-name="edieresis" unicode="&#xeb;" horiz-adv-x="1116" 
d="M337 1117c-61.333 0 -111.666 18.8311 -150.999 56.498s-59 84.834 -59 141.501c0 36 8.83301 68.833 26.5 98.5s42.667 53.167 75 70.5s68.5 26 108.5 26c61.333 0 111.666 -18.5 150.999 -55.5s59 -83.5 59 -139.5c0 -37.333 -8.83301 -71.166 -26.5 -101.499
s-42.5 -54 -74.5 -71s-68.333 -25.5 -109 -25.5zM820 1117c-61.333 0 -111.667 18.8311 -151 56.498s-59 84.834 -59 141.501c0 36 8.83301 68.833 26.5 98.5s42.667 53.167 75 70.5s68.5 26 108.5 26c61.333 0 111.666 -18.5 150.999 -55.5s59 -83.5 59 -139.5
c0 -57.333 -19.667 -104.666 -59 -141.999s-89.666 -56 -150.999 -56zM1072 508.996c0 -38 -3.33105 -70.3301 -9.99805 -96.9971h-658c8 -46.667 30.833 -82.334 68.5 -107.001s84.167 -37 139.5 -37c83.333 0 160.333 37 231 111l189 -208
c-45.333 -56.667 -107.833 -102.834 -187.5 -138.501s-170.167 -53.5 -271.5 -53.5c-99.333 0 -189 21.833 -269 65.5s-142.833 105.5 -188.5 185.5s-68.5 170.667 -68.5 272c0 100 22.167 189.667 66.5 269s106.166 141.333 185.499 186s168.666 67 267.999 67
c71.333 0 138.333 -12.833 201 -38.5s116.167 -60.834 160.5 -105.501s79.333 -99.167 105 -163.5s38.5 -133.5 38.5 -207.5zM565.001 744.999c-40.667 0 -75.502 -11.833 -104.502 -35.5s-47.5 -56.5 -55.5 -98.5h312c-9.33301 42 -27.166 74.833 -53.499 98.5
s-59.166 35.5 -98.499 35.5z" />
    <glyph glyph-name="igrave" unicode="&#xec;" horiz-adv-x="564" 
d="M128 1141l-162 313l357 -2l132 -311h-327zM99 0v1003h365v-1003h-365z" />
    <glyph glyph-name="iacute" unicode="&#xed;" horiz-adv-x="564" 
d="M121 1140l224 311l357 2l-253 -313h-328zM99 0v1003h365v-1003h-365z" />
    <glyph glyph-name="icircumflex" unicode="&#xee;" horiz-adv-x="564" 
d="M278 1281l-74 -145h-304l217 318h316l232 -318h-307l-76 145h-4zM99 0v1003h365v-1003h-365z" />
    <glyph glyph-name="idieresis" unicode="&#xef;" horiz-adv-x="564" 
d="M37 1117c-30 0 -58.1699 5.16895 -84.5029 15.502s-48.666 24.166 -66.999 41.499s-32.666 38.166 -42.999 62.499s-15.5 50.5 -15.5 78.5c0 55.333 19.833 101.666 59.5 138.999s89.834 56 150.501 56c61.333 0 111.666 -18.5 150.999 -55.5s59 -83.5 59 -139.5
c0 -57.333 -19.667 -104.666 -59 -141.999s-89.666 -56 -150.999 -56zM519.997 1117c-61.333 0 -111.667 18.8311 -151 56.498s-59 84.834 -59 141.501c0 36 8.83301 68.833 26.5 98.5s42.667 53.167 75 70.5s68.5 26 108.5 26c61.333 0 111.666 -18.5 150.999 -55.5
s59 -83.5 59 -139.5c0 -57.333 -19.667 -104.666 -59 -141.999s-89.666 -56 -150.999 -56zM98.9961 0v1003h365v-1003h-365z" />
    <glyph glyph-name="eth" unicode="&#xf0;" horiz-adv-x="1173" 
d="M1123 531l0.00292969 -2c0 -110.667 -23.333 -207.834 -70 -291.501s-111.5 -147.667 -194.5 -192s-178.167 -66.5 -285.5 -66.5c-74 0 -143.5 12.333 -208.5 37s-120.667 58.334 -167 101.001s-83 93.5 -110 152.5s-40.5 121.833 -40.5 188.5
c0 93.333 21.167 175 63.5 245s98.166 122.5 167.499 157.5s146.666 52.5 231.999 52.5c40 0 90.333 -7 151 -21l2 5c-42 72 -91.667 136.667 -149 194l-127 -97l-149 173l86 67v1c-40 22.667 -83.667 43 -131 61l133 225c79.333 -26.667 157.666 -60 234.999 -100l141 110
l150 -182l-82 -63l-1 -3c114 -94 201.5 -204.167 262.5 -330.5s91.5 -266.833 91.5 -421.5zM584.003 302c30.667 0 58.999 7.49805 84.999 22.498s46.833 36.5 62.5 64.5s23.5 59.667 23.5 95c0 29.333 -7 56.333 -21 81s-34.667 44.334 -62 59.001s-58.666 22 -93.999 22
c-44 0 -82.167 -16 -114.5 -48s-48.5 -70 -48.5 -114c0 -33.333 6.83301 -63.666 20.5 -90.999s33.5 -49.333 59.5 -66s55.667 -25 89 -25z" />
    <glyph glyph-name="ntilde" unicode="&#xf1;" horiz-adv-x="1180" 
d="M517 1210c-43.333 0 -79.3291 -31.0039 -107.996 -93.0039l-210 84c24.667 80.667 61 146.334 109 197.001s104.333 76 169 76c28.667 0 56 -3.33301 82 -10s44 -12.5 54 -17.5s26 -13.5 48 -25.5c36 -22 67.333 -33 94 -33c44.667 0 82 30 112 90l206 -68
c-15.333 -55.333 -35.333 -104.166 -60 -146.499s-55.334 -76.666 -92.001 -102.999s-76.667 -39.5 -120 -39.5c-59.333 0 -119 17 -179 51c-1.33301 0.666992 -5.66602 3 -12.999 7s-11.833 6.33301 -13.5 7s-5.83398 2.66699 -12.501 6s-11.167 5.5 -13.5 6.5
s-6.33301 2.5 -12 4.5s-10.334 3.33301 -14.001 4s-7.83398 1.33398 -12.501 2.00098s-9.33398 1 -14.001 1zM743.004 1024c35.333 0 67.833 -2.83496 97.5 -8.50195s58.167 -14.834 85.5 -27.501s51.333 -29.667 72 -51s38.667 -47.166 54 -77.499s27 -66.666 35 -108.999
s12 -90.166 12 -143.499v-607h-366v519c0 68.667 -10 116 -30 142s-53.667 39 -101 39c-45.333 0 -81 -16.167 -107 -48.5s-39 -81.5 -39 -147.5v-504h-366v1003h366v-110h2c37.333 42.667 80.5 75.167 129.5 97.5s100.833 33.5 155.5 33.5z" />
    <glyph glyph-name="ograve" unicode="&#xf2;" horiz-adv-x="1194" 
d="M479 1140l-252 313l357 -2l222 -311h-327zM597 -21c-106.667 0 -201.834 21.833 -285.501 65.5s-148.667 105.167 -195 184.5s-69.5 170 -69.5 272s23.167 192.667 69.5 272s111.333 141 195 185s178.834 66 285.501 66s201.667 -22 285 -66s148.333 -105.667 195 -185
s70 -170 70 -272s-23.333 -192.667 -70 -272s-111.667 -140.833 -195 -184.5s-178.333 -65.5 -285 -65.5zM597 302c52 0 95.335 18.833 130.002 56.5s52 85.167 52 142.5c0 58.667 -17 106.5 -51 143.5s-77.667 55.5 -131 55.5c-34.667 0 -65.834 -8.33301 -93.501 -25
s-49.334 -40.167 -65.001 -70.5s-23.5 -64.833 -23.5 -103.5c0 -57.333 17.333 -104.833 52 -142.5s78 -56.5 130 -56.5z" />
    <glyph glyph-name="oacute" unicode="&#xf3;" horiz-adv-x="1194" 
d="M438 1140l224 311l357 2l-253 -313h-328zM597 -21c-106.667 0 -201.834 21.833 -285.501 65.5s-148.667 105.167 -195 184.5s-69.5 170 -69.5 272s23.167 192.667 69.5 272s111.333 141 195 185s178.834 66 285.501 66s201.667 -22 285 -66s148.333 -105.667 195 -185
s70 -170 70 -272s-23.333 -192.667 -70 -272s-111.667 -140.833 -195 -184.5s-178.333 -65.5 -285 -65.5zM597 302c52 0 95.333 18.8369 130 56.5039s52 85.167 52 142.5c0 58.667 -17 106.5 -51 143.5s-77.667 55.5 -131 55.5c-26 0 -50.333 -4.83301 -73 -14.5
s-42 -23.334 -58 -41.001s-28.5 -38.834 -37.5 -63.501s-13.5 -51.334 -13.5 -80.001c0 -22.667 3 -44.334 9 -65.001s14.5 -39 25.5 -55s24 -30 39 -42s31.667 -21.167 50 -27.5s37.833 -9.5 58.5 -9.5z" />
    <glyph glyph-name="ocircumflex" unicode="&#xf4;" horiz-adv-x="1194" 
d="M595 1281l-74 -145h-304l217 318h316l232 -318h-307l-76 145h-4zM597 1024c106.667 0 201.667 -22 285 -66s148.333 -105.667 195 -185s70 -170 70 -272s-23.333 -192.667 -70 -272s-111.667 -140.833 -195 -184.5s-178.333 -65.5 -285 -65.5
s-201.834 21.833 -285.501 65.5s-148.667 105.167 -195 184.5s-69.5 170 -69.5 272s23.167 192.667 69.5 272s111.333 141 195 185s178.834 66 285.501 66zM597 302c52 0 95.335 18.833 130.002 56.5s52 85.167 52 142.5c0 58.667 -17 106.5 -51 143.5
s-77.667 55.5 -131 55.5c-34.667 0 -65.834 -8.33301 -93.501 -25s-49.334 -40.167 -65.001 -70.5s-23.5 -64.833 -23.5 -103.5c0 -57.333 17.333 -104.833 52 -142.5s78 -56.5 130 -56.5z" />
    <glyph glyph-name="otilde" unicode="&#xf5;" horiz-adv-x="1194" 
d="M389 1117l-209.997 83.998c24.667 80.667 61 146.334 109 197.001s104.333 76 169 76c28.667 0 56 -3.33301 82 -10s44 -12.5 54 -17.5s26 -13.5 48 -25.5c36 -22 67.333 -33 94 -33c44.667 0 82 30 112 90l206 -68c-23.333 -85.333 -58.5 -154.833 -105.5 -208.5
s-102.5 -80.5 -166.5 -80.5c-59.333 0 -119 17 -179 51c-1.33301 0.666992 -5.66602 3 -12.999 7s-11.833 6.33301 -13.5 7s-5.83398 2.66699 -12.501 6s-11.167 5.5 -13.5 6.5s-6.33301 2.5 -12 4.5s-10.334 3.33301 -14.001 4s-7.83398 1.33398 -12.501 2.00098
s-9.33398 1 -14.001 1c-43.333 0 -79.333 -31 -108 -93zM597.003 -21.002c-106.667 0 -201.834 21.833 -285.501 65.5s-148.667 105.167 -195 184.5s-69.5 170 -69.5 272s23.167 192.667 69.5 272s111.333 141 195 185s178.834 66 285.501 66s201.667 -22 285 -66
s148.333 -105.667 195 -185s70 -170 70 -272s-23.333 -192.667 -70 -272s-111.667 -140.833 -195 -184.5s-178.333 -65.5 -285 -65.5zM597.003 301.998c52 0 95.335 18.833 130.002 56.5s52 85.167 52 142.5c0 58.667 -17 106.5 -51 143.5s-77.667 55.5 -131 55.5
c-34.667 0 -65.834 -8.33301 -93.501 -25s-49.334 -40.167 -65.001 -70.5s-23.5 -64.833 -23.5 -103.5c0 -57.333 17.333 -104.833 52 -142.5s78 -56.5 130 -56.5z" />
    <glyph glyph-name="odieresis" unicode="&#xf6;" horiz-adv-x="1194" 
d="M354 1117c-61.333 0 -111.667 18.8311 -151 56.498s-59 84.834 -59 141.501c0 36 8.83301 68.833 26.5 98.5s42.667 53.167 75 70.5s68.5 26 108.5 26c61.333 0 111.666 -18.5 150.999 -55.5s59 -83.5 59 -139.5c0 -57.333 -19.667 -104.666 -59 -141.999
s-89.666 -56 -150.999 -56zM836.999 1117c-61.333 0 -111.667 18.8311 -151 56.498s-59 84.834 -59 141.501c0 36 8.83301 68.833 26.5 98.5s42.667 53.167 75 70.5s68.5 26 108.5 26c61.333 0 111.666 -18.5 150.999 -55.5s59 -83.5 59 -139.5
c0 -57.333 -19.667 -104.666 -59 -141.999s-89.666 -56 -150.999 -56zM596.998 -21.0039c-106.667 0 -201.834 21.833 -285.501 65.5s-148.667 105.167 -195 184.5s-69.5 170 -69.5 272s23.167 192.667 69.5 272s111.333 141 195 185s178.834 66 285.501 66
s201.667 -22 285 -66s148.333 -105.667 195 -185s70 -170 70 -272s-23.333 -192.667 -70 -272s-111.667 -140.833 -195 -184.5s-178.333 -65.5 -285 -65.5zM596.998 301.996c52 0 95.335 18.833 130.002 56.5s52 85.167 52 142.5c0 58.667 -17 106.5 -51 143.5
s-77.667 55.5 -131 55.5c-34.667 0 -65.834 -8.33301 -93.501 -25s-49.334 -40.167 -65.001 -70.5s-23.5 -64.833 -23.5 -103.5c0 -57.333 17.333 -104.833 52 -142.5s78 -56.5 130 -56.5z" />
    <glyph glyph-name="divide" unicode="&#xf7;" horiz-adv-x="1133" 
d="M560 801c-55.333 0 -100.833 17.168 -136.5 51.501s-53.5 76.833 -53.5 127.5c0 50 18 92 54 126s81.333 51 136 51c55.333 0 100.833 -16.833 136.5 -50.5s53.5 -75.834 53.5 -126.501c0 -52 -17.833 -94.833 -53.5 -128.5s-81.167 -50.5 -136.5 -50.5zM76 419.001v298
h982v-298h-982zM560 -21.999c-36.667 0 -69.5 7.83301 -98.5 23.5s-51.5 37.167 -67.5 64.5s-24 57.666 -24 90.999c0 50 18 92 54 126s81.333 51 136 51c36.667 0 69.5 -7.66699 98.5 -23s51.5 -36.5 67.5 -63.5s24 -57.167 24 -90.5c0 -34 -8 -64.667 -24 -92
s-38.5 -48.666 -67.5 -63.999s-61.833 -23 -98.5 -23z" />
    <glyph glyph-name="oslash" unicode="&#xf8;" horiz-adv-x="1194" 
d="M1017 854c86.667 -94 129.999 -211.667 129.999 -353c0 -102 -23.333 -192.667 -70 -272s-111.667 -140.833 -195 -184.5s-178.333 -65.5 -285 -65.5c-116.667 0 -220 26.667 -310 80l-105 -114l-117 108l100 109c-78.667 92 -118 205 -118 339
c0 102 23.167 192.667 69.5 272s111.333 141 195 185s178.834 66 285.501 66c112 0 210.333 -24 295 -72l94 103l117 -108zM414.999 501c0 -18.667 2.33496 -38.333 7.00195 -59l230 250c-18 5.33301 -36.333 8 -55 8c-34.667 0 -65.834 -8.33301 -93.501 -25
s-49.334 -40.167 -65.001 -70.5s-23.5 -64.833 -23.5 -103.5zM597.001 302.001c34 0 64.833 8.5 92.5 25.5s49.5 40.667 65.5 71s24 64.5 24 102.5c0 26.667 -4.33301 53 -13 79l-242 -263c22 -10 46.333 -15 73 -15z" />
    <glyph glyph-name="ugrave" unicode="&#xf9;" horiz-adv-x="1160" 
d="M784 1141h-327l-252 313l357 -2zM708 1003l367 -0.000976562v-1003h-367v107h-4c-22.667 -28 -48.5 -51.667 -77.5 -71s-59.833 -33.666 -92.5 -42.999s-67 -14 -103 -14c-236.667 0 -355 145.667 -355 437v587h365v-499c0 -71.333 10.167 -122.833 30.5 -154.5
s53.833 -47.5 100.5 -47.5c40.667 0 73.5 16.5 98.5 49.5s37.5 82.167 37.5 147.5v504z" />
    <glyph glyph-name="uacute" unicode="&#xfa;" horiz-adv-x="1160" 
d="M982 1453l-253 -313h-328l224 311zM708 1003h367v-1003h-367v107h-4c-34 -42 -74.5 -73.833 -121.5 -95.5s-97.5 -32.5 -151.5 -32.5c-236.667 0 -355 145.667 -355 437v587h365v-499c0 -71.333 10.167 -122.833 30.5 -154.5s53.833 -47.5 100.5 -47.5
c40.667 0 73.5 16.5 98.5 49.5s37.5 82.167 37.5 147.5v504z" />
    <glyph glyph-name="ucircumflex" unicode="&#xfb;" horiz-adv-x="1160" 
d="M579 1281l-74 -145h-304l217 318h316l232 -318h-307l-76 145h-4zM708 1003h367v-1003h-367v107h-4c-34 -42 -74.5 -73.833 -121.5 -95.5s-97.5 -32.5 -151.5 -32.5c-236.667 0 -355 145.667 -355 437v587h365v-499c0 -71.333 10.167 -122.833 30.5 -154.5
s53.833 -47.5 100.5 -47.5c40.667 0 73.5 16.5 98.5 49.5s37.5 82.167 37.5 147.5v504z" />
    <glyph glyph-name="udieresis" unicode="&#xfc;" horiz-adv-x="1160" 
d="M338 1117c-40 0 -76.168 8.66699 -108.501 26s-57.333 41 -75 71s-26.5 63.667 -26.5 101c0 55.333 19.833 101.666 59.5 138.999s89.834 56 150.501 56c61.333 0 111.666 -18.5 150.999 -55.5s59 -83.5 59 -139.5c0 -57.333 -19.667 -104.666 -59 -141.999
s-89.666 -56 -150.999 -56zM820.999 1117c-61.333 0 -111.668 18.832 -151.001 56.499s-59 84.834 -59 141.501c0 55.333 19.833 101.666 59.5 138.999s89.834 56 150.501 56c61.333 0 111.666 -18.5 150.999 -55.5s59 -83.5 59 -139.5
c0 -57.333 -19.667 -104.666 -59 -141.999s-89.666 -56 -150.999 -56zM707.997 1003l367 -0.000976562v-1003h-367v107h-4c-22.667 -28 -48.5 -51.667 -77.5 -71s-59.833 -33.666 -92.5 -42.999s-67 -14 -103 -14c-236.667 0 -355 145.667 -355 437v587h365v-499
c0 -71.333 10.167 -122.833 30.5 -154.5s53.833 -47.5 100.5 -47.5c40.667 0 73.5 16.5 98.5 49.5s37.5 82.167 37.5 147.5v504z" />
    <glyph glyph-name="yacute" unicode="&#xfd;" horiz-adv-x="1100" 
d="M955 1453l-253 -313h-328l224 311zM719 1003h373l-515 -1408h-355l170 479l-384 929h377l170 -475h4z" />
    <glyph glyph-name="thorn" unicode="&#xfe;" horiz-adv-x="1220" 
d="M729 1024c50 0 97.501 -8.16602 142.501 -24.499s85.667 -40 122 -71s68 -67.5 95 -109.5s47.833 -90.167 62.5 -144.5s22 -111.833 22 -172.5c0 -102 -19.667 -192.833 -59 -272.5s-94.333 -141.334 -165 -185.001s-151.334 -65.5 -242.001 -65.5
c-102.667 0 -185.667 36 -249 108h-3v-492h-365v1913h367v-606h3c70 81.333 159.667 122 269 122zM626.001 299.001c52 0 94.667 18.5 128 55.5s50 85.833 50 146.5c0 59.333 -16.667 107.666 -50 144.999s-76 56 -128 56c-54 0 -98.333 -18.667 -133 -56
s-52 -85.666 -52 -144.999c0 -60.667 17.333 -109.5 52 -146.5s79 -55.5 133 -55.5z" />
    <glyph glyph-name="ydieresis" unicode="&#xff;" horiz-adv-x="1100" 
d="M310 1117c-61.333 0 -111.667 18.8311 -151 56.498s-59 84.834 -59 141.501c0 36 8.83301 68.833 26.5 98.5s42.667 53.167 75 70.5s68.5 26 108.5 26c61.333 0 111.666 -18.5 150.999 -55.5s59 -83.5 59 -139.5c0 -57.333 -19.667 -104.666 -59 -141.999
s-89.666 -56 -150.999 -56zM792.999 1117c-61.333 0 -111.667 18.8311 -151 56.498s-59 84.834 -59 141.501c0 36 8.83301 68.833 26.5 98.5s42.667 53.167 75 70.5s68.5 26 108.5 26c61.333 0 111.666 -18.5 150.999 -55.5s59 -83.5 59 -139.5
c0 -57.333 -19.667 -104.666 -59 -141.999s-89.666 -56 -150.999 -56zM718.998 1003h373l-515 -1408h-355l170 479l-384 929h377l170 -475h4z" />
    <glyph glyph-name="Amacron" unicode="&#x100;" horiz-adv-x="1420" 
d="M1039 1905v-270h-656v270h656zM1017 0l-73 235h-467l-73 -235h-408l528 1455h372l528 -1455h-407zM578 562h264l-130 418h-4z" />
    <glyph glyph-name="amacron" unicode="&#x101;" horiz-adv-x="1204" 
d="M923 1454v-270h-656v270h656zM751 1003l366.999 0.00195312v-1003h-347v94h-3c-60 -76.667 -146 -115 -258 -115c-68 0 -130.833 12.833 -188.5 38.5s-106.834 61.167 -147.501 106.5s-72.5 100.5 -95.5 165.5s-34.5 135.833 -34.5 212.5
c0 75.333 11.333 145.666 34 210.999s53.834 120.666 93.501 165.999s86.834 80.833 141.501 106.5s113 38.5 175 38.5c104 0 190.667 -40 260 -120h3v99zM590.999 299.002c50 0 91.833 18.665 125.5 55.998s50.5 86 50.5 146c0 58.667 -16.833 106.834 -50.5 144.501
s-75.5 56.5 -125.5 56.5c-52 0 -94.667 -18.667 -128 -56s-50 -85.666 -50 -144.999c0 -60.667 16.667 -109.5 50 -146.5s76 -55.5 128 -55.5z" />
    <glyph glyph-name="Abreve" unicode="&#x102;" horiz-adv-x="1420" 
d="M711 1576c-64 0 -122.668 12.3311 -176.001 36.998s-97.666 62.334 -132.999 113.001s-55.666 110.334 -60.999 179.001h260c1.33301 -14 4.66602 -27.167 9.99902 -39.5s12.5 -23.333 21.5 -33s20.333 -17.167 34 -22.5s28.5 -8 44.5 -8c30 0 55.167 9 75.5 27
s31.5 43.333 33.5 76h261c-4 -45.333 -15.167 -87.833 -33.5 -127.5s-42.833 -74.5 -73.5 -104.5s-68.667 -53.667 -114 -71s-95 -26 -149 -26zM1017 -0.00195312l-73 235h-467l-73 -235h-408l528 1455h372l528 -1455h-407zM577.999 561.998h264l-130 418h-4z" />
    <glyph glyph-name="abreve" unicode="&#x103;" horiz-adv-x="1204" 
d="M595 1125c-64 0 -122.669 12.3311 -176.002 36.998s-97.666 62.334 -132.999 113.001s-55.666 110.334 -60.999 179.001h260c2.66699 -29.333 13.667 -53.833 33 -73.5s45 -29.5 77 -29.5c30 0 55.167 9 75.5 27s31.5 43.333 33.5 76h261
c-4 -45.333 -15.167 -87.833 -33.5 -127.5s-42.833 -74.5 -73.5 -104.5s-68.667 -53.667 -114 -71s-95 -26 -149 -26zM750.998 1003l366.999 0.00195312v-1003h-347v94h-3c-60 -76.667 -146 -115 -258 -115c-68 0 -130.833 12.833 -188.5 38.5
s-106.834 61.167 -147.501 106.5s-72.5 100.5 -95.5 165.5s-34.5 135.833 -34.5 212.5c0 75.333 11.333 145.666 34 210.999s53.834 120.666 93.501 165.999s86.834 80.833 141.501 106.5s113 38.5 175 38.5c104 0 190.667 -40 260 -120h3v99zM590.997 299
c50 0 91.833 18.6641 125.5 55.9971s50.5 86 50.5 146c0 58.667 -16.833 106.834 -50.5 144.501s-75.5 56.5 -125.5 56.5c-52 0 -94.667 -18.667 -128 -56s-50 -85.666 -50 -144.999c0 -30 4.5 -57.667 13.5 -83s21.333 -46.666 37 -63.999s34.5 -30.833 56.5 -40.5
s45.667 -14.5 71 -14.5z" />
    <glyph glyph-name="Aogonek" unicode="&#x104;" horiz-adv-x="1420" 
d="M1358 0c-60 0 -108.668 -13.8301 -146.001 -41.4971s-56 -58.834 -56 -93.501c0 -25.333 6.66699 -44.833 20 -58.5s31.333 -20.5 54 -20.5c12 0 22.333 0.5 31 1.5s16.834 2.5 24.501 4.5s12.834 3.33301 15.501 4l14 -168c-36.667 -15.333 -89 -23 -157 -23
c-78.667 0 -141.334 18.833 -188.001 56.5s-70 85.5 -70 143.5c0 35.333 9.5 71.166 28.5 107.499s47.833 67.166 86.5 92.499l-71 230h-467l-73 -235h-408l528 1455h372l528 -1455h-66zM577.999 562.003h264l-130 418h-4z" />
    <glyph glyph-name="aogonek" unicode="&#x105;" horiz-adv-x="1204" 
d="M751 1003l366.997 0.00390625v-1003h-21c-60 0 -108.667 -13.833 -146 -41.5s-56 -58.834 -56 -93.501c0 -25.333 6.66699 -44.833 20 -58.5s31.333 -20.5 54 -20.5c12 0 22.333 0.5 31 1.5s16.834 2.5 24.501 4.5s12.834 3.33301 15.501 4l14 -168
c-36.667 -15.333 -89 -23 -157 -23c-78.667 0 -141.334 18.833 -188.001 56.5s-70 85.5 -70 143.5c0 38 10.833 76.167 32.5 114.5s54.834 70.166 99.501 95.499v79h-3c-60 -76.667 -146 -115 -258 -115c-68 0 -130.833 12.833 -188.5 38.5s-106.834 61.167 -147.501 106.5
s-72.5 100.5 -95.5 165.5s-34.5 135.833 -34.5 212.5c0 75.333 11.333 145.666 34 210.999s53.834 120.666 93.501 165.999s86.834 80.833 141.501 106.5s113 38.5 175 38.5c104 0 190.667 -40 260 -120h3v99zM590.997 299.004c50 0 91.8311 18.6641 125.498 55.9971
s50.5 86 50.5 146c0 58.667 -16.833 106.834 -50.5 144.501s-75.5 56.5 -125.5 56.5c-52 0 -94.667 -18.667 -128 -56s-50 -85.666 -50 -144.999c0 -24 2.83301 -46.667 8.5 -68s13.834 -40.166 24.501 -56.499s23.334 -30.333 38.001 -42s31 -20.5 49 -26.5
s37.333 -9 58 -9z" />
    <glyph glyph-name="Cacute" unicode="&#x106;" horiz-adv-x="1446" 
d="M636 1591l224 311l357 2l-253 -313h-328zM821 -21c-81.333 0 -159.495 10.168 -234.495 30.501s-144.333 51.166 -208 92.499s-119 91.166 -166 149.499s-83.833 128 -110.5 209s-40 168.833 -40 263.5c0 69.333 7.66699 136 23 200s37.333 123.833 66 179.5
s65 106.334 109 152.001s93.5 84.834 148.5 117.501s117.667 58 188 76s145.166 27 224.499 27c106 0 211.833 -23.333 317.5 -70s197.5 -117 275.5 -211l-285 -244c-16.667 18.667 -35.167 36.167 -55.5 52.5s-43.5 32.166 -69.5 47.499s-54.833 27.5 -86.5 36.5
s-63.834 13.5 -96.501 13.5c-36 0 -71 -5 -105 -15s-65.833 -25.5 -95.5 -46.5s-55.5 -46.333 -77.5 -76s-39.333 -65 -52 -106s-19 -85.5 -19 -133.5c0 -49.333 8 -96.333 24 -141s38.667 -84 68 -118s66.166 -61 110.499 -81s93.166 -30 146.499 -30
c56.667 0 113.167 13.667 169.5 41s102.5 63 138.5 107l285 -245c-67.333 -82.667 -152.333 -149.667 -255 -201s-215.334 -77 -338.001 -77z" />
    <glyph glyph-name="cacute" unicode="&#x107;" horiz-adv-x="1059" 
d="M421 1140l224 311l357 2l-253 -313h-328zM573 -21c-99.333 0 -188.999 21.832 -268.999 65.499s-142.833 105.334 -188.5 185.001s-68.5 170.167 -68.5 271.5c0 102 23.167 192.667 69.5 272s111.333 141 195 185s178.834 66 285.501 66
c86 0 168.167 -17.833 246.5 -53.5s142.166 -86.834 191.499 -153.501l-243 -207c-50.667 60 -112.667 90 -186 90c-28 0 -54 -4.83301 -78 -14.5s-44.167 -23.167 -60.5 -40.5s-29.166 -38.166 -38.499 -62.499s-14 -50.5 -14 -78.5c0 -58.667 18.167 -106.667 54.5 -144
s83.166 -56 140.499 -56c73.333 0 133.666 27.333 180.999 82l249 -217c-46 -56.667 -109.167 -102.5 -189.5 -137.5s-172.833 -52.5 -277.5 -52.5z" />
    <glyph glyph-name="Ccircumflex" unicode="&#x108;" horiz-adv-x="1446" 
d="M817 1731l-74 -145h-304l217 318h316l232 -318h-307l-76 145h-4zM821 354c38 0 76.3379 6.33398 115.005 19.001s74.667 30.167 108 52.5s61.666 47.833 84.999 76.5l285 -245c-67.333 -82.667 -152.333 -149.667 -255 -201s-215.334 -77 -338.001 -77
c-81.333 0 -159.5 10.167 -234.5 30.5s-144.333 51.166 -208 92.499s-119 91.166 -166 149.499s-83.833 128 -110.5 209s-40 168.833 -40 263.5c0 69.333 7.66699 136 23 200s37.333 123.833 66 179.5s65 106.334 109 152.001s93.5 84.834 148.5 117.501s117.667 58 188 76
s145.166 27 224.499 27c106 0 211.833 -23.333 317.5 -70s197.5 -117 275.5 -211l-285 -244c-13.333 14.667 -27.5 28.667 -42.5 42s-32.667 26.666 -53 39.999s-41.333 25 -63 35s-45.5 18 -71.5 24s-52 9 -78 9c-36 0 -71 -5 -105 -15s-65.833 -25.5 -95.5 -46.5
s-55.5 -46.333 -77.5 -76s-39.333 -65 -52 -106s-19 -85.5 -19 -133.5c0 -49.333 8 -96.333 24 -141s38.667 -84 68 -118s66.166 -61 110.499 -81s93.166 -30 146.499 -30z" />
    <glyph glyph-name="ccircumflex" unicode="&#x109;" horiz-adv-x="1059" 
d="M582 1281l-74 -145h-304l217 318h316l232 -318h-307l-76 145h-4zM791 386l249.002 -217c-46 -56.667 -109.167 -102.5 -189.5 -137.5s-172.833 -52.5 -277.5 -52.5c-99.333 0 -189 21.833 -269 65.5s-142.833 105.334 -188.5 185.001s-68.5 170.167 -68.5 271.5
c0 102 23.167 192.667 69.5 272s111.333 141 195 185s178.834 66 285.501 66c86 0 168.167 -17.833 246.5 -53.5s142.166 -86.834 191.499 -153.501l-243 -207c-50.667 60 -112.667 90 -186 90c-57.333 0 -103.5 -18.333 -138.5 -55s-52.5 -83.667 -52.5 -141
c0 -58.667 18.167 -106.667 54.5 -144s83.166 -56 140.499 -56c73.333 0 133.666 27.333 180.999 82z" />
    <glyph glyph-name="Cdotaccent" unicode="&#x10a;" horiz-adv-x="1446" 
d="M821 1567c-61.333 0 -111.668 18.832 -151.001 56.499s-59 84.834 -59 141.501c0 55.333 19.833 101.666 59.5 138.999s89.834 56 150.501 56c61.333 0 111.666 -18.5 150.999 -55.5s59 -83.5 59 -139.5c0 -57.333 -19.667 -104.666 -59 -141.999
s-89.666 -56 -150.999 -56zM820.998 -21.001c-68 0 -133.662 7.33105 -196.995 21.998s-123.166 35.834 -179.499 63.501s-108 62.834 -155 105.501s-87.333 91 -121 145s-59.834 115.833 -78.501 185.5s-28 144.167 -28 223.5c0 69.333 7.66699 136 23 200
s37.333 123.833 66 179.5s65 106.334 109 152.001s93.5 84.834 148.5 117.501s117.667 58 188 76s145.166 27 224.499 27c106 0 211.833 -23.333 317.5 -70s197.5 -117 275.5 -211l-285 -244c-16.667 18.667 -35.167 36.167 -55.5 52.5s-43.5 32.166 -69.5 47.499
s-54.833 27.5 -86.5 36.5s-63.834 13.5 -96.501 13.5c-36 0 -71 -5.16699 -105 -15.5s-65.833 -25.833 -95.5 -46.5s-55.5 -45.834 -77.5 -75.501s-39.333 -65 -52 -106s-19 -85.5 -19 -133.5c0 -49.333 8 -96.333 24 -141s38.667 -84 68 -118s66.166 -61 110.499 -81
s93.166 -30 146.499 -30c56.667 0 113.167 13.667 169.5 41s102.5 63 138.5 107l285 -245c-67.333 -82.667 -152.333 -149.667 -255 -201s-215.334 -77 -338.001 -77z" />
    <glyph glyph-name="cdotaccent" unicode="&#x10b;" horiz-adv-x="1059" 
d="M586 1117c-61.333 0 -111.667 18.8311 -151 56.498s-59 84.834 -59 141.501c0 36 8.83301 68.833 26.5 98.5s42.667 53.167 75 70.5s68.5 26 108.5 26c61.333 0 111.666 -18.5 150.999 -55.5s59 -83.5 59 -139.5c0 -57.333 -19.667 -104.666 -59 -141.999
s-89.666 -56 -150.999 -56zM572.999 -21.002c-99.333 0 -188.999 21.832 -268.999 65.499s-142.833 105.334 -188.5 185.001s-68.5 170.167 -68.5 271.5c0 102 23.167 192.667 69.5 272s111.333 141 195 185s178.834 66 285.501 66c86 0 168.167 -17.833 246.5 -53.5
s142.166 -86.834 191.499 -153.501l-243 -207c-50.667 60 -112.667 90 -186 90c-28 0 -54 -4.83301 -78 -14.5s-44.167 -23.167 -60.5 -40.5s-29.166 -38.166 -38.499 -62.499s-14 -50.5 -14 -78.5c0 -58.667 18.167 -106.667 54.5 -144s83.166 -56 140.499 -56
c73.333 0 133.666 27.333 180.999 82l249 -217c-46 -56.667 -109.167 -102.5 -189.5 -137.5s-172.833 -52.5 -277.5 -52.5z" />
    <glyph glyph-name="Ccaron" unicode="&#x10c;" horiz-adv-x="1446" 
d="M986 1586h-315l-232 318h307l75 -146h4l76 146h303zM821 354c56.667 0 113.172 13.668 169.505 41.001s102.5 63 138.5 107l285 -245c-67.333 -82.667 -152.333 -149.667 -255 -201s-215.334 -77 -338.001 -77c-81.333 0 -159.5 10.167 -234.5 30.5
s-144.333 51.166 -208 92.499s-119 91.166 -166 149.499s-83.833 128 -110.5 209s-40 168.833 -40 263.5c0 69.333 7.66699 136 23 200s37.333 123.833 66 179.5s65 106.334 109 152.001s93.5 84.834 148.5 117.501s117.667 58 188 76s145.166 27 224.499 27
c106 0 211.833 -23.333 317.5 -70s197.5 -117 275.5 -211l-285 -244c-16.667 18.667 -35.167 36.167 -55.5 52.5s-43.5 32.166 -69.5 47.499s-54.833 27.5 -86.5 36.5s-63.834 13.5 -96.501 13.5c-36 0 -71 -5 -105 -15s-65.833 -25.5 -95.5 -46.5s-55.5 -46.333 -77.5 -76
s-39.333 -65 -52 -106s-19 -85.5 -19 -133.5c0 -49.333 8 -96.333 24 -141s38.667 -84 68 -118s66.166 -61 110.499 -81s93.166 -30 146.499 -30z" />
    <glyph glyph-name="ccaron" unicode="&#x10d;" horiz-adv-x="1059" 
d="M751 1136h-315l-232 318h307l75 -146h4l76 146h303zM791 386l249.002 -217c-46 -56.667 -109.167 -102.5 -189.5 -137.5s-172.833 -52.5 -277.5 -52.5c-99.333 0 -189 21.833 -269 65.5s-142.833 105.334 -188.5 185.001s-68.5 170.167 -68.5 271.5
c0 102 23.167 192.667 69.5 272s111.333 141 195 185s178.834 66 285.501 66c86 0 168.167 -17.833 246.5 -53.5s142.166 -86.834 191.499 -153.501l-243 -207c-50.667 60 -112.667 90 -186 90c-57.333 0 -103.5 -18.333 -138.5 -55s-52.5 -83.667 -52.5 -141
c0 -58.667 18.167 -106.667 54.5 -144s83.166 -56 140.499 -56c73.333 0 133.666 27.333 180.999 82z" />
    <glyph glyph-name="Dcaron" unicode="&#x10e;" horiz-adv-x="1448" 
d="M839 1583h-315l-232 318h307l75 -146h4l76 146h303zM632 1455c113.333 0 217.166 -18 311.499 -54s174 -85.833 239 -149.5s115.333 -140.667 151 -231s53.5 -188.833 53.5 -295.5s-17 -204.5 -51 -293.5s-82.667 -165.5 -146 -229.5s-142.166 -113.667 -236.499 -149
s-199.5 -53 -315.5 -53h-530v1455h524zM613 346c72 0 136 17.001 192 51.001s99 79.667 129 137s45 121 45 191c0 53.333 -8.83301 103.666 -26.5 150.999s-41.5 88 -71.5 122s-66 60.833 -108 80.5s-86.333 29.5 -133 29.5h-154v-762h127z" />
    <glyph glyph-name="dcaron" unicode="&#x10f;" horiz-adv-x="1340" 
d="M1290 1637h342l-158 -464h-254zM761 903l-0.000976562 605.002h367v-1508h-347v94h-4c-62 -76.667 -150.667 -115 -266 -115c-68 0 -130.833 12.833 -188.5 38.5s-106.834 61.167 -147.501 106.5s-72.5 100.5 -95.5 165.5s-34.5 135.833 -34.5 212.5
c0 75.333 11.333 145.666 34 210.999s53.834 120.666 93.501 165.999s86.834 80.833 141.501 106.5s113 38.5 175 38.5c108 0 197.667 -40.333 269 -121h3zM591.999 299.002c54 0 98.333 18.5 133 55.5s52 85.833 52 146.5c0 59.333 -17.333 107.666 -52 144.999
s-79 56 -133 56c-52 0 -94.667 -18.667 -128 -56s-50 -85.666 -50 -144.999c0 -60.667 16.667 -109.5 50 -146.5s76 -55.5 128 -55.5z" />
    <glyph glyph-name="Dcroat" unicode="&#x110;" horiz-adv-x="1448" 
d="M632 1455c113.333 0 217.166 -18 311.499 -54s174 -85.833 239 -149.5s115.333 -140.667 151 -231s53.5 -188.833 53.5 -295.5s-17 -204.5 -51 -293.5s-82.667 -165.5 -146 -229.5s-142.166 -113.667 -236.499 -149s-199.5 -53 -315.5 -53h-530v547h-88v325h88v583h524z
M613 346c72 0 136 17 192 51s99 79.667 129 137s45 121 45 191c0 71.333 -14.833 136.333 -44.5 195s-70.5 104.667 -122.5 138s-109.333 50 -172 50h-154v-236h166v-325h-166v-201h127z" />
    <glyph glyph-name="dcroat" unicode="&#x111;" horiz-adv-x="1222" 
d="M1234 1305l-0.000976562 -206.998h-106v-1098h-347v94h-4c-62 -76.667 -150.667 -115 -266 -115c-68 0 -130.833 12.833 -188.5 38.5s-106.834 61.167 -147.501 106.5s-72.5 100.5 -95.5 165.5s-34.5 135.833 -34.5 212.5c0 75.333 11.333 145.666 34 210.999
s53.834 120.666 93.501 165.999s86.834 80.833 141.501 106.5s113 38.5 175 38.5c108 0 197.667 -40.333 269 -121h3v195h-155v207h155v203h367v-203h106zM591.999 299.002c54 0 98.333 18.499 133 55.499s52 85.833 52 146.5c0 59.333 -17.333 107.666 -52 144.999
s-79 56 -133 56c-52 0 -94.667 -18.667 -128 -56s-50 -85.666 -50 -144.999c0 -30 4.5 -57.667 13.5 -83s21.333 -46.666 37 -63.999s34.5 -30.833 56.5 -40.5s45.667 -14.5 71 -14.5z" />
    <glyph glyph-name="Emacron" unicode="&#x112;" horiz-adv-x="1176" 
d="M263 1631v270h656v-270h-656zM106 0v1455h967v-347h-590v-219h462v-338h-462v-205h633v-346h-1010z" />
    <glyph glyph-name="emacron" unicode="&#x113;" horiz-adv-x="1116" 
d="M911 1454v-270h-656v270h656zM1072 509c0 -38 -3.33105 -70.3301 -9.99805 -96.9971h-658c8 -46.667 30.833 -82.334 68.5 -107.001s84.167 -37 139.5 -37c83.333 0 160.333 37 231 111l189 -208c-45.333 -56.667 -107.833 -102.834 -187.5 -138.501
s-170.167 -53.5 -271.5 -53.5c-99.333 0 -189 21.833 -269 65.5s-142.833 105.5 -188.5 185.5s-68.5 170.667 -68.5 272c0 100 22.167 189.667 66.5 269s106.166 141.333 185.499 186s168.666 67 267.999 67c71.333 0 138.333 -12.833 201 -38.5
s116.167 -60.834 160.5 -105.501s79.333 -99.167 105 -163.5s38.5 -133.5 38.5 -207.5zM565.002 745.003c-40.667 0 -75.5 -11.835 -104.5 -35.502s-47.5 -56.5 -55.5 -98.5h312c-4.66699 20.667 -11.5 39.334 -20.5 56.001s-19.833 30.834 -32.5 42.501
s-27.5 20.5 -44.5 26.5s-35.167 9 -54.5 9z" />
    <glyph glyph-name="Ebreve" unicode="&#x114;" horiz-adv-x="1176" 
d="M591 1572c-64 0 -122.668 12.3311 -176.001 36.998s-97.666 62.334 -132.999 113.001s-55.666 110.334 -60.999 179.001h260c2 -19.333 7.33301 -36.666 16 -51.999s21.167 -27.666 37.5 -36.999s35.166 -14 56.499 -14c14.667 0 28.167 2.16699 40.5 6.5
s23.5 10.666 33.5 18.999s18.167 19.166 24.5 32.499s9.83301 28.333 10.5 45h261c-4 -45.333 -15.167 -87.833 -33.5 -127.5s-42.833 -74.5 -73.5 -104.5s-68.667 -53.667 -114 -71s-95 -26 -149 -26zM105.999 -0.00195312v1455h967v-347h-590v-219h462v-338h-462v-205h633
v-346h-1010z" />
    <glyph glyph-name="ebreve" unicode="&#x115;" horiz-adv-x="1116" 
d="M582 1125c-64 0 -122.672 12.332 -176.005 36.999s-97.666 62.334 -132.999 113.001s-55.666 110.334 -60.999 179.001h260c2.66699 -29.333 13.667 -53.833 33 -73.5s45 -29.5 77 -29.5c30 0 55.167 9 75.5 27s31.5 43.333 33.5 76h261
c-3.33301 -36 -11 -70.333 -23 -103s-28.667 -62.834 -50 -90.501s-46.166 -51.5 -74.499 -71.5s-61.666 -35.667 -99.999 -47s-79.166 -17 -122.499 -17zM1072 508.999c0 -38 -3.33203 -70.3301 -9.99902 -96.9971h-658c8 -46.667 30.833 -82.334 68.5 -107.001
s84.167 -37 139.5 -37c83.333 0 160.333 37 231 111l189 -208c-46 -56.667 -108.667 -102.834 -188 -138.501s-169.666 -53.5 -270.999 -53.5c-99.333 0 -189 21.833 -269 65.5s-142.833 105.5 -188.5 185.5s-68.5 170.667 -68.5 272c0 100 22.167 189.667 66.5 269
s106.166 141.333 185.499 186s168.666 67 267.999 67c71.333 0 138.333 -12.833 201 -38.5s116.167 -60.834 160.5 -105.501s79.333 -99.167 105 -163.5s38.5 -133.5 38.5 -207.5zM564.996 745.002c-40.667 0 -75.502 -11.833 -104.502 -35.5s-47.5 -56.5 -55.5 -98.5h312
c-9.33301 42 -27.166 74.833 -53.499 98.5s-59.166 35.5 -98.499 35.5z" />
    <glyph glyph-name="Edotaccent" unicode="&#x116;" horiz-adv-x="1176" 
d="M591 1564c-61.333 0 -111.666 18.832 -150.999 56.499s-59 84.834 -59 141.501c0 26.667 5.16699 52 15.5 76s24.666 44.833 42.999 62.5s40.666 31.5 66.999 41.5s54.5 15 84.5 15c40 0 76.167 -8.5 108.5 -25.5s57.333 -40.333 75 -70s26.5 -62.834 26.5 -99.501
c0 -57.333 -19.667 -104.666 -59 -141.999s-89.666 -56 -150.999 -56zM106 -0.000976562v1455h967v-347h-590v-219h462v-338h-462v-205h633v-346h-1010z" />
    <glyph glyph-name="edotaccent" unicode="&#x117;" horiz-adv-x="1116" 
d="M582 1117c-61.333 0 -111.668 18.832 -151.001 56.499s-59 84.834 -59 141.501c0 55.333 19.833 101.666 59.5 138.999s89.834 56 150.501 56c61.333 0 111.666 -18.5 150.999 -55.5s59 -83.5 59 -139.5c0 -57.333 -19.667 -104.666 -59 -141.999
s-89.666 -56 -150.999 -56zM1072 508.999c0 -38 -3.33105 -70.3301 -9.99805 -96.9971h-658c8 -46.667 30.833 -82.334 68.5 -107.001s84.167 -37 139.5 -37c83.333 0 160.333 37 231 111l189 -208c-45.333 -56.667 -107.833 -102.834 -187.5 -138.501
s-170.167 -53.5 -271.5 -53.5c-99.333 0 -189 21.833 -269 65.5s-142.833 105.5 -188.5 185.5s-68.5 170.667 -68.5 272c0 100 22.167 189.667 66.5 269s106.166 141.333 185.499 186s168.666 67 267.999 67c71.333 0 138.333 -12.833 201 -38.5
s116.167 -60.834 160.5 -105.501s79.333 -99.167 105 -163.5s38.5 -133.5 38.5 -207.5zM565 745.002c-40.667 0 -75.5 -11.835 -104.5 -35.502s-47.5 -56.5 -55.5 -98.5h312c-4.66699 20.667 -11.5 39.334 -20.5 56.001s-19.833 30.834 -32.5 42.501s-27.5 20.5 -44.5 26.5
s-35.167 9 -54.5 9z" />
    <glyph glyph-name="Eogonek" unicode="&#x118;" horiz-adv-x="1176" 
d="M1116 0c-60 0 -108.668 -13.832 -146.001 -41.499s-56 -58.834 -56 -93.501c0 -25.333 6.66699 -44.833 20 -58.5s31.333 -20.5 54 -20.5c12 0 22.333 0.5 31 1.5s16.834 2.5 24.501 4.5s12.834 3.33301 15.501 4l14 -168c-36.667 -15.333 -89 -23 -157 -23
c-78.667 0 -141.334 18.833 -188.001 56.5s-70 85.5 -70 143.5c0 21.333 3.33301 42.833 10 64.5s18 44 34 67s36 43.167 60 60.5v3h-656v1455h967v-347h-590v-219h462v-338h-462v-205h633v-346z" />
    <glyph glyph-name="eogonek" unicode="&#x119;" horiz-adv-x="1116" 
d="M1072 509c0 -38 -3.33008 -70.332 -9.99707 -96.999h-658c8 -46.667 30.833 -82.334 68.5 -107.001s84.167 -37 139.5 -37c83.333 0 160.333 37 231 111l189 -208c-64 -78.667 -151.667 -133.667 -263 -165c-47.333 -16 -85.666 -36.167 -114.999 -60.5
s-44 -51.166 -44 -80.499c0 -16.667 3.16699 -31 9.5 -43s15.166 -21 26.499 -27s24.333 -9 39 -9s26.334 0.5 35.001 1.5s16.167 2.5 22.5 4.5s11.166 3.33301 14.499 4l13 -168c-37.333 -15.333 -90 -23 -158 -23c-78.667 0 -141.334 18.833 -188.001 56.5
s-70 85.5 -70 143.5c0 32 7.66699 64.333 23 97s39 61.667 71 87v3c-120 26 -216.833 85 -290.5 177s-110.5 203 -110.5 333c0 100 22.167 189.667 66.5 269s106.166 141.333 185.499 186s168.666 67 267.999 67c71.333 0 138.333 -12.833 201 -38.5
s116.167 -60.834 160.5 -105.501s79.333 -99.167 105 -163.5s38.5 -133.5 38.5 -207.5zM565.003 745.001c-40.667 0 -75.502 -11.833 -104.502 -35.5s-47.5 -56.5 -55.5 -98.5h312c-9.33301 42 -27.166 74.833 -53.499 98.5s-59.166 35.5 -98.499 35.5z" />
    <glyph glyph-name="Ecaron" unicode="&#x11a;" horiz-adv-x="1176" 
d="M756 1583h-315l-232 318h307l75 -146h4l76 146h303zM483 346h633v-346h-1010v1455h967v-347h-590v-219h462v-338h-462v-205z" />
    <glyph glyph-name="ecaron" unicode="&#x11b;" horiz-adv-x="1116" 
d="M747 1136h-315l-232 318h307l75 -146h4l76 146h303zM1072 509c0 -38 -3.33105 -70.3301 -9.99805 -96.9971h-658c8 -46.667 30.833 -82.334 68.5 -107.001s84.167 -37 139.5 -37c83.333 0 160.333 37 231 111l189 -208
c-45.333 -56.667 -107.833 -102.834 -187.5 -138.501s-170.167 -53.5 -271.5 -53.5c-99.333 0 -189 21.833 -269 65.5s-142.833 105.5 -188.5 185.5s-68.5 170.667 -68.5 272c0 100 22.167 189.667 66.5 269s106.166 141.333 185.499 186s168.666 67 267.999 67
c71.333 0 138.333 -12.833 201 -38.5s116.167 -60.834 160.5 -105.501s79.333 -99.167 105 -163.5s38.5 -133.5 38.5 -207.5zM565.002 745.003c-40.667 0 -75.5 -11.835 -104.5 -35.502s-47.5 -56.5 -55.5 -98.5h312c-4.66699 20.667 -11.5 39.334 -20.5 56.001
s-19.833 30.834 -32.5 42.501s-27.5 20.5 -44.5 26.5s-35.167 9 -54.5 9z" />
    <glyph glyph-name="Gcircumflex" unicode="&#x11c;" horiz-adv-x="1486" 
d="M772 1728l-74 -145h-304l217 318h316l232 -318h-307l-76 145h-4zM791 520l-0.000976562 314.007h613v-677c-67.333 -50.667 -154 -92.5 -260 -125.5s-213.667 -49.5 -323 -49.5c-84.667 0 -164.834 10.333 -240.501 31s-145.167 51.667 -208.5 93
s-118 91.166 -164 149.499s-81.833 127.5 -107.5 207.5s-38.5 167 -38.5 261c0 84 10.5 163.833 31.5 239.5s52.333 144.667 94 207s92 116.166 151 161.499s128.333 80.666 208 105.999s165.834 38 258.501 38c110.667 0 220.5 -23.5 329.5 -70.5
s199.167 -113.167 270.5 -198.5l-276 -233c-94.667 90.667 -203 136 -325 136c-25.333 0 -50.166 -2.66699 -74.499 -8s-47.5 -13.666 -69.5 -24.999s-42.833 -24.833 -62.5 -40.5s-37.334 -34.334 -53.001 -56.001s-29.167 -45.334 -40.5 -71.001
s-20.166 -54.334 -26.499 -86.001s-9.5 -64.834 -9.5 -99.501c0 -52 8 -101.167 24 -147.5s38.5 -87.333 67.5 -123s66.167 -63.834 111.5 -84.501s95.333 -31 150 -31c76 0 148.667 16 218 48v134h-248z" />
    <glyph glyph-name="gcircumflex" unicode="&#x11d;" horiz-adv-x="1204" 
d="M605 1281l-74 -145h-304l217 318h316l232 -318h-307l-76 145h-4zM752 1003l366.002 -0.00195312v-857c0 -70 -5.66699 -133.167 -17 -189.5s-30.333 -108.666 -57 -156.999s-61 -88.833 -103 -121.5s-94.833 -58.167 -158.5 -76.5s-136.834 -27.5 -219.501 -27.5
c-86 0 -161 7 -225 21s-127.667 37.667 -191 71l81 288c36 -22.667 81.5 -41.834 136.5 -57.501s105.833 -23.5 152.5 -23.5c77.333 0 137.333 15.333 180 46s64 69.334 64 116.001v91h-3c-64 -70 -152.333 -105 -265 -105c-86.667 0 -164.334 21.5 -233.001 64.5
s-121.834 101.667 -159.501 176s-56.5 157.5 -56.5 249.5c0 73.333 11.167 142 33.5 206s52.5 118.333 90.5 163s83.5 79.834 136.5 105.501s109.5 38.5 169.5 38.5c112.667 0 204.334 -39.667 275.001 -119h3v98zM591.002 342.998c50.667 0 92.833 16.5 126.5 49.5
s50.5 75.833 50.5 128.5c0 34.667 -7.83301 65.667 -23.5 93s-37 48.5 -64 63.5s-56.833 22.5 -89.5 22.5c-50 0 -92.167 -16.833 -126.5 -50.5s-51.5 -76.5 -51.5 -128.5c0 -52.667 17 -95.5 51 -128.5s76.333 -49.5 127 -49.5z" />
    <glyph glyph-name="Gbreve" unicode="&#x11e;" horiz-adv-x="1486" 
d="M776 1572c-64 0 -122.668 12.3301 -176.001 36.9971s-97.666 62.334 -132.999 113.001s-55.666 110.334 -60.999 179.001h260c2.66699 -29.333 13.667 -53.833 33 -73.5s45 -29.5 77 -29.5c19.333 0 36.833 3.83301 52.5 11.5s28.667 19.334 39 35.001
s16.166 34.5 17.499 56.5h261c-4 -45.333 -15.167 -87.833 -33.5 -127.5s-42.833 -74.5 -73.5 -104.5s-68.667 -53.667 -114 -71s-95 -26 -149 -26zM820.999 -18.0029c-84.667 0 -164.834 10.3389 -240.501 31.0059s-145.167 51.667 -208.5 93s-118 91.166 -164 149.499
s-81.833 127.5 -107.5 207.5s-38.5 167 -38.5 261c0 84 10.5 163.833 31.5 239.5s52.333 144.667 94 207s92 116.166 151 161.499s128.333 80.666 208 105.999s165.834 38 258.501 38c110.667 0 220.5 -23.5 329.5 -70.5s199.167 -113.167 270.5 -198.5l-276 -233
c-94.667 90.667 -203 136 -325 136c-35.333 0 -69.5 -5.33301 -102.5 -16s-63.667 -26.834 -92 -48.501s-53 -47.667 -74 -78s-37.5 -66.333 -49.5 -108s-18 -86.834 -18 -135.501c0 -52 8 -101.167 24 -147.5s38.5 -87.333 67.5 -123s66.167 -63.834 111.5 -84.501
s95.333 -31 150 -31c76 0 148.667 16 218 48v134h-248v314h613v-677c-67.333 -50.667 -154 -92.5 -260 -125.5s-213.667 -49.5 -323 -49.5z" />
    <glyph glyph-name="gbreve" unicode="&#x11f;" horiz-adv-x="1204" 
d="M609 1125c-48 0 -93.333 7.33301 -136 22s-80.667 35.5 -114 62.5s-60.666 61.5 -81.999 103.5s-34 89 -38 141h260c2 -19.333 7.33301 -36.666 16 -51.999s21.167 -27.666 37.5 -36.999s35.166 -14 56.499 -14c14.667 0 28.167 2.16699 40.5 6.5
s23.5 10.666 33.5 18.999s18.167 19.166 24.5 32.499s9.83301 28.333 10.5 45h261c-4 -45.333 -15.167 -87.833 -33.5 -127.5s-42.833 -74.5 -73.5 -104.5s-68.667 -53.667 -114 -71s-95 -26 -149 -26zM752 1003l366.002 -0.00195312v-857
c0 -70 -5.66699 -133.167 -17 -189.5s-30.333 -108.666 -57 -156.999s-61 -88.833 -103 -121.5s-94.833 -58.167 -158.5 -76.5s-136.834 -27.5 -219.501 -27.5c-86 0 -161 7 -225 21s-127.667 37.667 -191 71l81 288c36 -22.667 81.5 -41.834 136.5 -57.501
s105.833 -23.5 152.5 -23.5c77.333 0 137.333 15.333 180 46s64 69.334 64 116.001v91h-3c-64 -70 -152.333 -105 -265 -105c-86.667 0 -164.334 21.5 -233.001 64.5s-121.834 101.667 -159.501 176s-56.5 157.5 -56.5 249.5c0 73.333 11.167 142 33.5 206
s52.5 118.333 90.5 163s83.5 79.834 136.5 105.501s109.5 38.5 169.5 38.5c112.667 0 204.334 -39.667 275.001 -119h3v98zM591.002 342.998c50.667 0 92.833 16.5 126.5 49.5s50.5 75.833 50.5 128.5c0 52 -17 94.833 -51 128.5s-76 50.5 -126 50.5
s-92.167 -16.833 -126.5 -50.5s-51.5 -76.5 -51.5 -128.5c0 -52.667 17 -95.5 51 -128.5s76.333 -49.5 127 -49.5z" />
    <glyph glyph-name="Gdotaccent" unicode="&#x120;" horiz-adv-x="1486" 
d="M776 1564c-61.333 0 -111.669 18.833 -151.002 56.5s-59 84.834 -59 141.501c0 55.333 19.833 101.666 59.5 138.999s89.834 56 150.501 56c40 0 76.167 -8.5 108.5 -25.5s57.333 -40.333 75 -70s26.5 -62.834 26.5 -99.501c0 -57.333 -19.667 -104.666 -59 -141.999
s-89.666 -56 -150.999 -56zM820.997 -18c-84.667 0 -164.834 10.3389 -240.501 31.0059s-145.167 51.667 -208.5 93s-118 91.166 -164 149.499s-81.833 127.5 -107.5 207.5s-38.5 167 -38.5 261c0 84 10.5 163.833 31.5 239.5s52.333 144.667 94 207s92 116.166 151 161.499
s128.333 80.666 208 105.999s165.834 38 258.501 38c110.667 0 220.5 -23.5 329.5 -70.5s199.167 -113.167 270.5 -198.5l-276 -233c-94.667 90.667 -203 136 -325 136c-35.333 0 -69.5 -5.33301 -102.5 -16s-63.667 -26.834 -92 -48.501s-53 -47.667 -74 -78
s-37.5 -66.333 -49.5 -108s-18 -86.834 -18 -135.501c0 -52 8 -101.167 24 -147.5s38.5 -87.333 67.5 -123s66.167 -63.834 111.5 -84.501s95.333 -31 150 -31c76 0 148.667 16 218 48v134h-248v314h613v-677c-67.333 -50.667 -154 -92.5 -260 -125.5
s-213.667 -49.5 -323 -49.5z" />
    <glyph glyph-name="gdotaccent" unicode="&#x121;" horiz-adv-x="1204" 
d="M609 1117c-61.333 0 -111.667 18.8311 -151 56.498s-59 84.834 -59 141.501c0 36 8.83301 68.833 26.5 98.5s42.667 53.167 75 70.5s68.5 26 108.5 26c61.333 0 111.666 -18.5 150.999 -55.5s59 -83.5 59 -139.5c0 -57.333 -19.667 -104.666 -59 -141.999
s-89.666 -56 -150.999 -56zM751.999 1003l366.002 -0.00195312v-857c0 -70 -5.66699 -133.167 -17 -189.5s-30.333 -108.666 -57 -156.999s-61 -88.833 -103 -121.5s-94.833 -58.167 -158.5 -76.5s-136.834 -27.5 -219.501 -27.5c-86 0 -161 7 -225 21
s-127.667 37.667 -191 71l81 288c36 -22.667 81.5 -41.834 136.5 -57.501s105.833 -23.5 152.5 -23.5c77.333 0 137.333 15.333 180 46s64 69.334 64 116.001v91h-3c-64 -70 -152.333 -105 -265 -105c-86.667 0 -164.334 21.5 -233.001 64.5s-121.834 101.667 -159.501 176
s-56.5 157.5 -56.5 249.5c0 73.333 11.167 142 33.5 206s52.5 118.333 90.5 163s83.5 79.834 136.5 105.501s109.5 38.5 169.5 38.5c112.667 0 204.334 -39.667 275.001 -119h3v98zM591.001 342.996c50.667 0 92.833 16.5 126.5 49.5s50.5 75.833 50.5 128.5
c0 34.667 -7.83301 65.667 -23.5 93s-37 48.5 -64 63.5s-56.833 22.5 -89.5 22.5c-50 0 -92.167 -16.833 -126.5 -50.5s-51.5 -76.5 -51.5 -128.5c0 -52.667 17 -95.5 51 -128.5s76.333 -49.5 127 -49.5z" />
    <glyph glyph-name="Gcommaaccent" unicode="&#x122;" horiz-adv-x="1486" 
d="M821 -18c-84.667 0 -164.834 10.3389 -240.501 31.0059s-145.167 51.667 -208.5 93s-118 91.166 -164 149.499s-81.833 127.5 -107.5 207.5s-38.5 167 -38.5 261c0 84 10.5 163.833 31.5 239.5s52.333 144.667 94 207s92 116.166 151 161.499s128.333 80.666 208 105.999
s165.834 38 258.501 38c72 0 144.333 -10 217 -30s142.667 -50.5 210 -91.5s125 -90.167 173 -147.5l-276 -233c-94.667 90.667 -203 136 -325 136c-35.333 0 -69.5 -5.33301 -102.5 -16s-63.667 -26.834 -92 -48.501s-53 -47.667 -74 -78s-37.5 -66.333 -49.5 -108
s-18 -86.834 -18 -135.501c0 -52 8 -101.167 24 -147.5s38.5 -87.333 67.5 -123s66.167 -63.834 111.5 -84.501s95.333 -31 150 -31c76 0 148.667 16 218 48v134h-248v314h613v-677c-67.333 -50.667 -154 -92.5 -260 -125.5s-213.667 -49.5 -323 -49.5zM582 -454.994
l-60.999 194c39.333 5.33301 67.666 14.166 84.999 26.499s26 30.5 26 54.5c0 19.333 -5 43 -15 71h287c8.66699 -25.333 13 -51.666 13 -78.999c0 -178 -111.667 -267 -335 -267z" />
    <glyph glyph-name="gcommaaccent" unicode="&#x123;" horiz-adv-x="1204" 
d="M756 1168h-287.001c-8.66699 25.333 -13 51.666 -13 78.999c0 178 111.667 267 335 267l61 -194c-39.333 -5.33301 -67.666 -14.166 -84.999 -26.499s-26 -30.5 -26 -54.5c0 -19.333 5 -43 15 -71zM751.999 1003l366.002 -0.00195312v-857
c0 -70 -5.66699 -133.167 -17 -189.5s-30.333 -108.666 -57 -156.999s-61 -88.833 -103 -121.5s-94.833 -58.167 -158.5 -76.5s-136.834 -27.5 -219.501 -27.5c-86 0 -161 7 -225 21s-127.667 37.667 -191 71l81 288c36 -22.667 81.5 -41.834 136.5 -57.501
s105.833 -23.5 152.5 -23.5c77.333 0 137.333 15.333 180 46s64 69.334 64 116.001v91h-3c-64 -70 -152.333 -105 -265 -105c-86.667 0 -164.334 21.5 -233.001 64.5s-121.834 101.667 -159.501 176s-56.5 157.5 -56.5 249.5c0 73.333 11.167 142 33.5 206
s52.5 118.333 90.5 163s83.5 79.834 136.5 105.501s109.5 38.5 169.5 38.5c112.667 0 204.334 -39.667 275.001 -119h3v98zM591.001 342.998c50.667 0 92.833 16.5 126.5 49.5s50.5 75.833 50.5 128.5c0 34.667 -7.83301 65.667 -23.5 93s-37 48.5 -64 63.5
s-56.833 22.5 -89.5 22.5c-50 0 -92.167 -16.833 -126.5 -50.5s-51.5 -76.5 -51.5 -128.5c0 -52.667 17 -95.5 51 -128.5s76.333 -49.5 127 -49.5z" />
    <glyph glyph-name="Hcircumflex" unicode="&#x124;" horiz-adv-x="1444" 
d="M725 1731l-74 -145h-304l217 318h316l232 -318h-307l-76 145h-4zM941 1455h394v-1455h-394v530h-439v-530h-394v1455h394v-580h439v580z" />
    <glyph glyph-name="hcircumflex" unicode="&#x125;" horiz-adv-x="1190" 
d="M547 1758l-74 -145h-304l217 318h316l232 -318h-307l-76 145h-4zM753 1024c35.333 0 67.834 -2.83398 97.501 -8.50098s58.167 -14.834 85.5 -27.501s51.333 -29.667 72 -51s38.667 -47.166 54 -77.499s27 -66.666 35 -108.999s12 -90.166 12 -143.499v-607h-366v519
c0 47.333 -4.83301 84.166 -14.5 110.499s-24.5 44.666 -44.5 54.999s-47.333 15.5 -82 15.5c-45.333 0 -81 -16.167 -107 -48.5s-39 -81.5 -39 -147.5v-504h-366v1508h366v-616h3c25.333 29.333 53.666 53.833 84.999 73.5s64.5 34.334 99.5 44.001s71.5 14.5 109.5 14.5z
" />
    <glyph glyph-name="Hbar" unicode="&#x126;" horiz-adv-x="1459" 
d="M1421 1259v-206h-79v-1053h-394v530h-439v-530h-394v1053h-76v206h76v196h394v-196h439v196h394v-196h79zM948 875v178h-439v-178h439z" />
    <glyph glyph-name="hbar" unicode="&#x127;" horiz-adv-x="1190" 
d="M753 1024c35.333 0 67.834 -2.83594 97.501 -8.50293s58.167 -14.834 85.5 -27.501s51.333 -29.667 72 -51s38.667 -47.166 54 -77.499s27 -66.666 35 -108.999s12 -90.166 12 -143.499v-607h-366v519c0 69.333 -10.5 116.833 -31.5 142.5s-57.5 38.5 -109.5 38.5
c-45.333 0 -81 -16.167 -107 -48.5s-39 -81.5 -39 -147.5v-504h-366v1098h-94v207h94v203h366v-203h168v-207h-168v-206h3c25.333 29.333 53.666 53.833 84.999 73.5s64.5 34.334 99.5 44.001s71.5 14.5 109.5 14.5z" />
    <glyph glyph-name="Itilde" unicode="&#x128;" horiz-adv-x="629" 
d="M105 1564l-209.998 83.9971c24.667 80.667 61 146.334 109 197.001s104.333 76 169 76c28.667 0 56 -3.33301 82 -10s44 -12.5 54 -17.5s26 -13.5 48 -25.5c36 -22 67.333 -33 94 -33c44.667 0 82 30 112 90l206 -68c-15.333 -55.333 -35.333 -104.166 -60 -146.499
s-55.334 -76.666 -92.001 -102.999s-76.667 -39.5 -120 -39.5c-59.333 0 -119 17 -179 51c-2 0.666992 -6 2.66699 -12 6s-10 5.5 -12 6.5l-11 5.5c-5.33301 2.66699 -9.33301 4.5 -12 5.5s-6.33398 2.5 -11.001 4.5s-8.5 3.5 -11.5 4.5s-6.66699 2 -11 3
s-8.5 1.66699 -12.5 2s-8 0.5 -12 0.5c-43.333 0 -79.333 -31 -108 -93zM117.002 -0.00292969v1455h395v-1455h-395z" />
    <glyph glyph-name="itilde" unicode="&#x129;" horiz-adv-x="564" 
d="M118 1117l-208.004 84.001c24.667 81.333 59.334 147.166 104.001 197.499s97 75.5 157 75.5c19.333 0 37.833 -2 55.5 -6s30 -7.5 37 -10.5s19 -9.5 36 -19.5s26.5 -15.667 28.5 -17c36 -22 63.667 -33 83 -33c40.667 0 76 30 106 90l204 -68
c-14.667 -54 -36 -102.667 -64 -146s-61.167 -78 -99.5 -104s-78.166 -39 -119.499 -39c-9.33301 0 -18.333 0.333008 -27 1s-17 2.16699 -25 4.5s-14.833 4.33301 -20.5 6s-12.667 4.5 -21 8.5s-14.166 7 -17.499 9s-9.66602 5.66699 -18.999 11s-15.666 9 -18.999 11
c-6 3.33301 -13.5 7.83301 -22.5 13.5s-16 10 -21 13s-10.833 5.66699 -17.5 8s-13.334 3.5 -20.001 3.5c-31.333 0 -61.333 -31 -90 -93zM98.9961 0.000976562v1003h365v-1003h-365z" />
    <glyph glyph-name="Imacron" unicode="&#x12a;" horiz-adv-x="629" 
d="M-13 1631v270h656v-270h-656zM117 0v1455h395v-1455h-395z" />
    <glyph glyph-name="imacron" unicode="&#x12b;" horiz-adv-x="564" 
d="M-46 1184v270h656v-270h-656zM99 0v1003h365v-1003h-365z" />
    <glyph glyph-name="Ibreve" unicode="&#x12c;" horiz-adv-x="629" 
d="M315 1572c-64 0 -122.669 12.3311 -176.002 36.998s-97.666 62.334 -132.999 113.001s-55.666 110.334 -60.999 179.001h260c2.66699 -29.333 13.667 -53.833 33 -73.5s45 -29.5 77 -29.5c30 0 55.167 9 75.5 27s31.5 43.333 33.5 76h261
c-4 -45.333 -15.167 -87.833 -33.5 -127.5s-42.833 -74.5 -73.5 -104.5s-68.667 -53.667 -114 -71s-95 -26 -149 -26zM116.998 -0.00195312v1455h395v-1455h-395z" />
    <glyph glyph-name="ibreve" unicode="&#x12d;" horiz-adv-x="564" 
d="M282 1125c-57.333 0 -108.833 12.333 -154.5 37s-83.334 62.167 -113.001 112.5s-47.167 110.166 -52.5 179.499h250c6 -68.667 29.333 -103 70 -103c9.33301 0 18 2.16699 26 6.5s15 10.833 21 19.5s11 19.5 15 32.5s6.33301 27.833 7 44.5h251
c-4 -46 -13.5 -88.5 -28.5 -127.5s-35.333 -73.667 -61 -104s-58.167 -54.166 -97.5 -71.499s-83.666 -26 -132.999 -26zM99 0v1003h365v-1003h-365z" />
    <glyph glyph-name="Iogonek" unicode="&#x12e;" horiz-adv-x="629" 
d="M117 1455l394.999 0.000976562v-1455h-46c-60 0 -108.667 -13.833 -146 -41.5s-56 -58.834 -56 -93.501c0 -25.333 6.66699 -44.833 20 -58.5s31.333 -20.5 54 -20.5c12 0 22.333 0.5 31 1.5s16.834 2.5 24.501 4.5s12.834 3.33301 15.501 4l14 -168
c-36.667 -15.333 -89 -23 -157 -23c-78.667 0 -141.334 18.833 -188.001 56.5s-70 85.5 -70 143.5c0 34 9 68.667 27 104s45.333 66 82 92v1454z" />
    <glyph glyph-name="iogonek" unicode="&#x12f;" horiz-adv-x="564" 
d="M282 1117c-61.333 0 -111.667 18.8311 -151 56.498s-59 84.834 -59 141.501c0 36 8.83301 68.833 26.5 98.5s42.667 53.167 75 70.5s68.5 26 108.5 26c61.333 0 111.666 -18.5 150.999 -55.5s59 -83.5 59 -139.5c0 -57.333 -19.667 -104.666 -59 -141.999
s-89.666 -56 -150.999 -56zM98.999 0.998047l-0.000976562 1002h365v-1003h-17c-60 0 -108.667 -13.833 -146 -41.5s-56 -58.834 -56 -93.501c0 -25.333 6.66699 -44.833 20 -58.5s31.333 -20.5 54 -20.5c12 0 22.333 0.5 31 1.5s16.834 2.5 24.501 4.5
s12.834 3.33301 15.501 4l14 -168c-36.667 -15.333 -89 -23 -157 -23c-78.667 0 -141.334 18.833 -188.001 56.5s-70 85.5 -70 143.5c0 34.667 9 69.667 27 105s45.667 65.666 83 90.999z" />
    <glyph glyph-name="Idotaccent" unicode="&#x130;" horiz-adv-x="629" 
d="M315 1564c-61.333 0 -111.668 18.832 -151.001 56.499s-59 84.834 -59 141.501c0 55.333 19.833 101.666 59.5 138.999s89.834 56 150.501 56c61.333 0 111.666 -18.5 150.999 -55.5s59 -83.5 59 -139.5c0 -57.333 -19.667 -104.666 -59 -141.999
s-89.666 -56 -150.999 -56zM116.998 -0.000976562v1455h395v-1455h-395z" />
    <glyph glyph-name="dotlessi" unicode="&#x131;" horiz-adv-x="564" 
d="M99 0v1003h365v-1003h-365z" />
    <glyph glyph-name="IJ" unicode="&#x132;" horiz-adv-x="1642" 
d="M117 0v1455h395v-1455h-395zM1063 -21c-82 0 -161 17.333 -237 52s-139.333 85 -190 151l228 259c48.667 -66 103 -99 163 -99c35.333 0 65.333 14.167 90 42.5s37 72.5 37 132.5v938h388v-910c0 -377.333 -159.667 -566 -479 -566z" />
    <glyph glyph-name="ij" unicode="&#x133;" horiz-adv-x="1111" 
d="M282 1117c-61.333 0 -111.667 18.8311 -151 56.498s-59 84.834 -59 141.501c0 36 8.83301 68.833 26.5 98.5s42.667 53.167 75 70.5s68.5 26 108.5 26c61.333 0 111.666 -18.5 150.999 -55.5s59 -83.5 59 -139.5c0 -57.333 -19.667 -104.666 -59 -141.999
s-89.666 -56 -150.999 -56zM839.999 1117c-61.333 0 -111.667 18.8311 -151 56.498s-59 84.834 -59 141.501c0 36 8.83301 68.833 26.5 98.5s42.667 53.167 75 70.5s68.5 26 108.5 26c61.333 0 111.666 -18.5 150.999 -55.5s59 -83.5 59 -139.5
c0 -57.333 -19.667 -104.666 -59 -141.999s-89.666 -56 -150.999 -56zM98.998 -0.00390625v1003h365v-1003h-365zM686.998 -425.004c-31.333 0 -60.335 1.16602 -87.002 3.49902s-51.167 5.83301 -73.5 10.5s-37.833 8.33398 -46.5 11.001l-39 12l60 282
c28.667 -10 56.667 -15 84 -15c12.667 0 23.334 1.83301 32.001 5.5s15.5 8.5 20.5 14.5s8.83301 14.5 11.5 25.5s4.33398 21.833 5.00098 32.5s1 24.667 1 42v1004h365v-1044c0 -86 -12.333 -157.5 -37 -214.5s-61.5 -99.5 -110.5 -127.5s-110.833 -42 -185.5 -42z" />
    <glyph glyph-name="Jcircumflex" unicode="&#x134;" horiz-adv-x="1013" 
d="M722 1731l-74 -145h-304l217 318h316l232 -318h-307l-76 145h-4zM525 517v938h388v-910c0 -377.333 -159.667 -566 -479 -566c-82 0 -161 17.333 -237 52s-139.333 85 -190 151l228 259c48.667 -66 103 -99 163 -99c35.333 0 65.333 14.167 90 42.5s37 72.5 37 132.5z
" />
    <glyph glyph-name="jcircumflex" unicode="&#x135;" horiz-adv-x="547" 
d="M272 1281l-74 -145h-304l217 318h316l232 -318h-307l-76 145h-4zM91 -1v1004h365v-1044c0 -86 -12.333 -157.5 -37 -214.5s-61.5 -99.5 -110.5 -127.5s-110.833 -42 -185.5 -42c-41.333 0 -80.333 2.5 -117 7.5s-61.667 9.33301 -75 13s-31.333 9.16699 -54 16.5l60 282
c28.667 -10 56.667 -15 84 -15c30 0 49.167 9.16699 57.5 27.5s12.5 49.166 12.5 92.499z" />
    <glyph glyph-name="Kcommaaccent" unicode="&#x136;" horiz-adv-x="1354" 
d="M833 833l533 -833h-478l-309 523h-1l-83 -101v-422h-387v1455h387v-490h4l354 490h492zM542 -109h287.001c8.66699 -25.333 13 -51.666 13 -78.999c0 -178 -111.667 -267 -335 -267l-61 194c39.333 5.33301 67.666 14.166 84.999 26.499s26 30.5 26 54.5
c0 19.333 -5 43 -15 71z" />
    <glyph glyph-name="kcommaaccent" unicode="&#x137;" horiz-adv-x="1106" 
d="M775 619l347 -619h-403l-183 341h-4l-76 -87v-254h-366v1508h366v-776h3l232 271h420zM407 -109h287.001c8.66699 -25.333 13 -51.666 13 -78.999c0 -178 -111.667 -267 -335 -267l-61 194c39.333 5.33301 67.666 14.166 84.999 26.499s26 30.5 26 54.5
c0 19.333 -5 43 -15 71z" />
    <glyph glyph-name="kgreenlandic" unicode="&#x138;" horiz-adv-x="1106" 
d="M536 341h-4l-76 -87v-254h-366v1003h366v-271h3l232 271h420l-336 -384l347 -619h-403z" />
    <glyph glyph-name="Lacute" unicode="&#x139;" horiz-adv-x="1112" 
d="M330 1591l224 311l357 2l-253 -313h-328zM108 0v1455h392v-1109h578v-346h-970z" />
    <glyph glyph-name="lacute" unicode="&#x13a;" horiz-adv-x="564" 
d="M109 1618l224 311l357 2l-253 -313h-328zM99 0v1508h365v-1508h-365z" />
    <glyph glyph-name="Lcommaaccent" unicode="&#x13b;" horiz-adv-x="1112" 
d="M108 0v1455h392v-1109h578v-346h-970zM424 -455l-60.999 194.001c39.333 5.33301 67.666 14.166 84.999 26.499s26 30.5 26 54.5c0 19.333 -5 43 -15 71h287c8.66699 -24.667 13 -51 13 -79c0 -178 -111.667 -267 -335 -267z" />
    <glyph glyph-name="lcommaaccent" unicode="&#x13c;" horiz-adv-x="564" 
d="M99 0v1508h365v-1508h-365zM100 -455l-60.999 194c39.333 5.33301 67.666 14.166 84.999 26.499s26 30.5 26 54.5c0 19.333 -5 43 -15 71h287c8.66699 -25.333 13 -51.666 13 -78.999c0 -178 -111.667 -267 -335 -267z" />
    <glyph glyph-name="Lcaron" unicode="&#x13d;" horiz-adv-x="1150" 
d="M704 1173l70 464h342l-159 -464h-253zM108 0v1455h392v-1109h578v-346h-970z" />
    <glyph glyph-name="lcaron" unicode="&#x13e;" horiz-adv-x="671" 
d="M552 1173l70 464h341l-158 -464h-253zM99 0v1508h365v-1508h-365z" />
    <glyph glyph-name="Ldot" unicode="&#x13f;" horiz-adv-x="1112" 
d="M108 0v1455h392v-1109h578v-346h-970zM871 505c-55.333 0 -102.5 19.166 -141.5 57.499s-58.5 84.833 -58.5 139.5c0 34.667 9 67 27 97s42.333 53.833 73 71.5s64 26.5 100 26.5c54.667 0 101.5 -19.167 140.5 -57.5s58.5 -84.166 58.5 -137.499
c0 -54.667 -19.5 -101.167 -58.5 -139.5s-85.833 -57.5 -140.5 -57.5z" />
    <glyph glyph-name="ldot" unicode="&#x140;" horiz-adv-x="1019" 
d="M99 0v1508h365v-1508h-365zM805 370c-55.333 0 -102.5 19.167 -141.5 57.5s-58.5 84.833 -58.5 139.5c0 53.333 19.667 99.166 59 137.499s86.333 57.5 141 57.5s101.5 -19.167 140.5 -57.5s58.5 -84.166 58.5 -137.499c0 -54.667 -19.5 -101.167 -58.5 -139.5
s-85.833 -57.5 -140.5 -57.5z" />
    <glyph glyph-name="Lslash" unicode="&#x141;" horiz-adv-x="1138" 
d="M526 346h578v-346h-970v510l-124 -58v312l124 59v632h392v-447l143 67v-313l-143 -67v-349z" />
    <glyph glyph-name="lslash" unicode="&#x142;" horiz-adv-x="637" 
d="M609 962v-313l-108 -51v-598h-365v424l-104 -50v313l104 50v771h365v-597z" />
    <glyph glyph-name="Nacute" unicode="&#x143;" horiz-adv-x="1489" 
d="M1086 1904l-253 -313h-328l224 311zM991 1455h390v-1455h-404l-477 796h-5v-796h-387v1455h392l486 -820h5v820z" />
    <glyph glyph-name="nacute" unicode="&#x144;" horiz-adv-x="1180" 
d="M984 1453l-253 -313h-328l224 311zM743 1024c35.333 0 67.832 -2.83594 97.499 -8.50293s58.167 -14.834 85.5 -27.501s51.333 -29.667 72 -51s38.667 -47.166 54 -77.499s27 -66.666 35 -108.999s12 -90.166 12 -143.499v-607h-366v519
c0 46.667 -4.83301 83.334 -14.5 110.001s-23.667 45.167 -42 55.5s-43.166 15.5 -74.499 15.5c-45.333 0 -81 -16.167 -107 -48.5s-39 -81.5 -39 -147.5v-504h-366v1003h366v-110h2c36.667 42.667 79.667 75.167 129 97.5s101.333 33.5 156 33.5z" />
    <glyph glyph-name="Ncommaaccent" unicode="&#x145;" horiz-adv-x="1489" 
d="M991 1455h390v-1455h-404l-477 796h-5v-796h-387v1455h392l486 -820h5v820zM598 -109h287.001c8.66699 -25.333 13 -51.666 13 -78.999c0 -178 -111.667 -267 -335 -267l-61 194c39.333 5.33301 67.666 14.166 84.999 26.499s26 30.5 26 54.5c0 19.333 -5 43 -15 71z" />
    <glyph glyph-name="ncommaaccent" unicode="&#x146;" horiz-adv-x="1180" 
d="M743 1024c35.333 0 67.832 -2.83594 97.499 -8.50293s58.167 -14.834 85.5 -27.501s51.333 -29.667 72 -51s38.667 -47.166 54 -77.499s27 -66.666 35 -108.999s12 -90.166 12 -143.499v-607h-366v519c0 46.667 -4.83301 83.334 -14.5 110.001s-23.667 45.167 -42 55.5
s-43.166 15.5 -74.499 15.5c-45.333 0 -81 -16.167 -107 -48.5s-39 -81.5 -39 -147.5v-504h-366v1003h366v-110h2c36.667 42.667 79.667 75.167 129 97.5s101.333 33.5 156 33.5zM444.999 -109.003l286.999 -0.000976562c8.66699 -25.333 13 -51.666 13 -78.999
c0 -178 -111.667 -267 -335 -267l-61 194c26.667 4 47.834 9.16699 63.501 15.5s27.5 14.833 35.5 25.5s12 24 12 40c0 19.333 -5 43 -15 71z" />
    <glyph glyph-name="Ncaron" unicode="&#x147;" horiz-adv-x="1489" 
d="M919 1586h-315l-232 318h307l75 -146h4l76 146h303zM991 1455h390v-1455h-404l-477 796h-5v-796h-387v1455h392l486 -820h5v820z" />
    <glyph glyph-name="ncaron" unicode="&#x148;" horiz-adv-x="1180" 
d="M784 1136h-315l-232 318h307l75 -146h4l76 146h303zM743 1024c35.333 0 67.832 -2.83594 97.499 -8.50293s58.167 -14.834 85.5 -27.501s51.333 -29.667 72 -51s38.667 -47.166 54 -77.499s27 -66.666 35 -108.999s12 -90.166 12 -143.499v-607h-366v519
c0 46.667 -4.83301 83.334 -14.5 110.001s-23.667 45.167 -42 55.5s-43.166 15.5 -74.499 15.5c-45.333 0 -81 -16.167 -107 -48.5s-39 -81.5 -39 -147.5v-504h-366v1003h366v-110h2c36.667 42.667 79.667 75.167 129 97.5s101.333 33.5 156 33.5z" />
    <glyph glyph-name="napostrophe" unicode="&#x149;" horiz-adv-x="1490" 
d="M-73 971l70 484h341l-158 -484h-253zM1053 1024c42.667 0 81.165 -4 115.498 -12s66.833 -21.833 97.5 -41.5s56.334 -45 77.001 -76s36.834 -70.833 48.501 -119.5s17.5 -104.667 17.5 -168v-607h-366v519c0 68.667 -10 116 -30 142s-53.667 39 -101 39
c-45.333 0 -81 -16.167 -107 -48.5s-39 -81.5 -39 -147.5v-504h-366v1003h366v-110h2c37.333 42.667 80.5 75.167 129.5 97.5s100.833 33.5 155.5 33.5z" />
    <glyph glyph-name="Eng" unicode="&#x14a;" horiz-adv-x="1488" 
d="M991 1455h389.001v-1476c0 -269.333 -117.667 -404 -353 -404c-41.333 0 -80.333 2.5 -117 7.5s-61.667 9.33301 -75 13s-31.333 9.16699 -54 16.5l60 272c28.667 -10 56.667 -15 84 -15c26.667 0 44.667 8.5 54 25.5s14.666 41.5 15.999 73.5l-498 831h-4v-799h-385
v1455h391l488 -822h4v822z" />
    <glyph glyph-name="eng" unicode="&#x14b;" horiz-adv-x="1156" 
d="M743 1024c37.333 0 71.998 -4.66699 103.998 -14s62.167 -24.833 90.5 -46.5s52.5 -49 72.5 -82s35.833 -74.5 47.5 -124.5s17.5 -106.667 17.5 -170v-608c0 -86.667 -12.167 -160 -36.5 -220s-61.333 -105.667 -111 -137s-111.5 -47 -185.5 -47
c-41.333 0 -80.333 2.5 -117 7.5s-61.667 9.33301 -75 13s-31.333 9.16699 -54 16.5l60 272c28.667 -10 56.667 -15 84 -15c12.667 0 23.334 2.16699 32.001 6.5s15.5 9.83301 20.5 16.5s8.83301 15.667 11.5 27s4.33398 22 5.00098 32s1 22.667 1 38l-1 530
c0 64 -8.16699 110.167 -24.5 138.5s-44.5 42.5 -84.5 42.5c-27.333 0 -51.5 -6.66699 -72.5 -20s-38.167 -35 -51.5 -65s-20 -67 -20 -111v-504h-366v1003h366v-116h3c36 44.667 78.5 78.667 127.5 102s101.167 35 156.5 35z" />
    <glyph glyph-name="Omacron" unicode="&#x14c;" horiz-adv-x="1633" 
d="M492 1634v270h656v-270h-656zM818 -21c-110.667 0 -213 18.333 -307 55s-174 87.667 -240 153s-117.5 144.333 -154.5 237s-55.5 193.667 -55.5 303s18.5 210.5 55.5 303.5s88.5 172.167 154.5 237.5s146 116.333 240 153s196.333 55 307 55
c109.333 0 210.666 -18.167 303.999 -54.5s173 -87 239 -152s117.667 -144.167 155 -237.5s56 -195 56 -305s-18.667 -211.5 -56 -304.5s-89 -172 -155 -237s-145.667 -115.667 -239 -152s-194.666 -54.5 -303.999 -54.5zM817 342c67.333 0 127.83 17.1689 181.497 51.502
s95 80.666 124 138.999s43.5 123.166 43.5 194.499s-14.5 136.166 -43.5 194.499s-70.333 104.666 -124 138.999s-114.167 51.5 -181.5 51.5s-127.666 -17 -180.999 -51s-94.833 -80.333 -124.5 -139s-44.5 -123.667 -44.5 -195s14.833 -136.166 44.5 -194.499
s71.334 -104.666 125.001 -138.999s113.834 -51.5 180.501 -51.5z" />
    <glyph glyph-name="omacron" unicode="&#x14d;" horiz-adv-x="1194" 
d="M271 1184v270h656v-270h-656zM597 -21c-106.667 0 -201.834 21.833 -285.501 65.5s-148.667 105.167 -195 184.5s-69.5 170 -69.5 272s23.167 192.667 69.5 272s111.333 141 195 185s178.834 66 285.501 66s201.667 -22 285 -66s148.333 -105.667 195 -185
s70 -170 70 -272s-23.333 -192.667 -70 -272s-111.667 -140.833 -195 -184.5s-178.333 -65.5 -285 -65.5zM597 302c52 0 95.333 18.835 130 56.502s52 85.167 52 142.5c0 58.667 -17 106.5 -51 143.5s-77.667 55.5 -131 55.5c-26 0 -50.333 -5 -73 -15s-42 -23.667 -58 -41
s-28.5 -38.333 -37.5 -63s-13.5 -51.334 -13.5 -80.001c0 -22.667 3 -44.334 9 -65.001s14.5 -39 25.5 -55s24 -30 39 -42s31.667 -21.167 50 -27.5s37.833 -9.5 58.5 -9.5z" />
    <glyph glyph-name="Obreve" unicode="&#x14e;" horiz-adv-x="1633" 
d="M820 1575c-64 0 -122.668 12.3311 -176.001 36.998s-97.666 62.334 -132.999 113.001s-55.666 110.334 -60.999 179.001h260c2 -19.333 7.33301 -36.5 16 -51.5s21.167 -27.333 37.5 -37s35.166 -14.5 56.499 -14.5c30 0 55.167 9 75.5 27s31.5 43.333 33.5 76h261
c-4 -45.333 -15.167 -87.833 -33.5 -127.5s-42.833 -74.5 -73.5 -104.5s-68.667 -53.667 -114 -71s-95 -26 -149 -26zM817.999 -21.002c-110.667 0 -213 18.333 -307 55s-174 87.667 -240 153s-117.5 144.333 -154.5 237s-55.5 193.667 -55.5 303s18.5 210.5 55.5 303.5
s88.5 172.167 154.5 237.5s146 116.333 240 153s196.333 55 307 55c109.333 0 210.666 -18.167 303.999 -54.5s173 -87 239 -152s117.667 -144.167 155 -237.5s56 -195 56 -305s-18.667 -211.5 -56 -304.5s-89 -172 -155 -237s-145.667 -115.667 -239 -152
s-194.666 -54.5 -303.999 -54.5zM816.999 341.998c67.333 0 127.83 17.1689 181.497 51.502s95 80.666 124 138.999s43.5 123.166 43.5 194.499s-14.5 136.166 -43.5 194.499s-70.333 104.666 -124 138.999s-114.167 51.5 -181.5 51.5s-127.666 -17 -180.999 -51
s-94.833 -80.333 -124.5 -139s-44.5 -123.667 -44.5 -195s14.833 -136.166 44.5 -194.499s71.334 -104.666 125.001 -138.999s113.834 -51.5 180.501 -51.5z" />
    <glyph glyph-name="obreve" unicode="&#x14f;" horiz-adv-x="1194" 
d="M599 1125c-64 0 -122.669 12.332 -176.002 36.999s-97.666 62.334 -132.999 113.001s-55.666 110.334 -60.999 179.001h260c0.666992 -9.33301 2.33398 -18.333 5.00098 -27s6.16699 -16.834 10.5 -24.501s9.66602 -14.667 15.999 -21s13.333 -11.833 21 -16.5
s16.5 -8.16699 26.5 -10.5s20.333 -3.5 31 -3.5c30 0 55.167 9 75.5 27s31.5 43.333 33.5 76h261c-4 -45.333 -15.167 -87.833 -33.5 -127.5s-42.833 -74.5 -73.5 -104.5s-68.667 -53.667 -114 -71s-95 -26 -149 -26zM596.998 -21.001
c-106.667 0 -201.834 21.833 -285.501 65.5s-148.667 105.167 -195 184.5s-69.5 170 -69.5 272s23.167 192.667 69.5 272s111.333 141 195 185s178.834 66 285.501 66s201.667 -22 285 -66s148.333 -105.667 195 -185s70 -170 70 -272s-23.333 -192.667 -70 -272
s-111.667 -140.833 -195 -184.5s-178.333 -65.5 -285 -65.5zM596.998 301.999c52 0 95.333 18.834 130 56.501s52 85.167 52 142.5c0 38.667 -7.66699 73.167 -23 103.5s-36.833 53.833 -64.5 70.5s-59.167 25 -94.5 25c-53.333 0 -97 -18.5 -131 -55.5
s-51 -84.833 -51 -143.5c0 -22.667 3 -44.334 9 -65.001s14.5 -39 25.5 -55s24 -30 39 -42s31.667 -21.167 50 -27.5s37.833 -9.5 58.5 -9.5z" />
    <glyph glyph-name="Ohungarumlaut" unicode="&#x150;" horiz-adv-x="1633" 
d="M404 1591l222 311l357 2l-252 -313h-327zM892 1591l221 311l358 2l-252 -313h-327zM818 -21c-110.667 0 -213 18.333 -307 55s-174 87.667 -240 153s-117.5 144.333 -154.5 237s-55.5 193.667 -55.5 303s18.5 210.5 55.5 303.5s88.5 172.167 154.5 237.5
s146 116.333 240 153s196.333 55 307 55c109.333 0 210.666 -18.167 303.999 -54.5s173 -87 239 -152s117.667 -144.167 155 -237.5s56 -195 56 -305s-18.667 -211.5 -56 -304.5s-89 -172 -155 -237s-145.667 -115.667 -239 -152s-194.666 -54.5 -303.999 -54.5zM817 342
c67.333 0 127.83 17.1689 181.497 51.502s95 80.666 124 138.999s43.5 123.166 43.5 194.499s-14.5 136.166 -43.5 194.499s-70.333 104.666 -124 138.999s-114.167 51.5 -181.5 51.5s-127.666 -17 -180.999 -51s-94.833 -80.333 -124.5 -139s-44.5 -123.667 -44.5 -195
s14.833 -136.166 44.5 -194.499s71.334 -104.666 125.001 -138.999s113.834 -51.5 180.501 -51.5z" />
    <glyph glyph-name="ohungarumlaut" unicode="&#x151;" horiz-adv-x="1194" 
d="M154 1140l222 311l357 2l-252 -313h-327zM642 1140l221 311l358 2l-252 -313h-327zM597 -21c-106.667 0 -201.834 21.833 -285.501 65.5s-148.667 105.167 -195 184.5s-69.5 170 -69.5 272s23.167 192.667 69.5 272s111.333 141 195 185s178.834 66 285.501 66
s201.667 -22 285 -66s148.333 -105.667 195 -185s70 -170 70 -272s-23.333 -192.667 -70 -272s-111.667 -140.833 -195 -184.5s-178.333 -65.5 -285 -65.5zM597 302c52 0 95.333 18.834 130 56.501s52 85.167 52 142.5c0 38.667 -7.66699 73.167 -23 103.5
s-36.833 53.833 -64.5 70.5s-59.167 25 -94.5 25c-53.333 0 -97 -18.5 -131 -55.5s-51 -84.833 -51 -143.5c0 -22.667 3 -44.334 9 -65.001s14.5 -39 25.5 -55s24 -30 39 -42s31.667 -21.167 50 -27.5s37.833 -9.5 58.5 -9.5z" />
    <glyph glyph-name="OE" unicode="&#x152;" horiz-adv-x="1928" 
d="M1245 346h623.002v-346h-1058c-54.667 0 -107.834 4.66699 -159.501 14s-100 22.833 -145 40.5s-87.5 39.167 -127.5 64.5s-76.333 54 -109 86s-62 67.5 -88 106.5s-47.833 80.333 -65.5 124s-31.167 90 -40.5 139s-14 99.5 -14 151.5c0 104.667 18.333 202 55 292
s87.5 167 152.5 231s144.167 114.333 237.5 151s194.666 55 303.999 55h1017v-346h-582v-223h460v-323h-460v-217zM810.002 362l60 0.999023v729h-60c-64.667 0 -123.334 -16.667 -176.001 -50s-93.5 -77.833 -122.5 -133.5s-43.5 -116.5 -43.5 -182.5
c0 -65.333 14.5 -125.833 43.5 -181.5s69.833 -100.167 122.5 -133.5s111.334 -49.666 176.001 -48.999z" />
    <glyph glyph-name="oe" unicode="&#x153;" horiz-adv-x="1657" 
d="M1624 504c0 -36.667 -3.33203 -69.334 -9.99902 -98.001h-600c14.667 -43.333 37.667 -76.5 69 -99.5s69 -34.5 113 -34.5c33.333 0 62.166 4.33301 86.499 13s48.5 25 72.5 49l229 -165c-102.667 -126.667 -241 -190 -415 -190c-132 0 -243.333 39.667 -334 119h-3
c-84.667 -79.333 -186.667 -119 -306 -119c-69.333 0 -133.5 12.333 -192.5 37s-109.667 59.334 -152 104.001s-75.333 99.667 -99 165s-35.5 137.333 -35.5 216c0 78 12.5 149.833 37.5 215.5s59.167 121 102.5 166s95 79.833 155 104.5s124.667 37 194 37
c112.667 0 210.334 -38.333 293.001 -115h5c87.333 76.667 197 115 329 115c87.333 0 166.166 -22.333 236.499 -67s125.333 -106.667 165 -186s59.5 -168.333 59.5 -267zM1163 737c-24 0 -45.666 -4.16797 -64.999 -12.501s-36.833 -22.666 -52.5 -42.999
s-27.5 -45.833 -35.5 -76.5h276c-8 44 -23.333 77 -46 99s-48.334 33 -77.001 33zM536.002 301.999c36 0 65.999 18.833 89.999 56.5s36 85.167 36 142.5c0 58.667 -11.667 106.5 -35 143.5s-53.666 55.5 -90.999 55.5c-32.667 0 -61 -18 -85 -54s-36 -84.333 -36 -145
s11.5 -109 34.5 -145s51.833 -54 86.5 -54z" />
    <glyph glyph-name="Racute" unicode="&#x154;" horiz-adv-x="1318" 
d="M960 1904l-253 -313h-328l224 311zM1303 0l-452.997 0.000976562l-274 444h-90v-444h-378v1455h583c89.333 0 168.166 -12.833 236.499 -38.5s123.666 -61.834 165.999 -108.501s74.166 -101 95.499 -163s32 -131 32 -207c0 -52.667 -5.5 -101.5 -16.5 -146.5
s-27.167 -85.5 -48.5 -121.5s-47 -67.667 -77 -95s-64.667 -50.333 -104 -69l-1 -3zM486.003 1113v-332h118c64 0 115.5 14.333 154.5 43s58.5 69.667 58.5 123c0 47.333 -18.5 86.833 -55.5 118.5s-89.5 47.5 -157.5 47.5h-118z" />
    <glyph glyph-name="racute" unicode="&#x155;" horiz-adv-x="763" 
d="M682 1453l-253 -313h-328l224 311zM739 1024h2.00098v-391c-20 1.33301 -45.667 2 -77 2c-68 0 -119.667 -17.833 -155 -53.5s-53 -83.5 -53 -143.5v-438h-366v1003h366v-137h3c35.333 51.333 77.166 90.5 125.499 117.5s99.833 40.5 154.5 40.5z" />
    <glyph glyph-name="Rcommaaccent" unicode="&#x156;" horiz-adv-x="1318" 
d="M974 503l329.003 -502.999h-453l-274 444h-90v-444h-378v1455h583c89.333 0 168.166 -12.833 236.499 -38.5s123.666 -61.834 165.999 -108.501s74.166 -101 95.499 -163s32 -131 32 -207c0 -52.667 -5.5 -101.5 -16.5 -146.5s-27.167 -85.5 -48.5 -121.5
s-47 -67.667 -77 -95s-64.667 -50.333 -104 -69zM486.003 1113v-332h118c64 0 115.5 14.333 154.5 43s58.5 69.667 58.5 123c0 47.333 -18.5 86.833 -55.5 118.5s-89.5 47.5 -157.5 47.5h-118zM526.003 -108.999h287.001c8.66699 -25.333 13 -51.666 13 -78.999
c0 -178 -111.667 -267 -335 -267l-61 194c39.333 5.33301 67.666 14.166 84.999 26.499s26 30.5 26 54.5c0 19.333 -5 43 -15 71z" />
    <glyph glyph-name="rcommaaccent" unicode="&#x157;" horiz-adv-x="763" 
d="M739 1024h2.00098v-391c-20 1.33301 -45.667 2 -77 2c-68 0 -119.667 -17.833 -155 -53.5s-53 -83.5 -53 -143.5v-438h-366v1003h366v-137h3c35.333 51.333 77.166 90.5 125.499 117.5s99.833 40.5 154.5 40.5zM130.001 -109h287.002
c8.66699 -25.333 13 -51.666 13 -78.999c0 -178 -111.667 -267 -335 -267l-61 194c20 2.66699 36.667 6.16699 50 10.5s24.666 9.66602 33.999 15.999s16.166 14 20.499 23s6.5 19.5 6.5 31.5c0 19.333 -5 43 -15 71z" />
    <glyph glyph-name="Rcaron" unicode="&#x158;" horiz-adv-x="1318" 
d="M793 1586h-315l-232 318h307l75 -146h4l76 146h303zM1303 0l-452.997 0.000976562l-274 444h-90v-444h-378v1455h583c89.333 0 168.166 -12.833 236.499 -38.5s123.666 -61.834 165.999 -108.501s74.166 -101 95.499 -163s32 -131 32 -207
c0 -52.667 -5.5 -101.5 -16.5 -146.5s-27.167 -85.5 -48.5 -121.5s-47 -67.667 -77 -95s-64.667 -50.333 -104 -69l-1 -3zM486.003 1113v-332h118c64 0 115.5 14.333 154.5 43s58.5 69.667 58.5 123c0 47.333 -18.5 86.833 -55.5 118.5s-89.5 47.5 -157.5 47.5h-118z" />
    <glyph glyph-name="rcaron" unicode="&#x159;" horiz-adv-x="763" 
d="M623 1136h-315l-232 318h307l75 -146h4l76 146h303zM459 866c35.333 51.333 77.167 90.5 125.5 117.5s99.833 40.5 154.5 40.5h2v-391c-20 1.33301 -45.667 2 -77 2c-68 0 -119.667 -17.833 -155 -53.5s-53 -83.5 -53 -143.5v-438h-366v1003h366v-137h3z" />
    <glyph glyph-name="Sacute" unicode="&#x15a;" horiz-adv-x="1144" 
d="M380 1591l224 311l357 2l-253 -313h-328zM555 -21c-97.333 0 -192.334 19.5 -285.001 58.5s-177 97.167 -253 174.5l220 271c54 -54.667 110.5 -95.167 169.5 -121.5s113.167 -39.5 162.5 -39.5c42 0 73.333 9.16699 94 27.5s31 40.5 31 66.5
c0 30 -11.833 54.5 -35.5 73.5s-73.167 41.167 -148.5 66.5c-35.333 12 -66.833 23.5 -94.5 34.5s-57.334 24.667 -89.001 41s-59.5 33.166 -83.5 50.499s-47.5 38.333 -70.5 63s-41.667 50.834 -56 78.501s-26 59.5 -35 95.5s-13.5 74.667 -13.5 116
c0 81.333 20.833 155.166 62.5 221.499s99.5 118.833 173.5 157.5s157 59 249 61c96.667 2 188.834 -14.167 276.501 -48.5s167.167 -82.833 238.5 -145.5l-216 -278c-61.333 47.333 -113.5 81 -156.5 101s-83.167 30 -120.5 30c-33.333 0 -58.666 -7.66699 -75.999 -23
s-26 -36.333 -26 -63s12.333 -50.834 37 -72.501s72 -45.834 142 -72.501c122.667 -47.333 204 -81.666 244 -102.999c88 -47.333 147 -106 177 -176c20 -46 30 -100.333 30 -163c0 -50.667 -5.83301 -97.667 -17.5 -141s-27.667 -81.166 -48 -113.499
s-44.833 -61.5 -73.5 -87.5s-59 -47.667 -91 -65s-66.333 -31.666 -103 -42.999s-72.667 -19.5 -108 -24.5s-71 -7.5 -107 -7.5z" />
    <glyph glyph-name="sacute" unicode="&#x15b;" horiz-adv-x="891" 
d="M239 1141l224 311l357 2l-253 -313h-328zM426 -21c-160.667 0 -297.336 50.002 -410.003 150.002l166 226c87.333 -76 171 -114 251 -114c49.333 0 74 13.667 74 41c0 9.33301 -2.66699 17.166 -8 23.499s-18.166 14.166 -38.499 23.499s-50.5 19.666 -90.5 30.999
c-36 10.667 -68.833 22.167 -98.5 34.5s-58.5 27.833 -86.5 46.5s-51.5 39.334 -70.5 62.001s-34.167 49.667 -45.5 81s-17 65.666 -17 102.999c0 53.333 10.167 101.666 30.5 144.999s48.166 78.833 83.499 106.5s76.166 48.834 122.499 63.501s95.833 22 148.5 22
c53.333 0 102.833 -5 148.5 -15s87.334 -23.833 125.001 -41.5s77.167 -41.167 118.5 -70.5l-169 -243c-21.333 21.333 -44.5 39.833 -69.5 55.5s-49.5 27.5 -73.5 35.5s-46.667 12 -68 12c-17.333 0 -32.166 -3.5 -44.499 -10.5s-18.5 -17.167 -18.5 -30.5
c0 -10.667 8.66699 -21.167 26 -31.5s50 -23.166 98 -38.499c49.333 -16 90.5 -30.833 123.5 -44.5s64.167 -29.834 93.5 -48.501s52.333 -39 69 -61s29.667 -48 39 -78s14 -64.333 14 -103c0 -49.333 -8.83301 -94.166 -26.5 -134.499s-43.667 -75.333 -78 -105
s-78.666 -52.5 -132.999 -68.5s-116.166 -24 -185.499 -24z" />
    <glyph glyph-name="Scircumflex" unicode="&#x15c;" horiz-adv-x="1144" 
d="M572 1731l-74 -145h-304l217 318h316l232 -318h-307l-76 145h-4zM652 903c122.667 -47.333 203.998 -81.668 243.998 -103.001c88 -47.333 147 -106 177 -176c20 -46 30 -100.333 30 -163c0 -50.667 -5.83301 -97.667 -17.5 -141s-27.667 -81.166 -48 -113.499
s-44.833 -61.5 -73.5 -87.5s-59 -47.667 -91 -65s-66.333 -31.666 -103 -42.999s-72.667 -19.5 -108 -24.5s-71 -7.5 -107 -7.5c-96.667 0 -191.5 19.5 -284.5 58.5s-177.5 97.167 -253.5 174.5l220 271c54 -54.667 110.5 -95.167 169.5 -121.5s113.167 -39.5 162.5 -39.5
c42 0 73.333 9.16699 94 27.5s31 40.5 31 66.5c0 10 -1 19 -3 27s-5.5 15.833 -10.5 23.5s-11.667 14.834 -20 21.501s-19.5 13.667 -33.5 21s-30.5 14.833 -49.5 22.5s-41.5 15.834 -67.5 24.501c-35.333 12 -66.833 23.5 -94.5 34.5s-57.334 24.667 -89.001 41
s-59.5 33.166 -83.5 50.499s-47.5 38.333 -70.5 63s-41.667 50.834 -56 78.501s-26 59.5 -35 95.5s-13.5 74.667 -13.5 116c0 81.333 20.833 155.166 62.5 221.499s99.5 118.833 173.5 157.5s157 59 249 61c96.667 2 188.834 -14.167 276.501 -48.5
s167.167 -82.833 238.5 -145.5l-216 -278c-41.333 32 -78.666 57.833 -111.999 77.5s-63 33.5 -89 41.5s-51.333 12 -76 12c-33.333 0 -58.666 -7.66699 -75.999 -23s-26 -36.333 -26 -63s12.333 -50.834 37 -72.501s72 -45.834 142 -72.501z" />
    <glyph glyph-name="scircumflex" unicode="&#x15d;" horiz-adv-x="891" 
d="M446 1281l-74 -145h-304l217 318h316l232 -318h-307l-76 145h-4zM510 646c49.333 -16 90.498 -30.8311 123.498 -44.498s64.167 -29.834 93.5 -48.501s52.333 -39 69 -61s29.667 -48 39 -78s14 -64.333 14 -103c0 -49.333 -8.83301 -94.166 -26.5 -134.499
s-43.667 -75.333 -78 -105s-78.666 -52.5 -132.999 -68.5s-116.166 -24 -185.499 -24c-160.667 0 -297.334 50 -410.001 150l166 226c87.333 -76 171 -114 251 -114c49.333 0 74 13.667 74 41c0 9.33301 -2.66699 17.166 -8 23.499s-18.166 14.166 -38.499 23.499
s-50.5 19.666 -90.5 30.999c-36 10.667 -68.833 22.167 -98.5 34.5s-58.5 27.833 -86.5 46.5s-51.5 39.334 -70.5 62.001s-34.167 49.667 -45.5 81s-17 65.666 -17 102.999c0 53.333 10.167 101.666 30.5 144.999s48.166 78.833 83.499 106.5s76.166 48.834 122.499 63.501
s95.833 22 148.5 22c53.333 0 102.833 -5 148.5 -15s87.334 -23.833 125.001 -41.5s77.167 -41.167 118.5 -70.5l-169 -243c-21.333 21.333 -44.5 39.833 -69.5 55.5s-49.5 27.5 -73.5 35.5s-46.667 12 -68 12c-17.333 0 -32.166 -3.5 -44.499 -10.5
s-18.5 -17.167 -18.5 -30.5c0 -10.667 8.66699 -21.167 26 -31.5s50 -23.166 98 -38.499z" />
    <glyph glyph-name="Scedilla" unicode="&#x15e;" horiz-adv-x="1144" 
d="M591 -20l-23.0029 -39l1 -2c58 -2 103.833 -17.333 137.5 -46s50.5 -69 50.5 -121c0 -52.667 -21.833 -94 -65.5 -124s-110.834 -45 -201.501 -45c-49.333 0 -94.666 4 -135.999 12v139c30.667 -9.33301 67.667 -14 111 -14c54 0 81 17 81 51
c0 38.667 -52.333 58 -157 58v79l35 63c-154.667 28.667 -290.334 102.334 -407.001 221.001l220 271c54 -54.667 110.5 -95.167 169.5 -121.5s113.167 -39.5 162.5 -39.5c42 0 73.333 9.16699 94 27.5s31 40.5 31 66.5c0 20.667 -4.5 37.834 -13.5 51.501
s-26.667 27.5 -53 41.5s-65.5 29.667 -117.5 47c-35.333 12 -66.833 23.5 -94.5 34.5s-57.334 24.667 -89.001 41s-59.5 33.333 -83.5 51s-47.5 38.667 -70.5 63s-41.667 50.333 -56 78s-26 59.5 -35 95.5s-13.5 74.667 -13.5 116c0 81.333 20.833 155.166 62.5 221.499
s99.5 118.833 173.5 157.5s157 59 249 61c96.667 2 188.834 -14.167 276.501 -48.5s167.167 -82.833 238.5 -145.5l-216 -278c-41.333 32 -78.666 57.833 -111.999 77.5s-63 33.5 -89 41.5s-51.333 12 -76 12c-33.333 0 -58.666 -7.66699 -75.999 -23s-26 -36.333 -26 -63
s12.333 -50.834 37 -72.501s72 -45.834 142 -72.501c122.667 -47.333 204 -81.666 244 -102.999c88 -47.333 147 -106 177 -176c20 -46 30 -100.333 30 -163c0 -66.667 -10.333 -127.167 -31 -181.5s-47.667 -99.166 -81 -134.499s-72.666 -65.333 -117.999 -90
s-91.166 -42.834 -137.499 -54.501s-94.5 -18.5 -144.5 -20.5z" />
    <glyph glyph-name="scedilla" unicode="&#x15f;" horiz-adv-x="891" 
d="M485 -19l-24 -39.9961l1 -2c58 -2 103.833 -17.333 137.5 -46s50.5 -69 50.5 -121c0 -52.667 -21.833 -94 -65.5 -124s-110.834 -45 -201.501 -45c-49.333 0 -94.666 4 -135.999 12v139c30.667 -9.33301 67.667 -14 111 -14c54 0 81 17 81 51
c0 38.667 -52.333 58 -157 58v79l33 60c-112.667 17.333 -212.334 64.333 -299.001 141l166 226c87.333 -76 171 -114 251 -114c49.333 0 74 13.667 74 41c0 9.33301 -2.66699 17.166 -8 23.499s-18.166 14.166 -38.499 23.499s-50.5 19.666 -90.5 30.999
c-36 10.667 -68.833 22.167 -98.5 34.5s-58.5 27.833 -86.5 46.5s-51.5 39.334 -70.5 62.001s-34.167 49.667 -45.5 81s-17 65.666 -17 102.999c0 53.333 10.167 101.666 30.5 144.999s48.166 78.833 83.499 106.5s76.166 48.834 122.499 63.501s95.833 22 148.5 22
c53.333 0 102.833 -5 148.5 -15s87.334 -23.833 125.001 -41.5s77.167 -41.167 118.5 -70.5l-169 -243c-21.333 21.333 -44.5 39.833 -69.5 55.5s-49.5 27.5 -73.5 35.5s-46.667 12 -68 12c-17.333 0 -32.166 -3.5 -44.499 -10.5s-18.5 -17.167 -18.5 -30.5
c0 -10.667 8.66699 -21.167 26 -31.5s50 -23.166 98 -38.499c49.333 -16 90.5 -30.833 123.5 -44.5s64.167 -29.834 93.5 -48.501s52.333 -39 69 -61s29.667 -48 39 -78s14 -64.333 14 -103c0 -46 -7.66699 -88 -23 -126s-37.833 -71.5 -67.5 -100.5
s-67.667 -52.333 -114 -70s-99.5 -28.834 -159.5 -33.501z" />
    <glyph glyph-name="Scaron" unicode="&#x160;" horiz-adv-x="1144" 
d="M741 1586h-315l-232 318h307l75 -146h4l76 146h303zM652 903c122.667 -47.333 203.999 -81.667 243.999 -103c88 -47.333 147 -106 177 -176c20 -46 30 -100.333 30 -163c0 -50.667 -5.83301 -97.667 -17.5 -141s-27.667 -81.166 -48 -113.499s-44.833 -61.5 -73.5 -87.5
s-59 -47.667 -91 -65s-66.333 -31.666 -103 -42.999s-72.667 -19.5 -108 -24.5s-71 -7.5 -107 -7.5c-97.333 0 -192.333 19.5 -285 58.5s-177 97.167 -253 174.5l220 271c54 -54.667 110.5 -95.167 169.5 -121.5s113.167 -39.5 162.5 -39.5c42 0 73.333 9.16699 94 27.5
s31 40.5 31 66.5c0 20.667 -4.5 37.834 -13.5 51.501s-26.667 27.5 -53 41.5s-65.5 29.667 -117.5 47c-35.333 12 -66.833 23.5 -94.5 34.5s-57.334 24.667 -89.001 41s-59.5 33.166 -83.5 50.499s-47.5 38.333 -70.5 63s-41.667 50.834 -56 78.501s-26 59.5 -35 95.5
s-13.5 74.667 -13.5 116c0 81.333 20.833 155.166 62.5 221.499s99.5 118.833 173.5 157.5s157 59 249 61c96.667 2 188.834 -14.167 276.501 -48.5s167.167 -82.833 238.5 -145.5l-216 -278c-61.333 47.333 -113.5 81 -156.5 101s-83.167 30 -120.5 30
c-33.333 0 -58.666 -7.66699 -75.999 -23s-26 -36.333 -26 -63s12.333 -50.834 37 -72.501s72 -45.834 142 -72.501z" />
    <glyph glyph-name="scaron" unicode="&#x161;" horiz-adv-x="891" 
d="M615 1136h-315l-232 318h307l75 -146h4l76 146h303zM510 646c40.667 -13.333 75.499 -25.667 104.499 -37s57 -24.166 84 -38.499s49.167 -29.666 66.5 -45.999s32.666 -35 45.999 -56s23 -44.333 29 -70s9 -54.834 9 -87.501c0 -49.333 -8.83301 -94.166 -26.5 -134.499
s-43.667 -75.333 -78 -105s-78.666 -52.5 -132.999 -68.5s-116.166 -24 -185.499 -24c-160.667 0 -297.334 50 -410.001 150l166 226c86.667 -76 170.334 -114 251.001 -114c49.333 0 74 13.667 74 41c0 9.33301 -2.66699 17.166 -8 23.499s-18.166 14.166 -38.499 23.499
s-50.5 19.666 -90.5 30.999c-36 10.667 -68.833 22.167 -98.5 34.5s-58.5 27.833 -86.5 46.5s-51.5 39.334 -70.5 62.001s-34.167 49.667 -45.5 81s-17 65.666 -17 102.999c0 53.333 10.167 101.666 30.5 144.999s48.166 78.833 83.499 106.5s76.166 48.834 122.499 63.501
s95.833 22 148.5 22c78.667 0 148 -10.167 208 -30.5s121.333 -52.5 184 -96.5l-169 -243c-21.333 21.333 -44.5 39.833 -69.5 55.5s-49.5 27.5 -73.5 35.5s-46.667 12 -68 12c-17.333 0 -32.166 -3.5 -44.499 -10.5s-18.5 -17.167 -18.5 -30.5
c0 -10.667 8.66699 -21.167 26 -31.5s50 -23.166 98 -38.499z" />
    <glyph glyph-name="uni0162" unicode="&#x162;" horiz-adv-x="1197" 
d="M36 1455h1125v-347h-368v-1108h-157l-36 -59l1 -2c58 -2 103.833 -17.333 137.5 -46s50.5 -69 50.5 -121c0 -52.667 -21.833 -94 -65.5 -124s-110.834 -45 -201.501 -45c-49.333 0 -94.666 4 -135.999 12v139c30.667 -9.33301 67.667 -14 111 -14c54 0 81 17 81 51
c0 38.667 -52.333 58 -157 58v79l40 72h-55v1108h-370v347z" />
    <glyph glyph-name="uni0163" unicode="&#x163;" horiz-adv-x="774" 
d="M429 -61c58 -2 103.834 -17.3359 137.501 -46.0029s50.5 -69 50.5 -121c0 -52.667 -21.833 -94 -65.5 -124s-110.834 -45 -201.501 -45c-49.333 0 -94.666 4 -135.999 12v139c30 -9.33301 67 -14 111 -14c54 0 81 17 81 51c0 38.667 -52.333 58 -157 58v79l44 79
c-50.667 23.333 -90.5 60.833 -119.5 112.5s-43.5 116.834 -43.5 195.501v398h-109v290h109v315l365 38v-353h218v-290h-218v-319c0 -14 0.666992 -26.167 2 -36.5s4 -21 8 -32s10.833 -19.333 20.5 -25s21.5 -8.5 35.5 -8.5c26 0 50.667 5.33301 74 16l89 -255
c-42 -23.333 -82.833 -41.166 -122.5 -53.499s-89.834 -19.166 -150.501 -20.499l-23 -38z" />
    <glyph glyph-name="Tcaron" unicode="&#x164;" horiz-adv-x="1197" 
d="M762 1586h-315l-232 318h307l75 -146h4l76 146h303zM36 1455h1125v-347h-368v-1108h-387v1108h-370v347z" />
    <glyph glyph-name="tcaron" unicode="&#x165;" horiz-adv-x="774" 
d="M565 1173l70 464h341l-158 -464h-253zM431 -21c-43.333 0 -83.166 6.83301 -119.499 20.5s-68 34 -95 61s-48.167 62.167 -63.5 105.5s-23 93 -23 149v398h-109v290h109v315l365 38v-353h218v-290h-218v-319c0 -14 0.666992 -26.167 2 -36.5s4 -20.833 8 -31.5
s10.833 -19 20.5 -25s21.5 -9 35.5 -9c26 0 50.667 5.33301 74 16l89 -255c-43.333 -24.667 -86.333 -43.167 -129 -55.5s-97.334 -18.5 -164.001 -18.5z" />
    <glyph glyph-name="Tbar" unicode="&#x166;" horiz-adv-x="1197" 
d="M1161 1108h-368v-239h241v-270h-241v-599h-387v599h-222v270h222v239h-370v347h1125v-347z" />
    <glyph glyph-name="tbar" unicode="&#x167;" horiz-adv-x="774" 
d="M635 308l89 -255c-43.333 -24.667 -86.333 -43.167 -129 -55.5s-97.334 -18.5 -164.001 -18.5c-43.333 0 -83.166 6.83301 -119.499 20.5s-68 34 -95 61s-48.167 62.167 -63.5 105.5s-23 93 -23 149v106h-84v206h84v86h-109v290h109v315l365 38v-353h218v-290h-218v-86
h179v-206h-179v-27c0 -14 0.666992 -26.167 2 -36.5s4 -21 8 -32s10.833 -19.333 20.5 -25s21.5 -8.5 35.5 -8.5c26 0 50.667 5.33301 74 16z" />
    <glyph glyph-name="Utilde" unicode="&#x168;" horiz-adv-x="1416" 
d="M497 1567l-209.995 83.9971c24.667 80.667 61 146.334 109 197.001s104.333 76 169 76c22 0 42 -1.33301 60 -4s35.667 -7.5 53 -14.5s29.166 -12.167 35.499 -15.5s18.166 -9.66602 35.499 -18.999c36 -22 67.333 -33 94 -33c44.667 0 82 30 112 90l206 -68
c-23.333 -85.333 -58.5 -154.833 -105.5 -208.5s-102.5 -80.5 -166.5 -80.5c-59.333 0 -119 17 -179 51c-1.33301 0.666992 -5.66602 3 -12.999 7s-11.833 6.33301 -13.5 7s-5.83398 2.66699 -12.501 6s-11.167 5.5 -13.5 6.5s-6.33301 2.5 -12 4.5
s-10.334 3.33301 -14.001 4s-7.83398 1.33398 -12.501 2.00098s-9.33398 1 -14.001 1c-43.333 0 -79.333 -31 -108 -93zM705.005 -21.0029c-91.333 0 -174.502 13.8301 -249.502 41.4971s-139.333 67.834 -193 120.501s-95.167 119 -124.5 199s-44 170.333 -44 271v844h394
v-822c0 -53.333 7.5 -101.5 22.5 -144.5s39.333 -78.333 73 -106s74.167 -41.5 121.5 -41.5c42.667 0 80.834 11.167 114.501 33.5s60.334 55.833 80.001 100.5s29.5 97.334 29.5 158.001v822h392v-844c0 -127.333 -23.333 -238.166 -70 -332.499
s-116.667 -167.833 -210 -220.5s-205.333 -79 -336 -79z" />
    <glyph glyph-name="utilde" unicode="&#x169;" horiz-adv-x="1160" 
d="M481 1210c-43.333 0 -79.3291 -31.0039 -107.996 -93.0039l-210 84c24.667 80.667 61 146.334 109 197.001s104.333 76 169 76c28.667 0 56 -3.33301 82 -10s44 -12.5 54 -17.5s26 -13.5 48 -25.5c36 -22 67.333 -33 94 -33c44.667 0 82 30 112 90l206 -68
c-15.333 -55.333 -35.333 -104.166 -60 -146.499s-55.334 -76.666 -92.001 -102.999s-76.667 -39.5 -120 -39.5c-59.333 0 -119 17 -179 51c-1.33301 0.666992 -5.66602 3 -12.999 7s-11.833 6.33301 -13.5 7s-5.83398 2.66699 -12.501 6s-11.167 5.5 -13.5 6.5
s-6.33301 2.5 -12 4.5s-10.334 3.33301 -14.001 4s-7.83398 1.33398 -12.501 2.00098s-9.33398 1 -14.001 1zM708.004 1003h367v-1003h-367v107h-4c-34 -42 -74.5 -73.833 -121.5 -95.5s-97.5 -32.5 -151.5 -32.5c-236.667 0 -355 145.667 -355 437v587h365v-499
c0 -71.333 10.167 -122.833 30.5 -154.5s53.833 -47.5 100.5 -47.5c40.667 0 73.5 16.5 98.5 49.5s37.5 82.167 37.5 147.5v504z" />
    <glyph glyph-name="Umacron" unicode="&#x16a;" horiz-adv-x="1416" 
d="M379 1634v270h656v-270h-656zM705 -21c-92 0 -175.334 13.8301 -250.001 41.4971s-138.834 67.834 -192.501 120.501s-95.167 119 -124.5 199s-44 170.333 -44 271v844h394v-822c0 -53.333 7.5 -101.5 22.5 -144.5s39.333 -78.333 73 -106s74.167 -41.5 121.5 -41.5
c42.667 0 80.834 11.167 114.501 33.5s60.334 55.833 80.001 100.5s29.5 97.334 29.5 158.001v822h392v-844c0 -127.333 -23.333 -238.166 -70 -332.499s-116.667 -167.833 -210 -220.5s-205.333 -79 -336 -79z" />
    <glyph glyph-name="umacron" unicode="&#x16b;" horiz-adv-x="1160" 
d="M911 1454v-270h-656v270h656zM708 1003h367v-1003h-367v107h-4c-34 -42 -74.5 -73.833 -121.5 -95.5s-97.5 -32.5 -151.5 -32.5c-236.667 0 -355 145.667 -355 437v587h365v-499c0 -71.333 10.167 -122.833 30.5 -154.5s53.833 -47.5 100.5 -47.5
c40.667 0 73.5 16.5 98.5 49.5s37.5 82.167 37.5 147.5v504z" />
    <glyph glyph-name="Ubreve" unicode="&#x16c;" horiz-adv-x="1416" 
d="M707 1575c-64 0 -122.669 12.3311 -176.002 36.998s-97.666 62.334 -132.999 113.001s-55.666 110.334 -60.999 179.001h260c2.66699 -29.333 13.667 -53.833 33 -73.5s45 -29.5 77 -29.5c30 0 55.167 9 75.5 27s31.5 43.333 33.5 76h261
c-4 -45.333 -15.167 -87.833 -33.5 -127.5s-42.833 -74.5 -73.5 -104.5s-68.667 -53.667 -114 -71s-95 -26 -149 -26zM704.998 -21.002c-92 0 -175.333 13.8301 -250 41.4971s-138.834 67.834 -192.501 120.501s-95.167 119 -124.5 199s-44 170.333 -44 271v844h394v-822
c0 -39.333 4.33301 -76.333 13 -111s21.667 -65.667 39 -93s40.166 -48.833 68.499 -64.5s60.5 -23.5 96.5 -23.5c42.667 0 80.834 11.167 114.501 33.5s60.334 55.833 80.001 100.5s29.5 97.334 29.5 158.001v822h392v-844c0 -127.333 -23.333 -238.166 -70 -332.499
s-116.667 -167.833 -210 -220.5s-205.333 -79 -336 -79z" />
    <glyph glyph-name="ubreve" unicode="&#x16d;" horiz-adv-x="1160" 
d="M583 1125c-64 0 -122.668 12.3301 -176.001 36.9971s-97.666 62.334 -132.999 113.001s-55.666 110.334 -60.999 179.001h260c2.66699 -29.333 13.667 -53.833 33 -73.5s45 -29.5 77 -29.5c19.333 0 36.833 3.83301 52.5 11.5s28.667 19.334 39 35.001
s16.166 34.5 17.499 56.5h261c-4 -45.333 -15.167 -87.833 -33.5 -127.5s-42.833 -74.5 -73.5 -104.5s-68.667 -53.667 -114 -71s-95 -26 -149 -26zM707.999 1003l367 -0.000976562v-1003h-367v107h-4c-22.667 -28 -48.5 -51.667 -77.5 -71s-59.833 -33.666 -92.5 -42.999
s-67 -14 -103 -14c-236.667 0 -355 145.667 -355 437v587h365v-499c0 -71.333 10.167 -122.833 30.5 -154.5s53.833 -47.5 100.5 -47.5c40.667 0 73.5 16.5 98.5 49.5s37.5 82.167 37.5 147.5v504z" />
    <glyph glyph-name="Uring" unicode="&#x16e;" horiz-adv-x="1416" 
d="M707 1551c-63.333 0 -116.833 20.5 -160.5 61.5s-65.5 93.167 -65.5 156.5c0 61.333 21 112.833 63 154.5s96.333 62.5 163 62.5c64 0 117.833 -20.333 161.5 -61s65.5 -92.667 65.5 -156c0 -61.333 -21 -113 -63 -155s-96.667 -63 -164 -63zM707 1701
c20 0 36.667 7 50 21s20 31 20 51c0 12.667 -3 24.334 -9 35.001s-14.333 19.167 -25 25.5s-22.667 9.5 -36 9.5c-12.667 0 -24.334 -3.33301 -35.001 -10s-19.167 -15.5 -25.5 -26.5s-9.5 -22.833 -9.5 -35.5s3.16699 -24.334 9.5 -35.001s14.833 -19.167 25.5 -25.5
s22.334 -9.5 35.001 -9.5zM705 -21c-91.333 0 -174.502 13.8301 -249.502 41.4971s-139.333 67.834 -193 120.501s-95.167 119 -124.5 199s-44 170.333 -44 271v844h394v-822c0 -53.333 7.5 -101.5 22.5 -144.5s39.333 -78.333 73 -106s74.167 -41.5 121.5 -41.5
c42.667 0 80.834 11.167 114.501 33.5s60.334 55.833 80.001 100.5s29.5 97.334 29.5 158.001v822h392v-844c0 -127.333 -23.333 -238.166 -70 -332.499s-116.667 -167.833 -210 -220.5s-205.333 -79 -336 -79z" />
    <glyph glyph-name="uring" unicode="&#x16f;" horiz-adv-x="1160" 
d="M583 1101c-63.333 0 -116.833 20.5 -160.5 61.5s-65.5 93.167 -65.5 156.5c0 61.333 21 112.833 63 154.5s96.333 62.5 163 62.5c64 0 117.833 -20.333 161.5 -61s65.5 -92.667 65.5 -156c0 -61.333 -21 -113 -63 -155s-96.667 -63 -164 -63zM583 1393
c-18.667 0 -35 -7.16797 -49 -21.501s-21 -31.166 -21 -50.499s6.83301 -35.833 20.5 -49.5s30.167 -20.5 49.5 -20.5c20 0 36.667 7 50 21s20 31 20 51c0 9.33301 -1.83301 18.333 -5.5 27s-8.5 16.167 -14.5 22.5s-13.333 11.333 -22 15s-18 5.5 -28 5.5zM708 1003
l367 -0.000976562v-1003h-367v107h-4c-22.667 -28 -48.5 -51.667 -77.5 -71s-59.833 -33.666 -92.5 -42.999s-67 -14 -103 -14c-236.667 0 -355 145.667 -355 437v587h365v-499c0 -71.333 10.167 -122.833 30.5 -154.5s53.833 -47.5 100.5 -47.5
c40.667 0 73.5 16.5 98.5 49.5s37.5 82.167 37.5 147.5v504z" />
    <glyph glyph-name="Uhungarumlaut" unicode="&#x170;" horiz-adv-x="1416" 
d="M241 1591l222 311l357 2l-252 -313h-327zM729 1591l221 311l358 2l-252 -313h-327zM705 -21c-92 0 -175.334 13.8301 -250.001 41.4971s-138.834 67.834 -192.501 120.501s-95.167 119 -124.5 199s-44 170.333 -44 271v844h394v-822c0 -53.333 7.5 -101.5 22.5 -144.5
s39.333 -78.333 73 -106s74.167 -41.5 121.5 -41.5c42.667 0 80.834 11.167 114.501 33.5s60.334 55.833 80.001 100.5s29.5 97.334 29.5 158.001v822h392v-844c0 -127.333 -23.333 -238.166 -70 -332.499s-116.667 -167.833 -210 -220.5s-205.333 -79 -336 -79z" />
    <glyph glyph-name="uhungarumlaut" unicode="&#x171;" horiz-adv-x="1162" 
d="M739 1453l-252 -313h-327l222 311zM975 1140h-327l221 311l358 2zM708 499v504h367v-1003h-367v107h-4c-34 -42 -74.5 -73.833 -121.5 -95.5s-97.5 -32.5 -151.5 -32.5c-236.667 0 -355 145.667 -355 437v587h365v-499c0 -71.333 10.167 -122.833 30.5 -154.5
s53.833 -47.5 100.5 -47.5c40.667 0 73.5 16.5 98.5 49.5s37.5 82.167 37.5 147.5z" />
    <glyph glyph-name="Uogonek" unicode="&#x172;" horiz-adv-x="1416" 
d="M929 1455h392.003v-844c0 -151.333 -33.333 -279.166 -100 -383.499s-162.334 -176.166 -287.001 -215.499c-122.667 -44.667 -184 -97.334 -184 -158.001c0 -22 6.66699 -38.833 20 -50.5s31.333 -17.5 54 -17.5c8.66699 0 17.167 0.5 25.5 1.5s17.666 2.66699 27.999 5
s16.166 3.5 17.499 3.5l14 -168c-36.667 -15.333 -89 -23 -157 -23c-78.667 0 -141.334 18.833 -188.001 56.5s-70 85.5 -70 143.5c0 30.667 7.16699 62 21.5 94s36.166 60.333 65.499 85v4c-151.333 23.333 -270.333 88.666 -357 195.999s-130 249.666 -130 426.999v844
h394v-822c0 -53.333 7.5 -101.5 22.5 -144.5s39.333 -78.333 73 -106s74.167 -41.5 121.5 -41.5c42.667 0 80.834 11.167 114.501 33.5s60.334 55.833 80.001 100.5s29.5 97.334 29.5 158.001v822z" />
    <glyph glyph-name="uogonek" unicode="&#x173;" horiz-adv-x="1160" 
d="M708 1003l366.999 0.00195312v-1003h-19c-60 0 -108.667 -13.833 -146 -41.5s-56 -58.834 -56 -93.501c0 -25.333 6.66699 -44.833 20 -58.5s31.333 -20.5 54 -20.5c12 0 22.333 0.5 31 1.5s16.834 2.5 24.501 4.5s12.834 3.33301 15.501 4l14 -168
c-36.667 -15.333 -89 -23 -157 -23c-78.667 0 -141.334 18.833 -188.001 56.5s-70 85.5 -70 143.5c0 34.667 9 69.667 27 105s45.667 65.666 83 90.999v106h-4c-34 -42 -74.5 -73.833 -121.5 -95.5s-97.5 -32.5 -151.5 -32.5c-236.667 0 -355 145.667 -355 437v587h365v-499
c0 -71.333 10.167 -122.833 30.5 -154.5s53.833 -47.5 100.5 -47.5c40.667 0 73.5 16.5 98.5 49.5s37.5 82.167 37.5 147.5v504z" />
    <glyph glyph-name="Wcircumflex" unicode="&#x174;" horiz-adv-x="2089" 
d="M1042 1731l-74 -145h-304l217 318h316l232 -318h-307l-76 145h-4zM1658 1455h416l-452 -1455h-354l-216 885h-4l-227 -885h-354l-452 1455h415l212 -811h5l194 811h410l191 -811h5z" />
    <glyph glyph-name="wcircumflex" unicode="&#x175;" horiz-adv-x="1562" 
d="M777 1281l-74 -145h-304l217 318h316l232 -318h-307l-76 145h-4zM1192 1003h360l-337 -1003h-284l-149 565h-2l-143 -565h-290l-337 1003h361l141 -481h2l127 481h278l129 -481h2z" />
    <glyph glyph-name="Ycircumflex" unicode="&#x176;" horiz-adv-x="1312" 
d="M653 1731l-74 -145h-304l217 318h316l232 -318h-307l-76 145h-4zM874 1455h451l-472 -827v-628h-397v628l-469 827h447l222 -445h2z" />
    <glyph glyph-name="ycircumflex" unicode="&#x177;" horiz-adv-x="1100" 
d="M551 1281l-74 -145h-304l217 318h316l232 -318h-307l-76 145h-4zM719 1003h373l-515 -1408h-355l170 479l-384 929h377l170 -475h4z" />
    <glyph glyph-name="Ydieresis" unicode="&#x178;" horiz-adv-x="1312" 
d="M412 1567c-61.333 0 -111.668 18.832 -151.001 56.499s-59 84.834 -59 141.501c0 55.333 19.833 101.666 59.5 138.999s89.834 56 150.501 56c61.333 0 111.666 -18.5 150.999 -55.5s59 -83.5 59 -139.5c0 -57.333 -19.667 -104.666 -59 -141.999
s-89.666 -56 -150.999 -56zM894.998 1567c-61.333 0 -111.669 18.833 -151.002 56.5s-59 84.834 -59 141.501c0 55.333 19.833 101.666 59.5 138.999s89.834 56 150.501 56c40 0 76.167 -8.5 108.5 -25.5s57.333 -40.333 75 -70s26.5 -62.834 26.5 -99.501
c0 -57.333 -19.667 -104.666 -59 -141.999s-89.666 -56 -150.999 -56zM873.995 1455h451l-472 -827v-628h-397v628l-469 827h447l222 -445h2z" />
    <glyph glyph-name="Zacute" unicode="&#x179;" horiz-adv-x="1243" 
d="M947 1904l-253 -313h-328l224 311zM1176 1161l-610 -811v-4h609v-346h-1107v303l589 801v4h-572v347h1091v-294z" />
    <glyph glyph-name="zacute" unicode="&#x17a;" horiz-adv-x="967" 
d="M865 1453l-253 -313h-328l224 311zM926 766l-409 -478v-3h388v-285h-856v239l398 477v4h-358v283h837v-237z" />
    <glyph glyph-name="Zdotaccent" unicode="&#x17b;" horiz-adv-x="1243" 
d="M615 1567c-61.333 0 -111.668 18.832 -151.001 56.499s-59 84.834 -59 141.501c0 55.333 19.833 101.666 59.5 138.999s89.834 56 150.501 56c61.333 0 111.666 -18.5 150.999 -55.5s59 -83.5 59 -139.5c0 -57.333 -19.667 -104.666 -59 -141.999
s-89.666 -56 -150.999 -56zM1176 1161l-610 -811v-4h609v-346h-1107v303l589 801v4h-572v347h1091v-294z" />
    <glyph glyph-name="zdotaccent" unicode="&#x17c;" horiz-adv-x="967" 
d="M488 1117c-61.333 0 -111.668 18.832 -151.001 56.499s-59 84.834 -59 141.501c0 36 8.83301 68.833 26.5 98.5s42.667 53.167 75 70.5s68.5 26 108.5 26s76.167 -8.5 108.5 -25.5s57.333 -40.333 75 -70s26.5 -62.834 26.5 -99.501
c0 -57.333 -19.667 -104.666 -59 -141.999s-89.666 -56 -150.999 -56zM925.998 765.999l-409 -478v-3h388v-285h-856v239l398 477v4h-358v283h837v-237z" />
    <glyph glyph-name="Zcaron" unicode="&#x17d;" horiz-adv-x="1243" 
d="M780 1586h-315l-232 318h307l75 -146h4l76 146h303zM1176 1161l-610 -811v-4h609v-346h-1107v303l589 801v4h-572v347h1091v-294z" />
    <glyph glyph-name="zcaron" unicode="&#x17e;" horiz-adv-x="967" 
d="M653 1136h-315l-232 318h307l75 -146h4l76 146h303zM926 766l-409 -478v-3h388v-285h-856v239l398 477v4h-358v283h837v-237z" />
    <glyph glyph-name="longs" unicode="&#x17f;" horiz-adv-x="715" 
d="M125 0l-0.00292969 713h-91v290h91v143c0 126 31 221.333 93 286s145.667 97 251 97c62.667 0 119.834 -9.5 171.501 -28.5s87.5 -36.833 107.5 -53.5l-63 -248c-14.667 8 -32.667 14.5 -54 19.5s-38.666 7.5 -51.999 7.5c-27.333 0 -48.666 -6.33301 -63.999 -19
s-23 -34.667 -23 -66v-1141h-367z" />
    <glyph glyph-name="uni018F" unicode="&#x18f;" horiz-adv-x="1474" 
d="M666 1476c111.333 0 213.335 -18 306.002 -54s171.334 -86.667 236.001 -152s115 -145 151 -239s54 -197.333 54 -310c0 -108 -17 -208.167 -51 -300.5s-80.667 -170.666 -140 -234.999s-130.666 -114.833 -213.999 -151.5s-173 -55 -269 -55
c-103.333 0 -198 18.167 -284 54.5s-157.833 86.666 -215.5 150.999s-102.334 140.833 -134.001 229.5s-47.5 185.334 -47.5 290.001c0 31.333 2.66699 72 8 122h945c-16.667 90.667 -52.5 161.667 -107.5 213s-123.5 77 -205.5 77c-106 0 -208.333 -24.667 -307 -74
l-193 313c30.667 16 60.167 29.833 88.5 41.5s62.666 24.167 102.999 37.5s84.166 23.666 131.499 30.999s95.666 11 144.999 11zM722.002 337c57.333 0 108.167 14.333 152.5 43s78.833 69.667 103.5 123h-508c22.667 -52.667 55.167 -93.5 97.5 -122.5
s93.833 -43.5 154.5 -43.5z" />
    <glyph glyph-name="florin" unicode="&#x192;" horiz-adv-x="1105" 
d="M196 -371c-38 0 -74.167 2.33203 -108.5 6.99902s-63.333 10.334 -87 17.001s-45.167 14.334 -64.5 23.001s-34.333 16.5 -45 23.5s-19 13.5 -25 19.5l122 236c62.667 -11.333 107.667 -17 135 -17c37.333 0 66.166 11.667 86.499 35s34.5 63.666 42.5 120.999l73 576
h-150l41 295h150l26 189c15.333 121.333 57.833 214.166 127.5 278.499s166.5 96.5 290.5 96.5c46 0 89.333 -3.5 130 -10.5s74.334 -15.833 101.001 -26.5s48 -20.5 64 -29.5s27.667 -17.167 35 -24.5l-122 -236c-72 11.333 -117.333 17 -136 17
c-38 0 -67.167 -11.833 -87.5 -35.5s-33.833 -64.5 -40.5 -122.5l-11 -96h240l-41 -295h-241l-86 -666c-17.333 -123.333 -60 -216.666 -128 -279.999s-165 -95 -291 -95z" />
    <glyph glyph-name="uni019D" unicode="&#x19d;" horiz-adv-x="1489" 
d="M991 1455h389.998v-1455h-404l-477 796h-5v-817c0 -269.333 -118.333 -404 -355 -404c-41.333 0 -80.333 2.5 -117 7.5s-61.667 9.33301 -75 13s-31.333 9.16699 -54 16.5l60 272c28.667 -10 56.667 -15 84 -15c12.667 0 23.334 2.16699 32.001 6.5
s15.5 9.83301 20.5 16.5s8.83301 15.667 11.5 27s4.33398 22 5.00098 32s1 22.667 1 38v1466h392l486 -820h5v820z" />
    <glyph glyph-name="Ohorn" unicode="&#x1a0;" horiz-adv-x="1693" 
d="M1449 1587l292.998 -0.000976562v-160c0 -187.333 -81.333 -302.666 -244 -345.999l-1 -3c50 -106 75 -223 75 -351c0 -110 -18.667 -211.5 -56 -304.5s-89 -172 -155 -237s-145.667 -115.667 -239 -152s-194.666 -54.5 -303.999 -54.5c-110.667 0 -213 18.333 -307 55
s-174 87.667 -240 153s-117.5 144.333 -154.5 237s-55.5 193.667 -55.5 303s18.5 210.5 55.5 303.5s88.5 172.167 154.5 237.5s146 116.333 240 153s196.333 55 307 55c79.333 0 154.833 -9.66699 226.5 -29s136.834 -47.166 195.501 -83.499
s110.334 -80.166 155.001 -131.499c21.333 15.333 35.666 36.666 42.999 63.999s11 64.666 11 111.999v179zM816.998 341.999c67.333 0 127.83 17.1689 181.497 51.502s95 80.666 124 138.999s43.5 123.166 43.5 194.499s-14.5 136.166 -43.5 194.499
s-70.333 104.666 -124 138.999s-114.167 51.5 -181.5 51.5s-127.666 -17 -180.999 -51s-94.833 -80.333 -124.5 -139s-44.5 -123.667 -44.5 -195s14.833 -136.166 44.5 -194.499s71.334 -104.666 125.001 -138.999s113.834 -51.5 180.501 -51.5z" />
    <glyph glyph-name="ohorn" unicode="&#x1a1;" horiz-adv-x="1435" 
d="M1095 1159l293.001 -0.000976562v-160c0 -193.333 -85.667 -309.666 -257 -348.999l-2 -5c12 -45.333 18 -93.333 18 -144c0 -102 -23.333 -192.667 -70 -272s-111.667 -140.833 -195 -184.5s-178.333 -65.5 -285 -65.5s-201.834 21.833 -285.501 65.5
s-148.667 105.167 -195 184.5s-69.5 170 -69.5 272s23.167 192.667 69.5 272s111.333 141 195 185s178.834 66 285.501 66c97.333 0 185.166 -18.5 263.499 -55.5s141.833 -89.167 190.5 -156.5c16.667 15.333 28.167 36.333 34.5 63s9.5 61.667 9.5 105v179z
M597.001 301.999c52 0 95.333 18.834 130 56.501s52 85.167 52 142.5c0 58.667 -17 106.5 -51 143.5s-77.667 55.5 -131 55.5s-97 -18.5 -131 -55.5s-51 -84.833 -51 -143.5c0 -22.667 3 -44.334 9 -65.001s14.5 -39 25.5 -55s24 -30 39 -42s31.667 -21.167 50 -27.5
s37.833 -9.5 58.5 -9.5z" />
    <glyph glyph-name="Uhorn" unicode="&#x1af;" horiz-adv-x="1696" 
d="M1450 1587l292.998 -0.00195312v-160c0 -66.667 -10.167 -124.167 -30.5 -172.5s-49.666 -86.5 -87.999 -114.5s-82.5 -48.333 -132.5 -61s-107 -18.334 -171 -17.001v-451c0 -127.333 -23.333 -238.166 -70 -332.499s-116.667 -167.833 -210 -220.5
s-205.333 -79 -336 -79c-92 0 -175.333 13.833 -250 41.5s-138.834 67.834 -192.501 120.501s-95.167 119 -124.5 199s-44 170.333 -44 271v844h394v-822c0 -53.333 7.5 -101.5 22.5 -144.5s39.333 -78.333 73 -106s74.167 -41.5 121.5 -41.5
c42.667 0 80.834 11.167 114.501 33.5s60.334 55.833 80.001 100.5s29.5 97.334 29.5 158.001v822h392v-249c18.667 2.66699 34.834 6.66699 48.501 12s25.167 12.333 34.5 21s17 18.167 23 28.5s10.667 23 14 38s5.66602 30.333 6.99902 46s2 34.5 2 56.5v179z" />
    <glyph glyph-name="uhorn" unicode="&#x1b0;" horiz-adv-x="1490" 
d="M1180 1159l292.999 -0.00195312v-160c0 -52 -6.33301 -98.333 -19 -139s-30.5 -75 -53.5 -103s-51.167 -51.167 -84.5 -69.5s-69.833 -31.666 -109.5 -39.999s-83.5 -12.833 -131.5 -13.5v-634h-367v107h-4c-34 -42 -74.5 -73.833 -121.5 -95.5s-97.5 -32.5 -151.5 -32.5
c-236.667 0 -355 145.667 -355 437v587h365v-499c0 -71.333 10.167 -122.833 30.5 -154.5s53.833 -47.5 100.5 -47.5c40.667 0 73.5 16.5 98.5 49.5s37.5 82.167 37.5 147.5v504h367v-220c42.667 10.667 70.834 30.834 84.501 60.501s20.5 75.167 20.5 136.5v179z" />
    <glyph glyph-name="Gcaron" unicode="&#x1e6;" horiz-adv-x="1486" 
d="M941 1583h-315l-232 318h307l75 -146h4l76 146h303zM791 520l-0.000976562 314.007h613v-677c-67.333 -50.667 -154 -92.5 -260 -125.5s-213.667 -49.5 -323 -49.5c-84.667 0 -164.834 10.333 -240.501 31s-145.167 51.667 -208.5 93s-118 91.166 -164 149.499
s-81.833 127.5 -107.5 207.5s-38.5 167 -38.5 261c0 84 10.5 163.833 31.5 239.5s52.333 144.667 94 207s92 116.166 151 161.499s128.333 80.666 208 105.999s165.834 38 258.501 38c110.667 0 220.5 -23.5 329.5 -70.5s199.167 -113.167 270.5 -198.5l-276 -233
c-94.667 90.667 -203 136 -325 136c-25.333 0 -50.166 -2.66699 -74.499 -8s-47.5 -13.666 -69.5 -24.999s-42.833 -24.833 -62.5 -40.5s-37.334 -34.334 -53.001 -56.001s-29.167 -45.334 -40.5 -71.001s-20.166 -54.334 -26.499 -86.001s-9.5 -64.834 -9.5 -99.501
c0 -52 8 -101.167 24 -147.5s38.5 -87.333 67.5 -123s66.167 -63.834 111.5 -84.501s95.333 -31 150 -31c76 0 148.667 16 218 48v134h-248z" />
    <glyph glyph-name="gcaron" unicode="&#x1e7;" horiz-adv-x="1204" 
d="M774 1136h-315l-232 318h307l75 -146h4l76 146h303zM752 1003l366.002 -0.00195312v-857c0 -70 -5.66699 -133.167 -17 -189.5s-30.333 -108.666 -57 -156.999s-61 -88.833 -103 -121.5s-94.833 -58.167 -158.5 -76.5s-136.834 -27.5 -219.501 -27.5
c-86 0 -161 7 -225 21s-127.667 37.667 -191 71l81 288c36 -22.667 81.5 -41.834 136.5 -57.501s105.833 -23.5 152.5 -23.5c77.333 0 137.333 15.333 180 46s64 69.334 64 116.001v91h-3c-64 -70 -152.333 -105 -265 -105c-86.667 0 -164.334 21.5 -233.001 64.5
s-121.834 101.667 -159.501 176s-56.5 157.5 -56.5 249.5c0 73.333 11.167 142 33.5 206s52.5 118.333 90.5 163s83.5 79.834 136.5 105.501s109.5 38.5 169.5 38.5c112.667 0 204.334 -39.667 275.001 -119h3v98zM591.002 342.998c50.667 0 92.833 16.5 126.5 49.5
s50.5 75.833 50.5 128.5c0 34.667 -7.83301 65.667 -23.5 93s-37 48.5 -64 63.5s-56.833 22.5 -89.5 22.5c-50 0 -92.167 -16.833 -126.5 -50.5s-51.5 -76.5 -51.5 -128.5c0 -52.667 17 -95.5 51 -128.5s76.333 -49.5 127 -49.5z" />
    <glyph glyph-name="uni01EA" unicode="&#x1ea;" horiz-adv-x="1633" 
d="M1572 727c0 -186 -50.667 -344 -152 -474s-237 -214.333 -407 -253h1h-2c-26 -6 -57.333 -11.333 -94 -16c-32.667 -12 -58.5 -29 -77.5 -51s-28.5 -44.667 -28.5 -68c0 -25.333 6.66699 -44.833 20 -58.5s31.333 -20.5 54 -20.5c12 0 22.333 0.5 31 1.5
s16.834 2.5 24.501 4.5s12.834 3.33301 15.501 4l14 -168c-36.667 -15.333 -89 -23 -157 -23c-78.667 0 -141.334 18.833 -188.001 56.5s-70 85.5 -70 143.5c0 32.667 7.66699 65.5 23 98.5s39.333 61.833 72 86.5v4c-118 22 -221.5 66.333 -310.5 133
s-157.833 151.667 -206.5 255s-73 218.333 -73 345c0 109.333 18.5 210.5 55.5 303.5s88.5 172.167 154.5 237.5s146 116.333 240 153s196.333 55 307 55c109.333 0 210.666 -18.167 303.999 -54.5s173 -87 239 -152s117.667 -144.167 155 -237.5s56 -195 56 -305zM817 342
c67.333 0 127.83 17.1689 181.497 51.502s95 80.666 124 138.999s43.5 123.166 43.5 194.499s-14.5 136.166 -43.5 194.499s-70.333 104.666 -124 138.999s-114.167 51.5 -181.5 51.5s-127.666 -17 -180.999 -51s-94.833 -80.333 -124.5 -139s-44.5 -123.667 -44.5 -195
s14.833 -136.166 44.5 -194.499s71.334 -104.666 125.001 -138.999s113.834 -51.5 180.501 -51.5z" />
    <glyph glyph-name="uni01EB" unicode="&#x1eb;" horiz-adv-x="1194" 
d="M662 -18c-31.333 -12 -55.8379 -28.667 -73.5049 -50s-26.5 -43.666 -26.5 -66.999c0 -25.333 6.66699 -44.833 20 -58.5s31.333 -20.5 54 -20.5c12 0 22.333 0.5 31 1.5s16.834 2.5 24.501 4.5s12.834 3.33301 15.501 4l14 -168c-36.667 -15.333 -89 -23 -157 -23
c-52.667 0 -98.667 8.83301 -138 26.5s-69.166 41.5 -89.499 71.5s-30.5 64 -30.5 102c0 22 3.5 44 10.5 66s18.833 44.667 35.5 68s37.334 43.666 62.001 60.999v4c-112.667 32.667 -202 93.167 -268 181.5s-99 193.5 -99 315.5c0 102 23.167 192.667 69.5 272
s111.333 141 195 185s178.834 66 285.501 66s201.667 -22 285 -66s148.333 -105.667 195 -185s70 -170 70 -272c0 -143.333 -44.667 -262.333 -134 -357s-206.333 -148.667 -351 -162zM596.995 700c-53.333 0 -97 -18.5 -131 -55.5s-51 -84.833 -51 -143.5
c0 -57.333 17.333 -104.833 52 -142.5s78 -56.5 130 -56.5s95.333 18.833 130 56.5s52 85.167 52 142.5c0 38.667 -7.66699 73.167 -23 103.5s-36.833 53.833 -64.5 70.5s-59.167 25 -94.5 25z" />
    <glyph glyph-name="Aringacute" unicode="&#x1fa;" horiz-adv-x="1420" 
d="M711 1552c-63.333 0 -116.833 20.5 -160.5 61.5s-65.5 93.167 -65.5 156.5c0 61.333 21 112.833 63 154.5s96.333 62.5 163 62.5c54 0 100.333 -14.333 139 -43l128 105l359 2l-406 -338c-12 -47.333 -37.667 -86 -77 -116s-87 -45 -143 -45zM711 1844
c-9.33301 0 -18.333 -1.99902 -27 -5.99902s-16.167 -9.33301 -22.5 -16s-11.333 -14.334 -15 -23.001s-5.5 -17.667 -5.5 -27c0 -19.333 6.83301 -35.833 20.5 -49.5s30.167 -20.5 49.5 -20.5c13.333 0 25.333 3.16699 36 9.5s19 15 25 26s9 23.167 9 36.5
c0 19.333 -6.66699 35.833 -20 49.5s-30 20.5 -50 20.5zM1017 0.000976562l-73 235h-467l-73 -235h-408l528 1455h372l528 -1455h-407zM578 562.001h264l-130 418h-4z" />
    <glyph glyph-name="aringacute" unicode="&#x1fb;" horiz-adv-x="1204" 
d="M595 1101c-63.333 0 -116.832 20.5 -160.499 61.5s-65.5 93.167 -65.5 156.5c0 61.333 21 112.833 63 154.5s96.333 62.5 163 62.5c57.333 0 107.333 -17 150 -51l142 114l357 1l-436 -359c-14.667 -42 -40.834 -75.833 -78.501 -101.5s-82.5 -38.5 -134.5 -38.5z
M595.001 1393c-18.667 0 -35 -7.16797 -49 -21.501s-21 -31.166 -21 -50.499s6.83301 -35.833 20.5 -49.5s30.167 -20.5 49.5 -20.5c20 0 36.667 7 50 21s20 31 20 51c0 9.33301 -1.83301 18.333 -5.5 27s-8.5 16.167 -14.5 22.5s-13.333 11.333 -22 15s-18 5.5 -28 5.5z
M751.001 903.999l-0.000976562 99.002h367v-1003h-347v94h-3c-60 -76.667 -146 -115 -258 -115c-68 0 -130.833 12.833 -188.5 38.5s-106.834 61.167 -147.501 106.5s-72.5 100.5 -95.5 165.5s-34.5 135.833 -34.5 212.5c0 75.333 11.333 145.666 34 210.999
s53.834 120.666 93.501 165.999s86.834 80.833 141.501 106.5s113 38.5 175 38.5c104 0 190.667 -40 260 -120h3zM591 299.001c50 0 91.833 18.665 125.5 55.998s50.5 86 50.5 146c0 58.667 -16.833 106.834 -50.5 144.501s-75.5 56.5 -125.5 56.5
c-52 0 -94.667 -18.667 -128 -56s-50 -85.666 -50 -144.999c0 -60.667 16.667 -109.5 50 -146.5s76 -55.5 128 -55.5z" />
    <glyph glyph-name="AEacute" unicode="&#x1fc;" horiz-adv-x="1942" 
d="M1329 1904l-253 -313h-328l224 311zM1248 346h634v-346h-1011v236h-362l-105 -236h-408l678 1455h1166v-347h-592v-220h472v-332h-472v-210zM655 562h216v478h-3z" />
    <glyph glyph-name="aeacute" unicode="&#x1fd;" horiz-adv-x="1618" 
d="M1194 1454l-253 -313h-328l224 311zM1574 504c0 -24.667 -3.33105 -54.999 -9.99805 -90.999h-630c14 -44.667 38 -78.834 72 -102.501s76 -35.5 126 -35.5c48 0 90.5 10.667 127.5 32s66.833 45.333 89.5 72l185 -210
c-45.333 -55.333 -106.666 -100.833 -183.999 -136.5s-162.333 -53.5 -255 -53.5c-42 0 -82.833 5.16699 -122.5 15.5s-75.5 24.5 -107.5 42.5s-60.667 39 -86 63h-5c-41.333 -37.333 -94.833 -66.833 -160.5 -88.5s-131.834 -32.5 -198.501 -32.5
c-64 0 -120.333 7.83301 -169 23.5s-88.167 37.667 -118.5 66s-53.166 61 -68.499 98s-23 78.167 -23 123.5c0 210 139 315 417 315l129 2v4c0 50.667 -9.83301 86 -29.5 106s-50.834 30 -93.501 30c-70.667 0 -138.334 -20.333 -203.001 -61l-158 241
c32 18 85.5 38.667 160.5 62s148.167 35 219.5 35c70 0 129.5 -8 178.5 -24s89.833 -43.333 122.5 -82h5c81.333 70.667 179.666 106 294.999 106c55.333 0 108.333 -8.33301 159 -25s96.167 -40.667 136.5 -72s75.5 -68.166 105.5 -110.499s53.167 -90.333 69.5 -144
s24.5 -109.834 24.5 -168.501zM1077 736.001c-34.667 0 -65 -10.667 -91 -32s-44.333 -54.333 -55 -99h287c-13.333 87.333 -60.333 131 -141 131zM463.002 227.001c16 0 30.833 2.66797 44.5 8.00098s24.834 12.166 33.501 20.499s16.167 17.333 22.5 27s11 18.5 14 26.5
s4.5 15 4.5 21v89l-87 -2c-37.333 -1.33301 -66.5 -10 -87.5 -26s-31.5 -40 -31.5 -72c0 -29.333 7.66699 -52 23 -68s36.666 -24 63.999 -24z" />
    <glyph glyph-name="Oslashacute" unicode="&#x1fe;" horiz-adv-x="1634" 
d="M1234 1900l-253 -313h-328l224 311zM1406 1220c110.667 -134.667 165.998 -299.001 165.998 -493.001c0 -110 -18.667 -211.5 -56 -304.5s-89 -172 -155 -237s-145.667 -115.667 -239 -152s-194.666 -54.5 -303.999 -54.5c-164.667 0 -308.667 39.333 -432 118l-159 -175
l-142 132l153 168c-28 32.667 -53 67.834 -75 105.501s-40.5 77.5 -55.5 119.5s-26.5 86.667 -34.5 134s-12 96 -12 146c0 109.333 18.5 210.5 55.5 303.5s88.5 172.167 154.5 237.5s146 116.333 240 153s196.333 55 307 55c170.667 0 319.334 -42.667 446.001 -128l152 167
l141 -129zM466.998 726.999c0 -74 15.999 -141 47.999 -201l486 533c-54 35.333 -115.333 53 -184 53c-67.333 0 -127.666 -17 -180.999 -51s-94.833 -80.333 -124.5 -139s-44.5 -123.667 -44.5 -195zM816.997 341.999c50.667 0 97.834 9.99902 141.501 29.999
s80.667 47.333 111 82s54 75.5 71 122.5s25.5 97.167 25.5 150.5c0 66.667 -13.333 128.334 -40 185.001l-478 -526c51.333 -29.333 107.666 -44 168.999 -44z" />
    <glyph glyph-name="oslashacute" unicode="&#x1ff;" horiz-adv-x="1194" 
d="M995 1455l-253 -313h-328l224 311zM1017 854c86.667 -94 129.999 -211.667 129.999 -353c0 -102 -23.333 -192.667 -70 -272s-111.667 -140.833 -195 -184.5s-178.333 -65.5 -285 -65.5c-116.667 0 -220 26.667 -310 80l-105 -114l-117 108l100 109
c-78.667 92 -118 205 -118 339c0 102 23.167 192.667 69.5 272s111.333 141 195 185s178.834 66 285.501 66c112 0 210.333 -24 295 -72l94 103l117 -108zM414.999 501c0 -18.667 2.33496 -38.333 7.00195 -59l230 250c-18 5.33301 -36.333 8 -55 8
c-34.667 0 -65.834 -8.33301 -93.501 -25s-49.334 -40.167 -65.001 -70.5s-23.5 -64.833 -23.5 -103.5zM597.001 302.001c34 0 64.833 8.5 92.5 25.5s49.5 40.667 65.5 71s24 64.5 24 102.5c0 26.667 -4.33301 53 -13 79l-242 -263c22 -10 46.333 -15 73 -15z" />
    <glyph glyph-name="Scommaaccent" unicode="&#x218;" horiz-adv-x="1144" 
d="M555 -21c-97.333 0 -192.334 19.5 -285.001 58.5s-177 97.167 -253 174.5l220 271c54 -54.667 110.5 -95.167 169.5 -121.5s113.167 -39.5 162.5 -39.5c42 0 73.333 9.16699 94 27.5s31 40.5 31 66.5c0 30 -11.833 54.5 -35.5 73.5s-73.167 41.167 -148.5 66.5
c-35.333 12 -66.833 23.5 -94.5 34.5s-57.334 24.667 -89.001 41s-59.5 33.166 -83.5 50.499s-47.5 38.333 -70.5 63s-41.667 50.834 -56 78.501s-26 59.5 -35 95.5s-13.5 74.667 -13.5 116c0 81.333 20.833 155.166 62.5 221.499s99.5 118.833 173.5 157.5s157 59 249 61
c96.667 2 188.834 -14.167 276.501 -48.5s167.167 -82.833 238.5 -145.5l-216 -278c-61.333 47.333 -113.5 81 -156.5 101s-83.167 30 -120.5 30c-33.333 0 -58.666 -7.66699 -75.999 -23s-26 -36.333 -26 -63s12.333 -50.834 37 -72.501s72 -45.834 142 -72.501
c122.667 -47.333 204 -81.666 244 -102.999c88 -47.333 147 -106 177 -176c20 -46 30 -100.333 30 -163c0 -50.667 -5.83301 -97.667 -17.5 -141s-27.667 -81.166 -48 -113.499s-44.833 -61.5 -73.5 -87.5s-59 -47.667 -91 -65s-66.333 -31.666 -103 -42.999
s-72.667 -19.5 -108 -24.5s-71 -7.5 -107 -7.5zM379.999 -455l-61.001 193.999c26.667 4 47.834 9.16699 63.501 15.5s27.5 14.833 35.5 25.5s12 24 12 40c0 19.333 -5 43 -15 71h287c8.66699 -25.333 13 -51.666 13 -78.999c0 -178 -111.667 -267 -335 -267z" />
    <glyph glyph-name="scommaaccent" unicode="&#x219;" horiz-adv-x="891" 
d="M426 -21c-160.667 0 -297.336 50.002 -410.003 150.002l166 226c87.333 -76 171 -114 251 -114c49.333 0 74 13.667 74 41c0 9.33301 -2.66699 17.166 -8 23.499s-18.166 14.166 -38.499 23.499s-50.5 19.666 -90.5 30.999c-36 10.667 -68.833 22.167 -98.5 34.5
s-58.5 27.833 -86.5 46.5s-51.5 39.334 -70.5 62.001s-34.167 49.667 -45.5 81s-17 65.666 -17 102.999c0 53.333 10.167 101.666 30.5 144.999s48.166 78.833 83.499 106.5s76.166 48.834 122.499 63.501s95.833 22 148.5 22c53.333 0 102.833 -5 148.5 -15
s87.334 -23.833 125.001 -41.5s77.167 -41.167 118.5 -70.5l-169 -243c-32 32 -67 57.167 -105 75.5s-73.333 27.5 -106 27.5c-17.333 0 -32.166 -3.5 -44.499 -10.5s-18.5 -17.167 -18.5 -30.5c0 -10.667 8.66699 -21.167 26 -31.5s50 -23.166 98 -38.499
c49.333 -16 90.5 -30.833 123.5 -44.5s64.167 -29.834 93.5 -48.501s52.333 -39 69 -61s29.667 -48 39 -78s14 -64.333 14 -103c0 -49.333 -8.83301 -94.166 -26.5 -134.499s-43.667 -75.333 -78 -105s-78.666 -52.5 -132.999 -68.5s-116.166 -24 -185.499 -24z
M272.998 -454.998l-60.999 194c39.333 5.33301 67.666 14.166 84.999 26.499s26 30.5 26 54.5c0 19.333 -5 43 -15 71h287c8.66699 -25.333 13 -51.666 13 -78.999c0 -178 -111.667 -267 -335 -267z" />
    <glyph glyph-name="uni021A" unicode="&#x21a;" horiz-adv-x="1197" 
d="M406 0v1108h-370v347h1125v-347h-368v-1108h-387zM412 -455l-60.999 194c39.333 5.33301 67.666 14.166 84.999 26.499s26 30.5 26 54.5c0 19.333 -5 43 -15 71h287c8.66699 -25.333 13 -51.666 13 -78.999c0 -178 -111.667 -267 -335 -267z" />
    <glyph glyph-name="uni021B" unicode="&#x21b;" horiz-adv-x="774" 
d="M431 -21c-43.333 0 -83.166 6.83301 -119.499 20.5s-68 34 -95 61s-48.167 62.167 -63.5 105.5s-23 93 -23 149v398h-109v290h109v315l365 38v-353h218v-290h-218v-319c0 -14 0.666992 -26.167 2 -36.5s4 -20.833 8 -31.5s10.833 -19 20.5 -25s21.5 -9 35.5 -9
c26 0 50.667 5.33301 74 16l89 -255c-43.333 -24.667 -86.333 -43.167 -129 -55.5s-97.334 -18.5 -164.001 -18.5zM240 -455l-61.001 193.999c26.667 4 47.834 9.16699 63.501 15.5s27.5 14.833 35.5 25.5s12 24 12 40c0 19.333 -5 43 -15 71h287
c8.66699 -25.333 13 -51.666 13 -78.999c0 -178 -111.667 -267 -335 -267z" />
    <glyph glyph-name="uni0232" unicode="&#x232;" horiz-adv-x="1312" 
d="M985 1904v-270h-656v270h656zM874 1455h451l-472 -827v-628h-397v628l-469 827h447l222 -445h2z" />
    <glyph glyph-name="uni0233" unicode="&#x233;" horiz-adv-x="1100" 
d="M883 1454v-270h-656v270h656zM719 1003h373l-515 -1408h-355l170 479l-384 929h377l170 -475h4z" />
    <glyph glyph-name="uni0237" unicode="&#x237;" horiz-adv-x="547" 
d="M123 -425c-41.333 0 -80.333 2.50098 -117 7.50098s-61.667 9.33301 -75 13s-31.333 9.16699 -54 16.5l60 282c28.667 -10 56.667 -15 84 -15c30 0 49.167 9.16699 57.5 27.5s12.5 49.166 12.5 92.499v1004h365v-1044c0 -86 -12.333 -157.5 -37 -214.5
s-61.5 -99.5 -110.5 -127.5s-110.833 -42 -185.5 -42z" />
    <glyph glyph-name="uni0259" unicode="&#x259;" horiz-adv-x="1116" 
d="M533 1024c105.333 0 198.667 -21.9961 280 -65.9961s144.333 -106 189 -186s67 -171.667 67 -275c0 -74 -13 -143 -39 -207s-61.833 -118.833 -107.5 -164.5s-100.667 -81.5 -165 -107.5s-133.833 -39 -208.5 -39c-71.333 0 -138.333 13.167 -201 39.5
s-116.167 62.166 -160.5 107.499s-79.333 100.166 -105 164.499s-38.5 133.166 -38.5 206.499c0 38 3.33301 70.333 10 97h663c-6 30.667 -18.667 56.667 -38 78s-43 37.166 -71 47.499s-59.333 15.5 -94 15.5c-68 0 -147.667 -23.333 -239 -70l-132 262
c114 64.667 244 97 390 97zM557.001 258.004c42.667 0 78.1699 11.667 106.503 35s46.166 57.333 53.499 102h-318c9.33301 -43.333 28.166 -77 56.499 -101s62.166 -36 101.499 -36z" />
    </font>
</defs>
</svg>
